Oswald-400-Pole-FF.ufo
<glyph name="exclam" format="1">
  <advance width="428"/>
  <unicode hex="0021"/>
  <outline>
    <contour>
      <point x="46" y="0" type="line"/>
      <point x="282" y="0" type="line"/>
      <point x="307" y="237" type="line"/>
      <point x="71" y="237" type="line"/>
    </contour>
    <contour>
      <point x="159" y="355" type="line"/>
      <point x="242" y="355" type="line"/>
      <point x="456" y="1658" type="line"/>
      <point x="220" y="1658" type="line"/>
    </contour>
  </outline>
</glyph>
<glyph name="quotedbl" format="1">
  <advance width="790"/>
  <unicode hex="0022"/>
  <outline>
    <contour>
      <point x="247" y="1144" type="line"/>
      <point x="374" y="1144" type="line"/>
      <point x="511" y="1658" type="line"/>
      <point x="301" y="1658" type="line"/>
    </contour>
    <contour>
      <point x="558" y="1144" type="line"/>
      <point x="685" y="1144" type="line"/>
      <point x="822" y="1658" type="line"/>
      <point x="612" y="1658" type="line"/>
    </contour>
  </outline>
</glyph>
<glyph name="numbersign" format="1">
  <advance width="1005"/>
  <unicode hex="0023"/>
  <outline>
    <contour>
      <point x="10" y="0" type="line"/>
      <point x="246" y="0" type="line"/>
      <point x="392" y="592" type="line"/>
      <point x="569" y="592" type="line"/>
      <point x="423" y="0" type="line"/>
      <point x="661" y="0" type="line"/>
      <point x="806" y="592" type="line"/>
      <point x="959" y="592" type="line"/>
      <point x="978" y="769" type="line"/>
      <point x="850" y="769" type="line"/>
      <point x="895" y="947" type="line"/>
      <point x="997" y="947" type="line"/>
      <point x="1015" y="1125" type="line"/>
      <point x="937" y="1125" type="line"/>
      <point x="1069" y="1658" type="line"/>
      <point x="833" y="1658" type="line"/>
      <point x="701" y="1125" type="line"/>
      <point x="523" y="1125" type="line"/>
      <point x="655" y="1658" type="line"/>
      <point x="418" y="1658" type="line"/>
      <point x="286" y="1125" type="line"/>
      <point x="128" y="1125" type="line"/>
      <point x="110" y="947" type="line"/>
      <point x="243" y="947" type="line"/>
      <point x="199" y="769" type="line"/>
      <point x="91" y="769" type="line"/>
      <point x="72" y="592" type="line"/>
      <point x="154" y="592" type="line"/>
    </contour>
    <contour>
      <point x="435" y="769" type="line"/>
      <point x="480" y="947" type="line"/>
      <point x="658" y="947" type="line"/>
      <point x="614" y="769" type="line"/>
    </contour>
  </outline>
</glyph>
<glyph name="dollar" format="1">
  <advance width="1018"/>
  <unicode hex="0024"/>
  <outline>
    <contour>
      <point x="443" y="-151" type="line"/>
      <point x="515" y="-151" type="line"/>
      <point x="530" y="-14" type="line"/>
      <point x="737" y="9"/>
      <point x="892" y="156"/>
      <point x="916" y="382" type="curve" smooth="yes"/>
      <point x="938" y="594"/>
      <point x="840" y="738"/>
      <point x="728" y="848" type="curve"/>
      <point x="477" y="1087" type="line"/>
      <point x="410" y="1153"/>
      <point x="383" y="1205"/>
      <point x="393" y="1308" type="curve" smooth="yes"/>
      <point x="405" y="1421"/>
      <point x="472" y="1472"/>
      <point x="582" y="1480" type="curve" smooth="yes"/>
      <point x="751" y="1493"/>
      <point x="768" y="1337"/>
      <point x="761" y="1184" type="curve"/>
      <point x="979" y="1243" type="line"/>
      <point x="981" y="1508"/>
      <point x="893" y="1656"/>
      <point x="660" y="1672" type="curve"/>
      <point x="673" y="1800" type="line"/>
      <point x="601" y="1800" type="line"/>
      <point x="588" y="1674" type="line"/>
      <point x="353" y="1665"/>
      <point x="192" y="1525"/>
      <point x="167" y="1284" type="curve" smooth="yes"/>
      <point x="148" y="1108"/>
      <point x="193" y="1006"/>
      <point x="292" y="909" type="curve"/>
      <point x="540" y="670" type="line"/>
      <point x="628" y="583"/>
      <point x="698" y="511"/>
      <point x="682" y="362" type="curve" smooth="yes"/>
      <point x="670" y="244"/>
      <point x="606" y="178"/>
      <point x="494" y="178" type="curve" smooth="yes"/>
      <point x="323" y="178"/>
      <point x="297" y="362"/>
      <point x="307" y="533" type="curve"/>
      <point x="78" y="473" type="line"/>
      <point x="64" y="188"/>
      <point x="176" y="-10"/>
      <point x="457" y="-17" type="curve"/>
    </contour>
  </outline>
</glyph>
<glyph name="percent" format="1">
  <advance width="1907"/>
  <unicode hex="0025"/>
  <outline>
    <contour>
      <point x="460" y="945" type="curve" smooth="yes"/>
      <point x="355" y="945"/>
      <point x="348" y="1050"/>
      <point x="360" y="1159" type="curve" smooth="yes"/>
      <point x="373" y="1281" type="line" smooth="yes"/>
      <point x="384" y="1392"/>
      <point x="406" y="1488"/>
      <point x="517" y="1488" type="curve" smooth="yes"/>
      <point x="627" y="1488"/>
      <point x="632" y="1396"/>
      <point x="620" y="1283" type="curve" smooth="yes"/>
      <point x="607" y="1161" type="line" smooth="yes"/>
      <point x="596" y="1052"/>
      <point x="568" y="945"/>
    </contour>
    <contour>
      <point x="442" y="767" type="curve" smooth="yes"/>
      <point x="682" y="767"/>
      <point x="796" y="911"/>
      <point x="822" y="1161" type="curve" smooth="yes"/>
      <point x="835" y="1283" type="line" smooth="yes"/>
      <point x="861" y="1534"/>
      <point x="780" y="1668"/>
      <point x="536" y="1668" type="curve" smooth="yes"/>
      <point x="290" y="1668"/>
      <point x="182" y="1525"/>
      <point x="156" y="1271" type="curve"/>
      <point x="145" y="1168" type="line" smooth="yes"/>
      <point x="119" y="920"/>
      <point x="203" y="767"/>
    </contour>
    <contour>
      <point x="1464" y="168" type="curve" smooth="yes"/>
      <point x="1359" y="168"/>
      <point x="1352" y="273"/>
      <point x="1363" y="382" type="curve" smooth="yes"/>
      <point x="1376" y="504" type="line" smooth="yes"/>
      <point x="1388" y="615"/>
      <point x="1410" y="711"/>
      <point x="1521" y="711" type="curve" smooth="yes"/>
      <point x="1631" y="711"/>
      <point x="1635" y="619"/>
      <point x="1623" y="506" type="curve" smooth="yes"/>
      <point x="1610" y="384" type="line" smooth="yes"/>
      <point x="1599" y="275"/>
      <point x="1572" y="168"/>
    </contour>
    <contour>
      <point x="1445" y="-10" type="curve" smooth="yes"/>
      <point x="1685" y="-10"/>
      <point x="1799" y="134"/>
      <point x="1825" y="384" type="curve" smooth="yes"/>
      <point x="1838" y="506" type="line" smooth="yes"/>
      <point x="1865" y="757"/>
      <point x="1784" y="891"/>
      <point x="1540" y="891" type="curve" smooth="yes"/>
      <point x="1294" y="891"/>
      <point x="1186" y="748"/>
      <point x="1159" y="494" type="curve" smooth="yes"/>
      <point x="1148" y="391" type="line" smooth="yes"/>
      <point x="1122" y="143"/>
      <point x="1206" y="-10"/>
    </contour>
    <contour>
      <point x="584" y="0" type="line"/>
      <point x="788" y="0" type="line"/>
      <point x="1400" y="1658" type="line"/>
      <point x="1197" y="1658" type="line"/>
    </contour>
  </outline>
</glyph>
<glyph name="ampersand" format="1">
  <advance width="1242"/>
  <unicode hex="0026"/>
  <outline>
    <contour>
      <point x="421" y="-17" type="curve" smooth="yes"/>
      <point x="584" y="-17"/>
      <point x="711" y="51"/>
      <point x="794" y="145" type="curve"/>
      <point x="856" y="78"/>
      <point x="922" y="-18"/>
      <point x="1046" y="-18" type="curve" smooth="yes"/>
      <point x="1055" y="-18"/>
      <point x="1064" y="-18"/>
      <point x="1073" y="-17" type="curve"/>
      <point x="1099" y="227" type="line"/>
      <point x="1035" y="227"/>
      <point x="977" y="269"/>
      <point x="952" y="306" type="curve"/>
      <point x="1033" y="411"/>
      <point x="1139" y="605"/>
      <point x="1156" y="769" type="curve"/>
      <point x="919" y="769" type="line"/>
      <point x="893" y="653"/>
      <point x="860" y="533"/>
      <point x="817" y="454" type="curve"/>
      <point x="623" y="820" type="line"/>
      <point x="754" y="938"/>
      <point x="958" y="1137"/>
      <point x="981" y="1362" type="curve" smooth="yes"/>
      <point x="1002" y="1558"/>
      <point x="856" y="1674"/>
      <point x="659" y="1674" type="curve" smooth="yes"/>
      <point x="440" y="1674"/>
      <point x="288" y="1521"/>
      <point x="265" y="1302" type="curve" smooth="yes"/>
      <point x="245" y="1117"/>
      <point x="340" y="963"/>
      <point x="392" y="829" type="curve"/>
      <point x="261" y="723"/>
      <point x="128" y="572"/>
      <point x="105" y="355" type="curve" smooth="yes"/>
      <point x="82" y="134"/>
      <point x="198" y="-17"/>
    </contour>
    <contour>
      <point x="442" y="178" type="curve" smooth="yes"/>
      <point x="351" y="178"/>
      <point x="333" y="263"/>
      <point x="342" y="355" type="curve"/>
      <point x="355" y="472"/>
      <point x="409" y="592"/>
      <point x="467" y="661" type="curve"/>
      <point x="665" y="298" type="line"/>
      <point x="615" y="242"/>
      <point x="541" y="178"/>
    </contour>
    <contour>
      <point x="554" y="947" type="curve"/>
      <point x="525" y="1045"/>
      <point x="487" y="1173"/>
      <point x="501" y="1302" type="curve" smooth="yes"/>
      <point x="510" y="1389"/>
      <point x="553" y="1480"/>
      <point x="639" y="1480" type="curve" smooth="yes"/>
      <point x="711" y="1480"/>
      <point x="752" y="1434"/>
      <point x="744" y="1362" type="curve" smooth="yes"/>
      <point x="728" y="1210"/>
      <point x="636" y="1039"/>
    </contour>
  </outline>
</glyph>
<glyph name="quotesingle" format="1">
  <advance width="791"/>
  <unicode hex="0027"/>
  <outline>
    <contour>
      <point x="247" y="1144" type="line"/>
      <point x="374" y="1144" type="line"/>
      <point x="511" y="1658" type="line"/>
      <point x="301" y="1658" type="line"/>
    </contour>
  </outline>
</glyph>
<glyph name="parenleft" format="1">
  <advance width="620"/>
  <unicode hex="0028"/>
  <outline>
    <contour>
      <point x="467" y="-412" type="curve"/>
      <point x="483" y="-255" type="line"/>
      <point x="292" y="-255"/>
      <point x="346" y="215"/>
      <point x="389" y="629" type="curve" smooth="yes"/>
      <point x="432" y="1038"/>
      <point x="479" y="1516"/>
      <point x="669" y="1516" type="curve"/>
      <point x="686" y="1674" type="line"/>
      <point x="280" y="1674"/>
      <point x="215" y="1124"/>
      <point x="163" y="629" type="curve" smooth="yes"/>
      <point x="111" y="135"/>
      <point x="61" y="-412"/>
    </contour>
  </outline>
</glyph>
<glyph name="parenright" format="1">
  <advance width="533"/>
  <unicode hex="0029"/>
  <outline>
    <contour>
      <point x="-33" y="-412" type="line"/>
      <point x="373" y="-412"/>
      <point x="438" y="138"/>
      <point x="490" y="633" type="curve" smooth="yes"/>
      <point x="541" y="1127"/>
      <point x="592" y="1674"/>
      <point x="186" y="1674" type="curve"/>
      <point x="169" y="1517" type="line"/>
      <point x="360" y="1517"/>
      <point x="307" y="1047"/>
      <point x="264" y="633" type="curve" smooth="yes"/>
      <point x="221" y="224"/>
      <point x="173" y="-254"/>
      <point x="-17" y="-254" type="curve"/>
    </contour>
  </outline>
</glyph>
<glyph name="asterisk" format="1">
  <advance width="828"/>
  <unicode hex="002A"/>
  <outline>
    <contour>
      <point x="367" y="952" type="line"/>
      <point x="521" y="1208" type="line"/>
      <point x="620" y="952" type="line"/>
      <point x="771" y="1036" type="line"/>
      <point x="634" y="1259" type="line"/>
      <point x="882" y="1351" type="line"/>
      <point x="842" y="1500" type="line"/>
      <point x="601" y="1378" type="line"/>
      <point x="657" y="1656" type="line"/>
      <point x="479" y="1656" type="line"/>
      <point x="476" y="1378" type="line"/>
      <point x="262" y="1500" type="line"/>
      <point x="190" y="1351" type="line"/>
      <point x="418" y="1260" type="line"/>
      <point x="236" y="1036" type="line"/>
    </contour>
  </outline>
</glyph>
<glyph name="plus" format="1">
  <advance width="866"/>
  <unicode hex="002B"/>
  <outline>
    <contour>
      <point x="334" y="425" type="line"/>
      <point x="511" y="425" type="line"/>
      <point x="546" y="763" type="line"/>
      <point x="844" y="763" type="line"/>
      <point x="863" y="941" type="line"/>
      <point x="565" y="941" type="line"/>
      <point x="600" y="1278" type="line"/>
      <point x="423" y="1278" type="line"/>
      <point x="388" y="941" type="line"/>
      <point x="101" y="941" type="line"/>
      <point x="82" y="763" type="line"/>
      <point x="369" y="763" type="line"/>
    </contour>
  </outline>
</glyph>
<glyph name="comma" format="1">
  <advance width="385"/>
  <unicode hex="002C"/>
  <outline>
    <contour>
      <point x="34" y="-277" type="line"/>
      <point x="177" y="-232"/>
      <point x="253" y="-147"/>
      <point x="268" y="2" type="curve" smooth="yes"/>
      <point x="293" y="238" type="line"/>
      <point x="51" y="238" type="line"/>
      <point x="26" y="0" type="line"/>
      <point x="150" y="0" type="line"/>
      <point x="141" y="-83"/>
      <point x="86" y="-154"/>
      <point x="8" y="-174" type="curve"/>
    </contour>
  </outline>
</glyph>
<glyph name="hyphen" format="1">
  <advance width="670"/>
  <unicode hex="002D"/>
  <outline>
    <contour>
      <point x="107" y="516" type="line"/>
      <point x="571" y="516" type="line"/>
      <point x="590" y="694" type="line"/>
      <point x="126" y="694" type="line"/>
    </contour>
  </outline>
</glyph>
<glyph name="period" format="1">
  <advance width="390"/>
  <unicode hex="002E"/>
  <outline>
    <contour>
      <point x="44" y="0" type="line"/>
      <point x="280" y="0" type="line"/>
      <point x="306" y="248" type="line"/>
      <point x="70" y="248" type="line"/>
    </contour>
  </outline>
</glyph>
<glyph name="slash" format="1">
  <advance width="769"/>
  <unicode hex="002F"/>
  <outline>
    <contour>
      <point x="11" y="0" type="line"/>
      <point x="215" y="0" type="line"/>
      <point x="830" y="1658" type="line"/>
      <point x="626" y="1658" type="line"/>
    </contour>
  </outline>
</glyph>
<glyph name="zero" format="1">
  <advance width="1005"/>
  <unicode hex="0030"/>
  <outline>
    <contour>
      <point x="472" y="178" type="curve" smooth="yes"/>
      <point x="329" y="178"/>
      <point x="311" y="330"/>
      <point x="326" y="473" type="curve" smooth="yes"/>
      <point x="400" y="1184" type="line" smooth="yes"/>
      <point x="416" y="1334"/>
      <point x="458" y="1480"/>
      <point x="609" y="1480" type="curve" smooth="yes"/>
      <point x="760" y="1480"/>
      <point x="770" y="1334"/>
      <point x="754" y="1184" type="curve" smooth="yes"/>
      <point x="680" y="473" type="line" smooth="yes"/>
      <point x="665" y="330"/>
      <point x="617" y="178"/>
    </contour>
    <contour>
      <point x="451" y="-17" type="curve" smooth="yes"/>
      <point x="731" y="-17"/>
      <point x="888" y="186"/>
      <point x="918" y="473" type="curve" smooth="yes"/>
      <point x="992" y="1184" type="line" smooth="yes"/>
      <point x="1023" y="1477"/>
      <point x="913" y="1674"/>
      <point x="629" y="1674" type="curve" smooth="yes"/>
      <point x="343" y="1674"/>
      <point x="194" y="1477"/>
      <point x="163" y="1184" type="curve" smooth="yes"/>
      <point x="89" y="473" type="line" smooth="yes"/>
      <point x="59" y="188"/>
      <point x="173" y="-17"/>
    </contour>
  </outline>
</glyph>
<glyph name="one" format="1">
  <advance width="1026"/>
  <unicode hex="0031"/>
  <outline>
    <contour>
      <point x="418" y="0" type="line"/>
      <point x="654" y="0" type="line"/>
      <point x="828" y="1658" type="line"/>
      <point x="651" y="1658" type="line"/>
      <point x="554" y="1547"/>
      <point x="377" y="1505"/>
      <point x="277" y="1480" type="curve"/>
      <point x="258" y="1302" type="line"/>
      <point x="560" y="1352" type="line"/>
    </contour>
  </outline>
</glyph>
<glyph name="two" format="1">
  <advance width="1026"/>
  <unicode hex="0032"/>
  <outline>
    <contour>
      <point x="39" y="0" type="line"/>
      <point x="829" y="0" type="line"/>
      <point x="850" y="198" type="line"/>
      <point x="340" y="198" type="line"/>
      <point x="772" y="769" type="line" smooth="yes"/>
      <point x="883" y="916"/>
      <point x="977" y="1028"/>
      <point x="1000" y="1243" type="curve" smooth="yes"/>
      <point x="1028" y="1513"/>
      <point x="915" y="1674"/>
      <point x="642" y="1674" type="curve" smooth="yes"/>
      <point x="345" y="1674"/>
      <point x="216" y="1481"/>
      <point x="184" y="1184" type="curve"/>
      <point x="178" y="1125" type="line"/>
      <point x="415" y="1125" type="line"/>
      <point x="421" y="1184" type="line" smooth="yes"/>
      <point x="437" y="1332"/>
      <point x="490" y="1480"/>
      <point x="635" y="1480" type="curve" smooth="yes"/>
      <point x="751" y="1480"/>
      <point x="777" y="1387"/>
      <point x="762" y="1243" type="curve" smooth="yes"/>
      <point x="742" y="1058"/>
      <point x="647" y="964"/>
      <point x="540" y="819" type="curve" smooth="yes"/>
      <point x="57" y="167" type="line"/>
    </contour>
  </outline>
</glyph>
<glyph name="three" format="1">
  <advance width="950"/>
  <unicode hex="0033"/>
  <outline>
    <contour>
      <point x="435" y="-17" type="curve" smooth="yes"/>
      <point x="732" y="-17"/>
      <point x="869" y="176"/>
      <point x="901" y="473" type="curve"/>
      <point x="923" y="688"/>
      <point x="857" y="837"/>
      <point x="707" y="888" type="curve"/>
      <point x="855" y="932"/>
      <point x="961" y="1050"/>
      <point x="982" y="1243" type="curve" smooth="yes"/>
      <point x="1010" y="1513"/>
      <point x="886" y="1674"/>
      <point x="613" y="1674" type="curve" smooth="yes"/>
      <point x="342" y="1674"/>
      <point x="181" y="1512"/>
      <point x="153" y="1243" type="curve"/>
      <point x="146" y="1184" type="line"/>
      <point x="383" y="1184" type="line"/>
      <point x="385" y="1196"/>
      <point x="386" y="1207"/>
      <point x="387" y="1218" type="curve" smooth="yes"/>
      <point x="406" y="1364"/>
      <point x="443" y="1480"/>
      <point x="593" y="1480" type="curve" smooth="yes"/>
      <point x="734" y="1480"/>
      <point x="760" y="1387"/>
      <point x="745" y="1243" type="curve" smooth="yes"/>
      <point x="727" y="1076"/>
      <point x="659" y="1014"/>
      <point x="508" y="1007" type="curve" smooth="yes"/>
      <point x="483" y="1007" type="line"/>
      <point x="458" y="769" type="line"/>
      <point x="468" y="769"/>
      <point x="478" y="769"/>
      <point x="487" y="768" type="curve" smooth="yes"/>
      <point x="641" y="755"/>
      <point x="681" y="641"/>
      <point x="664" y="473" type="curve"/>
      <point x="646" y="308"/>
      <point x="616" y="178"/>
      <point x="456" y="178" type="curve" smooth="yes"/>
      <point x="307" y="178"/>
      <point x="293" y="291"/>
      <point x="305" y="436" type="curve" smooth="yes"/>
      <point x="306" y="448"/>
      <point x="307" y="461"/>
      <point x="309" y="473" type="curve"/>
      <point x="72" y="473" type="line"/>
      <point x="66" y="414" type="line"/>
      <point x="37" y="144"/>
      <point x="162" y="-17"/>
    </contour>
  </outline>
</glyph>
<glyph name="four" format="1">
  <advance width="1026"/>
  <unicode hex="0034"/>
  <outline>
    <contour>
      <point x="500" y="0" type="line"/>
      <point x="737" y="0" type="line"/>
      <point x="782" y="425" type="line"/>
      <point x="965" y="425" type="line"/>
      <point x="988" y="649" type="line"/>
      <point x="805" y="649" type="line"/>
      <point x="911" y="1659" type="line"/>
      <point x="616" y="1659" type="line"/>
      <point x="100" y="690" type="line"/>
      <point x="72" y="425" type="line"/>
      <point x="545" y="425" type="line"/>
    </contour>
    <contour>
      <point x="332" y="649" type="line"/>
      <point x="643" y="1362" type="line"/>
      <point x="568" y="649" type="line"/>
    </contour>
  </outline>
</glyph>
<glyph name="five" format="1">
  <advance width="971"/>
  <unicode hex="0035"/>
  <outline>
    <contour>
      <point x="443" y="-17" type="curve" smooth="yes"/>
      <point x="780" y="-17"/>
      <point x="891" y="257"/>
      <point x="926" y="592" type="curve" smooth="yes"/>
      <point x="955" y="867"/>
      <point x="895" y="1078"/>
      <point x="621" y="1078" type="curve" smooth="yes"/>
      <point x="520" y="1078"/>
      <point x="437" y="1046"/>
      <point x="376" y="990" type="curve"/>
      <point x="436" y="1421" type="line"/>
      <point x="954" y="1421" type="line"/>
      <point x="979" y="1658" type="line"/>
      <point x="246" y="1658" type="line"/>
      <point x="152" y="764" type="line"/>
      <point x="354" y="764" type="line"/>
      <point x="386" y="829"/>
      <point x="455" y="901"/>
      <point x="546" y="901" type="curve" smooth="yes"/>
      <point x="711" y="901"/>
      <point x="707" y="764"/>
      <point x="686" y="559" type="curve" smooth="yes"/>
      <point x="664" y="348"/>
      <point x="643" y="172"/>
      <point x="466" y="172" type="curve" smooth="yes"/>
      <point x="304" y="172"/>
      <point x="307" y="337"/>
      <point x="322" y="473" type="curve"/>
      <point x="85" y="473" type="line"/>
      <point x="53" y="169"/>
      <point x="135" y="-17"/>
    </contour>
  </outline>
</glyph>
<glyph name="six" format="1">
  <advance width="1001"/>
  <unicode hex="0036"/>
  <outline>
    <contour>
      <point x="466" y="-17" type="curve" smooth="yes"/>
      <point x="766" y="-17"/>
      <point x="907" y="232"/>
      <point x="939" y="533" type="curve" smooth="yes"/>
      <point x="968" y="805"/>
      <point x="908" y="1007"/>
      <point x="633" y="1007" type="curve" smooth="yes"/>
      <point x="516" y="1007"/>
      <point x="432" y="960"/>
      <point x="383" y="888" type="curve"/>
      <point x="408" y="1125" type="line" smooth="yes"/>
      <point x="433" y="1362"/>
      <point x="506" y="1480"/>
      <point x="624" y="1480" type="curve" smooth="yes"/>
      <point x="766" y="1480"/>
      <point x="792" y="1388"/>
      <point x="777" y="1243" type="curve"/>
      <point x="1014" y="1243" type="line"/>
      <point x="1014" y="1250"/>
      <point x="1015" y="1257"/>
      <point x="1016" y="1265" type="curve" smooth="yes"/>
      <point x="1035" y="1524"/>
      <point x="905" y="1674"/>
      <point x="644" y="1674" type="curve" smooth="yes"/>
      <point x="323" y="1674"/>
      <point x="200" y="1391"/>
      <point x="166" y="1066" type="curve" smooth="yes"/>
      <point x="110" y="533" type="line" smooth="yes"/>
      <point x="79" y="235"/>
      <point x="175" y="-17"/>
    </contour>
    <contour>
      <point x="487" y="178" type="curve" smooth="yes"/>
      <point x="347" y="178"/>
      <point x="324" y="328"/>
      <point x="340" y="473" type="curve" smooth="yes"/>
      <point x="365" y="711" type="line"/>
      <point x="402" y="771"/>
      <point x="464" y="829"/>
      <point x="555" y="829" type="curve" smooth="yes"/>
      <point x="733" y="829"/>
      <point x="714" y="651"/>
      <point x="696" y="473" type="curve" smooth="yes"/>
      <point x="681" y="329"/>
      <point x="628" y="178"/>
    </contour>
  </outline>
</glyph>
<glyph name="seven" format="1">
  <advance width="1026"/>
  <unicode hex="0037"/>
  <outline>
    <contour>
      <point x="280" y="0" type="line"/>
      <point x="507" y="0" type="line"/>
      <point x="971" y="1513" type="line"/>
      <point x="983" y="1658" type="line"/>
      <point x="259" y="1658" type="line"/>
      <point x="240" y="1473" type="line"/>
      <point x="729" y="1473" type="line"/>
    </contour>
  </outline>
</glyph>
<glyph name="eight" format="1">
  <advance width="1026"/>
  <unicode hex="0038"/>
  <outline>
    <contour>
      <point x="473" y="-17" type="curve" smooth="yes"/>
      <point x="775" y="-17"/>
      <point x="906" y="170"/>
      <point x="938" y="472" type="curve" smooth="yes"/>
      <point x="959" y="679"/>
      <point x="895" y="794"/>
      <point x="782" y="875" type="curve"/>
      <point x="895" y="954"/>
      <point x="976" y="1063"/>
      <point x="995" y="1243" type="curve" smooth="yes"/>
      <point x="1023" y="1509"/>
      <point x="917" y="1674"/>
      <point x="651" y="1674" type="curve" smooth="yes"/>
      <point x="384" y="1674"/>
      <point x="242" y="1510"/>
      <point x="214" y="1243" type="curve" smooth="yes"/>
      <point x="195" y="1063"/>
      <point x="253" y="954"/>
      <point x="350" y="875" type="curve"/>
      <point x="217" y="795"/>
      <point x="131" y="680"/>
      <point x="110" y="472" type="curve"/>
      <point x="78" y="170"/>
      <point x="170" y="-17"/>
    </contour>
    <contour>
      <point x="493" y="170" type="curve" smooth="yes"/>
      <point x="333" y="170"/>
      <point x="318" y="309"/>
      <point x="335" y="468" type="curve" smooth="yes"/>
      <point x="350" y="613"/>
      <point x="408" y="757"/>
      <point x="555" y="757" type="curve" smooth="yes"/>
      <point x="701" y="757"/>
      <point x="725" y="612"/>
      <point x="710" y="468" type="curve" smooth="yes"/>
      <point x="694" y="312"/>
      <point x="653" y="170"/>
    </contour>
    <contour>
      <point x="578" y="983" type="curve" smooth="yes"/>
      <point x="448" y="983"/>
      <point x="434" y="1128"/>
      <point x="447" y="1257" type="curve" smooth="yes"/>
      <point x="460" y="1379"/>
      <point x="510" y="1490"/>
      <point x="632" y="1490" type="curve" smooth="yes"/>
      <point x="752" y="1490"/>
      <point x="778" y="1377"/>
      <point x="765" y="1257" type="curve" smooth="yes"/>
      <point x="752" y="1128"/>
      <point x="707" y="983"/>
    </contour>
  </outline>
</glyph>
<glyph name="nine" format="1">
  <advance width="1001"/>
  <unicode hex="0039"/>
  <outline>
    <contour>
      <point x="448" y="-17" type="curve" smooth="yes"/>
      <point x="769" y="-17"/>
      <point x="892" y="267"/>
      <point x="926" y="592" type="curve" smooth="yes"/>
      <point x="982" y="1125" type="line" smooth="yes"/>
      <point x="1014" y="1423"/>
      <point x="917" y="1674"/>
      <point x="626" y="1674" type="curve" smooth="yes"/>
      <point x="326" y="1674"/>
      <point x="185" y="1426"/>
      <point x="153" y="1125" type="curve" smooth="yes"/>
      <point x="125" y="853"/>
      <point x="183" y="651"/>
      <point x="458" y="651" type="curve" smooth="yes"/>
      <point x="575" y="651"/>
      <point x="658" y="697"/>
      <point x="708" y="769" type="curve"/>
      <point x="683" y="533" type="line" smooth="yes"/>
      <point x="658" y="296"/>
      <point x="587" y="178"/>
      <point x="469" y="178" type="curve" smooth="yes"/>
      <point x="327" y="178"/>
      <point x="300" y="269"/>
      <point x="316" y="414" type="curve"/>
      <point x="79" y="414" type="line"/>
      <point x="78" y="409"/>
      <point x="78" y="404"/>
      <point x="77" y="399" type="curve" smooth="yes"/>
      <point x="55" y="135"/>
      <point x="185" y="-17"/>
    </contour>
    <contour>
      <point x="537" y="829" type="curve" smooth="yes"/>
      <point x="359" y="829"/>
      <point x="378" y="1006"/>
      <point x="396" y="1184" type="curve"/>
      <point x="412" y="1328"/>
      <point x="465" y="1480"/>
      <point x="606" y="1480" type="curve" smooth="yes"/>
      <point x="746" y="1480"/>
      <point x="767" y="1329"/>
      <point x="751" y="1184" type="curve"/>
      <point x="727" y="947" type="line"/>
      <point x="688" y="887"/>
      <point x="629" y="829"/>
    </contour>
  </outline>
</glyph>
<glyph name="colon" format="1">
  <advance width="405"/>
  <unicode hex="003A"/>
  <outline>
    <contour>
      <point x="89" y="204" type="line"/>
      <point x="326" y="204" type="line"/>
      <point x="351" y="440" type="line"/>
      <point x="114" y="440" type="line"/>
    </contour>
    <contour>
      <point x="157" y="844" type="line"/>
      <point x="394" y="844" type="line"/>
      <point x="419" y="1082" type="line"/>
      <point x="182" y="1082" type="line"/>
    </contour>
  </outline>
</glyph>
<glyph name="semicolon" format="1">
  <advance width="445"/>
  <unicode hex="003B"/>
  <outline>
    <contour>
      <point x="92" y="-103" type="line"/>
      <point x="241" y="-103"/>
      <point x="307" y="-13"/>
      <point x="322" y="136" type="curve" smooth="yes"/>
      <point x="347" y="372" type="line"/>
      <point x="105" y="372" type="line"/>
      <point x="80" y="134" type="line"/>
      <point x="204" y="134" type="line"/>
      <point x="195" y="51"/>
      <point x="152" y="0"/>
      <point x="66" y="0" type="curve"/>
    </contour>
    <contour>
      <point x="162" y="916" type="line"/>
      <point x="398" y="916" type="line"/>
      <point x="424" y="1164" type="line"/>
      <point x="188" y="1164" type="line"/>
    </contour>
  </outline>
</glyph>
<glyph name="less" format="1">
  <advance width="769"/>
  <unicode hex="003C"/>
  <outline>
    <contour>
      <point x="607" y="60" type="line"/>
      <point x="632" y="296" type="line"/>
      <point x="249" y="593" type="line"/>
      <point x="694" y="888" type="line"/>
      <point x="719" y="1125" type="line"/>
      <point x="85" y="711" type="line"/>
      <point x="60" y="473" type="line"/>
    </contour>
  </outline>
</glyph>
<glyph name="equal" format="1">
  <advance width="857"/>
  <unicode hex="003D"/>
  <outline>
    <contour>
      <point x="122" y="569" type="line"/>
      <point x="755" y="569" type="line"/>
      <point x="774" y="747" type="line"/>
      <point x="141" y="747" type="line"/>
    </contour>
    <contour>
      <point x="160" y="936" type="line"/>
      <point x="793" y="936" type="line"/>
      <point x="812" y="1114" type="line"/>
      <point x="179" y="1114" type="line"/>
    </contour>
  </outline>
</glyph>
<glyph name="greater" format="1">
  <advance width="769"/>
  <unicode hex="003E"/>
  <outline>
    <contour>
      <point x="74" y="60" type="line"/>
      <point x="711" y="473" type="line"/>
      <point x="736" y="711" type="line"/>
      <point x="186" y="1125" type="line"/>
      <point x="161" y="888" type="line"/>
      <point x="545" y="593" type="line"/>
      <point x="99" y="296" type="line"/>
    </contour>
  </outline>
</glyph>
<glyph name="question" format="1">
  <advance width="1003"/>
  <unicode hex="003F"/>
  <outline>
    <contour>
      <point x="319" y="416" type="line"/>
      <point x="530" y="416" type="line"/>
      <point x="550" y="612" type="line"/>
      <point x="768" y="818"/>
      <point x="976" y="976"/>
      <point x="1005" y="1254" type="curve" smooth="yes"/>
      <point x="1033" y="1522"/>
      <point x="900" y="1680"/>
      <point x="629" y="1680" type="curve" smooth="yes"/>
      <point x="361" y="1680"/>
      <point x="176" y="1507"/>
      <point x="198" y="1236" type="curve"/>
      <point x="204" y="1167" type="line"/>
      <point x="428" y="1207" type="line"/>
      <point x="426" y="1281" type="line"/>
      <point x="422" y="1391"/>
      <point x="483" y="1473"/>
      <point x="605" y="1473" type="curve" smooth="yes"/>
      <point x="723" y="1473"/>
      <point x="786" y="1379"/>
      <point x="774" y="1261" type="curve" smooth="yes"/>
      <point x="748" y="1021"/>
      <point x="543" y="839"/>
      <point x="346" y="671" type="curve"/>
    </contour>
    <contour>
      <point x="265" y="0" type="line"/>
      <point x="502" y="0" type="line"/>
      <point x="527" y="237" type="line"/>
      <point x="290" y="237" type="line"/>
    </contour>
  </outline>
</glyph>
<glyph name="at" format="1">
  <advance width="1884"/>
  <unicode hex="0040"/>
  <outline>
    <contour>
      <point x="890" y="-285" type="curve" smooth="yes"/>
      <point x="1027" y="-285"/>
      <point x="1175" y="-262"/>
      <point x="1330" y="-217" type="curve"/>
      <point x="1307" y="-46" type="line"/>
      <point x="1170" y="-85"/>
      <point x="1043" y="-103"/>
      <point x="931" y="-103" type="curve" smooth="yes"/>
      <point x="529" y="-103"/>
      <point x="299" y="135"/>
      <point x="345" y="571" type="curve" smooth="yes"/>
      <point x="403" y="1119"/>
      <point x="725" y="1474"/>
      <point x="1160" y="1474" type="curve" smooth="yes"/>
      <point x="1569" y="1474"/>
      <point x="1694" y="1151"/>
      <point x="1662" y="847" type="curve" smooth="yes"/>
      <point x="1634" y="576"/>
      <point x="1481" y="321"/>
      <point x="1295" y="321" type="curve" smooth="yes"/>
      <point x="1235" y="321"/>
      <point x="1251" y="385"/>
      <point x="1268" y="456" type="curve"/>
      <point x="1467" y="1219" type="line"/>
      <point x="1296" y="1219" type="line"/>
      <point x="1272" y="1185" type="line"/>
      <point x="1244" y="1209"/>
      <point x="1191" y="1238"/>
      <point x="1147" y="1238" type="curve" smooth="yes"/>
      <point x="850" y="1238"/>
      <point x="619" y="861"/>
      <point x="588" y="566" type="curve" smooth="yes"/>
      <point x="568" y="367"/>
      <point x="646" y="176"/>
      <point x="863" y="196" type="curve" smooth="yes"/>
      <point x="981" y="207"/>
      <point x="1041" y="297"/>
      <point x="1068" y="379" type="curve"/>
      <point x="1062" y="264"/>
      <point x="1137" y="191"/>
      <point x="1257" y="191" type="curve" smooth="yes"/>
      <point x="1581" y="191"/>
      <point x="1799" y="523"/>
      <point x="1836" y="871" type="curve" smooth="yes"/>
      <point x="1876" y="1255"/>
      <point x="1696" y="1658"/>
      <point x="1194" y="1658" type="curve" smooth="yes"/>
      <point x="636" y="1658"/>
      <point x="208" y="1310"/>
      <point x="129" y="561" type="curve" smooth="yes"/>
      <point x="70" y="-2"/>
      <point x="405" y="-285"/>
    </contour>
    <contour>
      <point x="930" y="378" type="curve"/>
      <point x="828" y="357"/>
      <point x="797" y="459"/>
      <point x="808" y="564" type="curve" smooth="yes"/>
      <point x="836" y="832"/>
      <point x="1008" y="1064"/>
      <point x="1171" y="1064" type="curve" smooth="yes"/>
      <point x="1185" y="1064"/>
      <point x="1202" y="1061"/>
      <point x="1216" y="1057" type="curve"/>
      <point x="1096" y="590" type="line" smooth="yes"/>
      <point x="1059" y="449"/>
      <point x="989" y="389"/>
    </contour>
  </outline>
</glyph>
<glyph name="A" format="1">
  <advance width="1015"/>
  <unicode hex="0041"/>
  <outline>
    <contour>
      <point x="-16" y="0" type="line"/>
      <point x="220" y="0" type="line"/>
      <point x="340" y="412" type="line"/>
      <point x="663" y="412" type="line"/>
      <point x="694" y="0" type="line"/>
      <point x="931" y="0" type="line"/>
      <point x="750" y="1658" type="line"/>
      <point x="513" y="1658" type="line"/>
    </contour>
    <contour>
      <point x="391" y="590" type="line"/>
      <point x="595" y="1302" type="line"/>
      <point x="650" y="590" type="line"/>
    </contour>
  </outline>
</glyph>
<glyph name="B" format="1">
  <advance width="1084"/>
  <unicode hex="0042"/>
  <outline>
    <contour>
      <point x="76" y="0" type="line"/>
      <point x="525" y="0" type="line" smooth="yes"/>
      <point x="818" y="0"/>
      <point x="979" y="180"/>
      <point x="1010" y="473" type="curve" smooth="yes"/>
      <point x="1036" y="720"/>
      <point x="957" y="846"/>
      <point x="764" y="893" type="curve"/>
      <point x="927" y="912"/>
      <point x="1022" y="1028"/>
      <point x="1045" y="1243" type="curve" smooth="yes"/>
      <point x="1075" y="1536"/>
      <point x="934" y="1658"/>
      <point x="635" y="1658" type="curve" smooth="yes"/>
      <point x="250" y="1658" type="line"/>
    </contour>
    <contour>
      <point x="345" y="178" type="line"/>
      <point x="408" y="782" type="line"/>
      <point x="522" y="782" type="line" smooth="yes"/>
      <point x="726" y="782"/>
      <point x="793" y="680"/>
      <point x="772" y="473" type="curve" smooth="yes"/>
      <point x="750" y="266"/>
      <point x="688" y="178"/>
      <point x="484" y="178" type="curve" smooth="yes"/>
    </contour>
    <contour>
      <point x="428" y="971" type="line"/>
      <point x="481" y="1474" type="line"/>
      <point x="511" y="1474" type="line" smooth="yes"/>
      <point x="744" y="1474"/>
      <point x="852" y="1477"/>
      <point x="828" y="1243" type="curve" smooth="yes"/>
      <point x="807" y="1043"/>
      <point x="738" y="971"/>
      <point x="542" y="971" type="curve" smooth="yes"/>
    </contour>
  </outline>
</glyph>
<glyph name="C" format="1">
  <advance width="1062"/>
  <unicode hex="0043"/>
  <outline>
    <contour>
      <point x="495" y="-17" type="curve" smooth="yes"/>
      <point x="827" y="-17"/>
      <point x="942" y="190"/>
      <point x="974" y="497" type="curve"/>
      <point x="988" y="627" type="line"/>
      <point x="751" y="627" type="line"/>
      <point x="738" y="501" type="line"/>
      <point x="717" y="309"/>
      <point x="700" y="178"/>
      <point x="518" y="178" type="curve" smooth="yes"/>
      <point x="371" y="178"/>
      <point x="324" y="251"/>
      <point x="351" y="501" type="curve" smooth="yes"/>
      <point x="418" y="1145" type="line" smooth="yes"/>
      <point x="440" y="1347"/>
      <point x="467" y="1480"/>
      <point x="655" y="1480" type="curve" smooth="yes"/>
      <point x="846" y="1480"/>
      <point x="827" y="1352"/>
      <point x="809" y="1177" type="curve" smooth="yes"/>
      <point x="796" y="1056" type="line"/>
      <point x="1033" y="1056" type="line"/>
      <point x="1048" y="1195" type="line"/>
      <point x="1079" y="1497"/>
      <point x="988" y="1674"/>
      <point x="673" y="1674" type="curve" smooth="yes"/>
      <point x="317" y="1674"/>
      <point x="199" y="1453"/>
      <point x="163" y="1109" type="curve" smooth="yes"/>
      <point x="103" y="541" type="line" smooth="yes"/>
      <point x="70" y="226"/>
      <point x="139" y="-17"/>
    </contour>
  </outline>
</glyph>
<glyph name="D" format="1">
  <advance width="1082"/>
  <unicode hex="0044"/>
  <outline>
    <contour>
      <point x="345" y="178" type="line"/>
      <point x="481" y="1474" type="line"/>
      <point x="586" y="1474" type="line" smooth="yes"/>
      <point x="821" y="1474"/>
      <point x="828" y="1374"/>
      <point x="802" y="1118" type="curve"/>
      <point x="747" y="598" type="line" smooth="yes"/>
      <point x="718" y="324"/>
      <point x="705" y="178"/>
      <point x="455" y="178" type="curve" smooth="yes"/>
    </contour>
    <contour>
      <point x="76" y="0" type="line"/>
      <point x="454" y="0" type="line" smooth="yes"/>
      <point x="807" y="0"/>
      <point x="956" y="187"/>
      <point x="994" y="549" type="curve" smooth="yes"/>
      <point x="1057" y="1147" type="line" smooth="yes"/>
      <point x="1093" y="1495"/>
      <point x="985" y="1658"/>
      <point x="610" y="1658" type="curve" smooth="yes"/>
      <point x="250" y="1658" type="line"/>
    </contour>
  </outline>
</glyph>
<glyph name="E" format="1">
  <advance width="839"/>
  <unicode hex="0045"/>
  <outline>
    <contour>
      <point x="76" y="0" type="line"/>
      <point x="734" y="0" type="line"/>
      <point x="753" y="178" type="line"/>
      <point x="345" y="178" type="line"/>
      <point x="407" y="767" type="line"/>
      <point x="734" y="767" type="line"/>
      <point x="752" y="945" type="line"/>
      <point x="425" y="945" type="line"/>
      <point x="481" y="1474" type="line"/>
      <point x="884" y="1474" type="line"/>
      <point x="903" y="1658" type="line"/>
      <point x="250" y="1658" type="line"/>
    </contour>
  </outline>
</glyph>
<glyph name="F" format="1">
  <advance width="802"/>
  <unicode hex="0046"/>
  <outline>
    <contour>
      <point x="76" y="0" type="line"/>
      <point x="326" y="0" type="line"/>
      <point x="407" y="769" type="line"/>
      <point x="711" y="769" type="line"/>
      <point x="730" y="947" type="line"/>
      <point x="426" y="947" type="line"/>
      <point x="482" y="1480" type="line"/>
      <point x="883" y="1480" type="line"/>
      <point x="901" y="1658" type="line"/>
      <point x="250" y="1658" type="line"/>
    </contour>
  </outline>
</glyph>
<glyph name="G" format="1">
  <advance width="1104"/>
  <unicode hex="0047"/>
  <outline>
    <contour>
      <point x="474" y="-20" type="curve" smooth="yes"/>
      <point x="637" y="-20"/>
      <point x="732" y="70"/>
      <point x="789" y="192" type="curve"/>
      <point x="792" y="0" type="line"/>
      <point x="950" y="0" type="line"/>
      <point x="1037" y="827" type="line"/>
      <point x="609" y="827" type="line"/>
      <point x="590" y="651" type="line"/>
      <point x="792" y="651" type="line"/>
      <point x="782" y="555" type="line" smooth="yes"/>
      <point x="756" y="303"/>
      <point x="700" y="178"/>
      <point x="525" y="178" type="curve" smooth="yes"/>
      <point x="352" y="178"/>
      <point x="326" y="289"/>
      <point x="351" y="528" type="curve" smooth="yes"/>
      <point x="414" y="1125" type="line" smooth="yes"/>
      <point x="435" y="1327"/>
      <point x="458" y="1480"/>
      <point x="656" y="1480" type="curve" smooth="yes"/>
      <point x="838" y="1480"/>
      <point x="847" y="1384"/>
      <point x="825" y="1175" type="curve"/>
      <point x="820" y="1125" type="line"/>
      <point x="1054" y="1125" type="line"/>
      <point x="1061" y="1187" type="line"/>
      <point x="1096" y="1522"/>
      <point x="987" y="1674"/>
      <point x="672" y="1674" type="curve" smooth="yes"/>
      <point x="316" y="1674"/>
      <point x="200" y="1461"/>
      <point x="160" y="1085" type="curve" smooth="yes"/>
      <point x="104" y="554" type="line" smooth="yes"/>
      <point x="65" y="185"/>
      <point x="163" y="-20"/>
    </contour>
  </outline>
</glyph>
<glyph name="H" format="1">
  <advance width="1154"/>
  <unicode hex="0048"/>
  <outline>
    <contour>
      <point x="76" y="0" type="line"/>
      <point x="326" y="0" type="line"/>
      <point x="407" y="769" type="line"/>
      <point x="809" y="769" type="line"/>
      <point x="728" y="0" type="line"/>
      <point x="978" y="0" type="line"/>
      <point x="1152" y="1658" type="line"/>
      <point x="902" y="1658" type="line"/>
      <point x="828" y="947" type="line"/>
      <point x="426" y="947" type="line"/>
      <point x="500" y="1658" type="line"/>
      <point x="250" y="1658" type="line"/>
    </contour>
  </outline>
</glyph>
<glyph name="I" format="1">
  <advance width="520"/>
  <unicode hex="0049"/>
  <outline>
    <contour>
      <point x="89" y="0" type="line"/>
      <point x="334" y="0" type="line"/>
      <point x="508" y="1658" type="line"/>
      <point x="263" y="1658" type="line"/>
    </contour>
  </outline>
</glyph>
<glyph name="J" format="1">
  <advance width="629"/>
  <unicode hex="004A"/>
  <outline>
    <contour>
      <point x="-39" y="-31" type="line"/>
      <point x="79" y="-31" type="line" smooth="yes"/>
      <point x="367" y="-31"/>
      <point x="461" y="101"/>
      <point x="492" y="386" type="curve"/>
      <point x="625" y="1658" type="line"/>
      <point x="375" y="1658" type="line"/>
      <point x="242" y="389" type="line" smooth="yes"/>
      <point x="221" y="190"/>
      <point x="173" y="147"/>
      <point x="-21" y="147" type="curve"/>
    </contour>
  </outline>
</glyph>
<glyph name="K" format="1">
  <advance width="1025"/>
  <unicode hex="004B"/>
  <outline>
    <contour>
      <point x="76" y="0" type="line"/>
      <point x="326" y="0" type="line"/>
      <point x="396" y="662" type="line"/>
      <point x="490" y="811" type="line"/>
      <point x="727" y="0" type="line"/>
      <point x="970" y="0" type="line"/>
      <point x="694" y="922" type="line"/>
      <point x="1096" y="1658" type="line"/>
      <point x="864" y="1658" type="line"/>
      <point x="421" y="900" type="line"/>
      <point x="500" y="1658" type="line"/>
      <point x="250" y="1658" type="line"/>
    </contour>
  </outline>
</glyph>
<glyph name="M" format="1">
  <advance width="1361"/>
  <unicode hex="004D"/>
  <outline>
    <contour>
      <point x="74" y="0" type="line"/>
      <point x="277" y="0" type="line"/>
      <point x="415" y="1176" type="line"/>
      <point x="562" y="0" type="line"/>
      <point x="699" y="0" type="line"/>
      <point x="1096" y="1176" type="line"/>
      <point x="986" y="0" type="line"/>
      <point x="1187" y="0" type="line"/>
      <point x="1333" y="1658" type="line"/>
      <point x="1090" y="1658" type="line"/>
      <point x="665" y="337" type="line"/>
      <point x="520" y="1658" type="line"/>
      <point x="276" y="1658" type="line"/>
    </contour>
  </outline>
</glyph>
<glyph name="N" format="1">
  <advance width="1085"/>
  <unicode hex="004E"/>
  <outline>
    <contour>
      <point x="76" y="0" type="line"/>
      <point x="286" y="0" type="line"/>
      <point x="401" y="1091" type="line"/>
      <point x="751" y="0" type="line"/>
      <point x="909" y="0" type="line"/>
      <point x="1083" y="1658" type="line"/>
      <point x="875" y="1658" type="line"/>
      <point x="764" y="604" type="line"/>
      <point x="418" y="1658" type="line"/>
      <point x="250" y="1658" type="line"/>
    </contour>
  </outline>
</glyph>
<glyph name="O" format="1">
  <advance width="1112"/>
  <unicode hex="004F"/>
  <outline>
    <contour>
      <point x="525" y="178" type="curve" smooth="yes"/>
      <point x="347" y="178"/>
      <point x="329" y="295"/>
      <point x="348" y="473" type="curve" smooth="yes"/>
      <point x="423" y="1193" type="line" smooth="yes"/>
      <point x="442" y="1371"/>
      <point x="484" y="1480"/>
      <point x="662" y="1480" type="curve" smooth="yes"/>
      <point x="840" y="1480"/>
      <point x="858" y="1371"/>
      <point x="839" y="1193" type="curve" smooth="yes"/>
      <point x="764" y="473" type="line" smooth="yes"/>
      <point x="745" y="295"/>
      <point x="703" y="178"/>
    </contour>
    <contour>
      <point x="504" y="-17" type="curve" smooth="yes"/>
      <point x="841" y="-17"/>
      <point x="986" y="194"/>
      <point x="1021" y="527" type="curve" smooth="yes"/>
      <point x="1086" y="1140" type="line" smooth="yes"/>
      <point x="1121" y="1473"/>
      <point x="1019" y="1674"/>
      <point x="682" y="1674" type="curve" smooth="yes"/>
      <point x="343" y="1674"/>
      <point x="201" y="1477"/>
      <point x="166" y="1140" type="curve" smooth="yes"/>
      <point x="101" y="527" type="line" smooth="yes"/>
      <point x="66" y="190"/>
      <point x="165" y="-17"/>
    </contour>
  </outline>
</glyph>
<glyph name="P" format="1">
  <advance width="981"/>
  <unicode hex="0050"/>
  <outline>
    <contour>
      <point x="76" y="0" type="line"/>
      <point x="326" y="0" type="line"/>
      <point x="407" y="769" type="line"/>
      <point x="572" y="769" type="line" smooth="yes"/>
      <point x="840" y="769"/>
      <point x="1002" y="924"/>
      <point x="1031" y="1195" type="curve" smooth="yes"/>
      <point x="1062" y="1491"/>
      <point x="961" y="1658"/>
      <point x="665" y="1658" type="curve" smooth="yes"/>
      <point x="250" y="1658" type="line"/>
    </contour>
    <contour>
      <point x="426" y="947" type="line"/>
      <point x="482" y="1480" type="line"/>
      <point x="567" y="1480" type="line" smooth="yes"/>
      <point x="802" y="1480"/>
      <point x="819" y="1424"/>
      <point x="794" y="1194" type="curve"/>
      <point x="774" y="996"/>
      <point x="707" y="947"/>
      <point x="507" y="947" type="curve" smooth="yes"/>
    </contour>
  </outline>
</glyph>
<glyph name="Q" format="1">
  <advance width="1112"/>
  <unicode hex="0051"/>
  <outline>
    <contour>
      <point x="808" y="-343" type="curve"/>
      <point x="945" y="-238" type="line"/>
      <point x="898" y="-199"/>
      <point x="783" y="-74"/>
      <point x="729" y="24" type="curve"/>
      <point x="909" y="101"/>
      <point x="995" y="280"/>
      <point x="1021" y="527" type="curve" smooth="yes"/>
      <point x="1086" y="1140" type="line" smooth="yes"/>
      <point x="1121" y="1473"/>
      <point x="1019" y="1674"/>
      <point x="682" y="1674" type="curve" smooth="yes"/>
      <point x="343" y="1674"/>
      <point x="201" y="1477"/>
      <point x="166" y="1140" type="curve" smooth="yes"/>
      <point x="101" y="527" type="line" smooth="yes"/>
      <point x="66" y="190"/>
      <point x="165" y="-17"/>
      <point x="504" y="-17" type="curve" smooth="yes"/>
      <point x="516" y="-17"/>
      <point x="528" y="-17"/>
      <point x="540" y="-16" type="curve"/>
      <point x="602" y="-128"/>
      <point x="719" y="-277"/>
    </contour>
    <contour>
      <point x="525" y="178" type="curve" smooth="yes"/>
      <point x="347" y="178"/>
      <point x="329" y="295"/>
      <point x="348" y="473" type="curve" smooth="yes"/>
      <point x="423" y="1193" type="line" smooth="yes"/>
      <point x="442" y="1371"/>
      <point x="484" y="1480"/>
      <point x="662" y="1480" type="curve" smooth="yes"/>
      <point x="840" y="1480"/>
      <point x="858" y="1371"/>
      <point x="839" y="1193" type="curve" smooth="yes"/>
      <point x="764" y="473" type="line" smooth="yes"/>
      <point x="745" y="295"/>
      <point x="703" y="178"/>
    </contour>
  </outline>
</glyph>
<glyph name="R" format="1">
  <advance width="1066"/>
  <unicode hex="0052"/>
  <outline>
    <contour>
      <point x="76" y="0" type="line"/>
      <point x="326" y="0" type="line"/>
      <point x="407" y="769" type="line"/>
      <point x="566" y="769" type="line"/>
      <point x="696" y="0" type="line"/>
      <point x="938" y="0" type="line"/>
      <point x="793" y="828" type="line"/>
      <point x="936" y="878"/>
      <point x="1012" y="1019"/>
      <point x="1033" y="1214" type="curve" smooth="yes"/>
      <point x="1067" y="1543"/>
      <point x="910" y="1658"/>
      <point x="573" y="1658" type="curve" smooth="yes"/>
      <point x="250" y="1658" type="line"/>
    </contour>
    <contour>
      <point x="426" y="947" type="line"/>
      <point x="482" y="1480" type="line"/>
      <point x="555" y="1480" type="line" smooth="yes"/>
      <point x="767" y="1480"/>
      <point x="813" y="1407"/>
      <point x="793" y="1214" type="curve" smooth="yes"/>
      <point x="770" y="998"/>
      <point x="676" y="947"/>
      <point x="482" y="947" type="curve" smooth="yes"/>
    </contour>
  </outline>
</glyph>
<glyph name="S" format="1">
  <advance width="976"/>
  <unicode hex="0053"/>
  <outline>
    <contour>
      <point x="473" y="-17" type="curve" smooth="yes"/>
      <point x="708" y="-17"/>
      <point x="890" y="136"/>
      <point x="916" y="382" type="curve" smooth="yes"/>
      <point x="938" y="594"/>
      <point x="840" y="738"/>
      <point x="728" y="848" type="curve"/>
      <point x="477" y="1087" type="line"/>
      <point x="410" y="1153"/>
      <point x="383" y="1205"/>
      <point x="393" y="1308" type="curve" smooth="yes"/>
      <point x="405" y="1421"/>
      <point x="472" y="1472"/>
      <point x="582" y="1480" type="curve" smooth="yes"/>
      <point x="751" y="1493"/>
      <point x="768" y="1337"/>
      <point x="761" y="1184" type="curve"/>
      <point x="979" y="1243" type="line"/>
      <point x="982" y="1529"/>
      <point x="878" y="1678"/>
      <point x="602" y="1674" type="curve" smooth="yes"/>
      <point x="360" y="1671"/>
      <point x="193" y="1530"/>
      <point x="167" y="1284" type="curve" smooth="yes"/>
      <point x="148" y="1108"/>
      <point x="193" y="1006"/>
      <point x="292" y="909" type="curve"/>
      <point x="540" y="670" type="line"/>
      <point x="628" y="583"/>
      <point x="698" y="511"/>
      <point x="682" y="362" type="curve" smooth="yes"/>
      <point x="670" y="244"/>
      <point x="606" y="178"/>
      <point x="494" y="178" type="curve" smooth="yes"/>
      <point x="323" y="178"/>
      <point x="297" y="362"/>
      <point x="307" y="533" type="curve"/>
      <point x="78" y="473" type="line"/>
      <point x="63" y="183"/>
      <point x="180" y="-17"/>
    </contour>
  </outline>
</glyph>
<glyph name="T" format="1">
  <advance width="826"/>
  <unicode hex="0054"/>
  <outline>
    <contour>
      <point x="244" y="0" type="line"/>
      <point x="494" y="0" type="line"/>
      <point x="649" y="1474" type="line"/>
      <point x="933" y="1474" type="line"/>
      <point x="952" y="1658" type="line"/>
      <point x="123" y="1658" type="line"/>
      <point x="104" y="1474" type="line"/>
      <point x="399" y="1474" type="line"/>
    </contour>
  </outline>
</glyph>
<glyph name="U" format="1">
  <advance width="1116"/>
  <unicode hex="0055"/>
  <outline>
    <contour>
      <point x="507" y="-17" type="curve" smooth="yes"/>
      <point x="875" y="-17"/>
      <point x="977" y="220"/>
      <point x="1015" y="585" type="curve" smooth="yes"/>
      <point x="1128" y="1658" type="line"/>
      <point x="891" y="1658" type="line"/>
      <point x="777" y="573" type="line" smooth="yes"/>
      <point x="754" y="354"/>
      <point x="717" y="178"/>
      <point x="528" y="178" type="curve" smooth="yes"/>
      <point x="339" y="178"/>
      <point x="336" y="354"/>
      <point x="359" y="573" type="curve" smooth="yes"/>
      <point x="473" y="1658" type="line"/>
      <point x="236" y="1658" type="line"/>
      <point x="123" y="585" type="line" smooth="yes"/>
      <point x="85" y="220"/>
      <point x="139" y="-17"/>
    </contour>
  </outline>
</glyph>
<glyph name="V" format="1">
  <advance width="1043"/>
  <unicode hex="0056"/>
  <outline>
    <contour>
      <point x="363" y="0" type="line"/>
      <point x="580" y="0" type="line"/>
      <point x="1119" y="1658" type="line"/>
      <point x="892" y="1658" type="line"/>
      <point x="530" y="475" type="line"/>
      <point x="404" y="1658" type="line"/>
      <point x="172" y="1658" type="line"/>
    </contour>
  </outline>
</glyph>
<glyph name="W" format="1">
  <advance width="1500"/>
  <unicode hex="0057"/>
  <outline>
    <contour>
      <point x="292" y="0" type="line"/>
      <point x="480" y="0" type="line"/>
      <point x="832" y="1193" type="line"/>
      <point x="930" y="0" type="line"/>
      <point x="1110" y="0" type="line"/>
      <point x="1550" y="1658" type="line"/>
      <point x="1346" y="1658" type="line"/>
      <point x="1059" y="499" type="line"/>
      <point x="963" y="1658" type="line"/>
      <point x="791" y="1658" type="line"/>
      <point x="452" y="504" type="line"/>
      <point x="407" y="1658" type="line"/>
      <point x="198" y="1658" type="line"/>
    </contour>
  </outline>
</glyph>
<glyph name="X" format="1">
  <advance width="997"/>
  <unicode hex="0058"/>
  <outline>
    <contour>
      <point x="-24" y="0" type="line"/>
      <point x="207" y="0" type="line"/>
      <point x="494" y="605" type="line"/>
      <point x="688" y="0" type="line"/>
      <point x="921" y="0" type="line"/>
      <point x="648" y="850" type="line"/>
      <point x="1077" y="1658" type="line"/>
      <point x="845" y="1658" type="line"/>
      <point x="570" y="1092" type="line"/>
      <point x="388" y="1658" type="line"/>
      <point x="156" y="1658" type="line"/>
      <point x="409" y="869" type="line"/>
    </contour>
  </outline>
</glyph>
<glyph name="Y" format="1">
  <advance width="992"/>
  <unicode hex="0059"/>
  <outline>
    <contour>
      <point x="327" y="0" type="line"/>
      <point x="565" y="0" type="line"/>
      <point x="627" y="594" type="line"/>
      <point x="1094" y="1658" type="line"/>
      <point x="859" y="1658" type="line"/>
      <point x="539" y="890" type="line"/>
      <point x="377" y="1658" type="line"/>
      <point x="146" y="1658" type="line"/>
      <point x="389" y="594" type="line"/>
    </contour>
  </outline>
</glyph>
<glyph name="Z" format="1">
  <advance width="858"/>
  <unicode hex="005A"/>
  <outline>
    <contour>
      <point x="30" y="0" type="line"/>
      <point x="766" y="0" type="line"/>
      <point x="785" y="178" type="line"/>
      <point x="285" y="178" type="line"/>
      <point x="929" y="1553" type="line"/>
      <point x="940" y="1658" type="line"/>
      <point x="230" y="1658" type="line"/>
      <point x="212" y="1480" type="line"/>
      <point x="656" y="1480" type="line"/>
      <point x="49" y="178" type="line"/>
    </contour>
  </outline>
</glyph>
<glyph name="bracketleft" format="1">
  <advance width="717"/>
  <unicode hex="005B"/>
  <outline>
    <contour>
      <point x="35" y="-390" type="line"/>
      <point x="509" y="-390" type="line"/>
      <point x="522" y="-270" type="line"/>
      <point x="285" y="-270" type="line"/>
      <point x="475" y="1539" type="line"/>
      <point x="712" y="1539" type="line"/>
      <point x="724" y="1658" type="line"/>
      <point x="250" y="1658" type="line"/>
    </contour>
  </outline>
</glyph>
<glyph name="backslash" format="1">
  <advance width="769"/>
  <unicode hex="005C"/>
  <outline>
    <contour>
      <point x="452" y="0" type="line"/>
      <point x="656" y="0" type="line"/>
      <point x="389" y="1658" type="line"/>
      <point x="185" y="1658" type="line"/>
    </contour>
  </outline>
</glyph>
<glyph name="bracketright" format="1">
  <advance width="647"/>
  <unicode hex="005D"/>
  <outline>
    <contour>
      <point x="-44" y="-390" type="line"/>
      <point x="430" y="-390" type="line"/>
      <point x="645" y="1658" type="line"/>
      <point x="171" y="1658" type="line"/>
      <point x="159" y="1538" type="line"/>
      <point x="396" y="1538" type="line"/>
      <point x="206" y="-271" type="line"/>
      <point x="-31" y="-271" type="line"/>
    </contour>
  </outline>
</glyph>
<glyph name="asciicircum" format="1">
  <advance width="933"/>
  <unicode hex="005E"/>
  <outline>
    <contour>
      <point x="126" y="986" type="line"/>
      <point x="352" y="986" type="line"/>
      <point x="572" y="1480" type="line"/>
      <point x="689" y="986" type="line"/>
      <point x="915" y="986" type="line"/>
      <point x="709" y="1658" type="line"/>
      <point x="472" y="1658" type="line"/>
    </contour>
  </outline>
</glyph>
<glyph name="underscore" format="1">
  <advance width="711"/>
  <unicode hex="005F"/>
  <outline>
    <contour>
      <point x="-80" y="-289" type="line"/>
      <point x="631" y="-289" type="line"/>
      <point x="649" y="-111" type="line"/>
      <point x="-62" y="-111" type="line"/>
    </contour>
  </outline>
</glyph>
<glyph name="grave" format="1">
  <advance width="591"/>
  <unicode hex="0060"/>
  <outline>
    <contour>
      <point x="437" y="1252" type="line"/>
      <point x="555" y="1252" type="line"/>
      <point x="479" y="1658" type="line"/>
      <point x="242" y="1658" type="line"/>
    </contour>
  </outline>
</glyph>
<glyph name="a" format="1">
  <advance width="887"/>
  <unicode hex="0061"/>
  <outline>
    <contour>
      <point x="272" y="-17" type="curve" smooth="yes"/>
      <point x="410" y="-17"/>
      <point x="494" y="84"/>
      <point x="532" y="178" type="curve"/>
      <point x="532" y="93"/>
      <point x="544" y="0"/>
      <point x="544" y="0" type="curve"/>
      <point x="760" y="0" type="line"/>
      <point x="758" y="83"/>
      <point x="756" y="175"/>
      <point x="769" y="296" type="curve" smooth="yes"/>
      <point x="825" y="829" type="line" smooth="yes"/>
      <point x="850" y="1067"/>
      <point x="772" y="1200"/>
      <point x="532" y="1200" type="curve" smooth="yes"/>
      <point x="314" y="1200"/>
      <point x="173" y="1101"/>
      <point x="133" y="855" type="curve" smooth="yes"/>
      <point x="131" y="840"/>
      <point x="129" y="825"/>
      <point x="127" y="809" type="curve"/>
      <point x="360" y="800" type="line"/>
      <point x="367" y="864" type="line" smooth="yes"/>
      <point x="376" y="953"/>
      <point x="410" y="1023"/>
      <point x="498" y="1023" type="curve" smooth="yes"/>
      <point x="597" y="1023"/>
      <point x="602" y="953"/>
      <point x="589" y="829" type="curve" smooth="yes"/>
      <point x="580" y="744" type="line"/>
      <point x="341" y="654"/>
      <point x="96" y="569"/>
      <point x="63" y="261" type="curve" smooth="yes"/>
      <point x="49" y="123"/>
      <point x="135" y="-17"/>
    </contour>
    <contour>
      <point x="391" y="189" type="curve" smooth="yes"/>
      <point x="324" y="189"/>
      <point x="300" y="247"/>
      <point x="309" y="336" type="curve" smooth="yes"/>
      <point x="324" y="479"/>
      <point x="464" y="546"/>
      <point x="565" y="603" type="curve"/>
      <point x="531" y="276" type="line"/>
      <point x="513" y="254"/>
      <point x="449" y="189"/>
    </contour>
  </outline>
</glyph>
<glyph name="b" format="1">
  <advance width="932"/>
  <unicode hex="0062"/>
  <outline>
    <contour>
      <point x="496" y="-17" type="curve" smooth="yes"/>
      <point x="732" y="-17"/>
      <point x="818" y="226"/>
      <point x="843" y="466" type="curve" smooth="yes"/>
      <point x="874" y="761" type="line" smooth="yes"/>
      <point x="886" y="879"/>
      <point x="901" y="1200"/>
      <point x="650" y="1200" type="curve" smooth="yes"/>
      <point x="550" y="1200"/>
      <point x="474" y="1151"/>
      <point x="415" y="1091" type="curve"/>
      <point x="474" y="1658" type="line"/>
      <point x="238" y="1658" type="line"/>
      <point x="64" y="0" type="line"/>
      <point x="300" y="0" type="line"/>
      <point x="309" y="86" type="line"/>
      <point x="354" y="30"/>
      <point x="416" y="-17"/>
    </contour>
    <contour>
      <point x="467" y="170" type="curve" smooth="yes"/>
      <point x="405" y="170"/>
      <point x="359" y="188"/>
      <point x="322" y="213" type="curve"/>
      <point x="401" y="961" type="line"/>
      <point x="443" y="991"/>
      <point x="493" y="1014"/>
      <point x="546" y="1014" type="curve" smooth="yes"/>
      <point x="653" y="1014"/>
      <point x="651" y="889"/>
      <point x="638" y="761" type="curve" smooth="yes"/>
      <point x="607" y="465" type="line" smooth="yes"/>
      <point x="591" y="310"/>
      <point x="574" y="170"/>
    </contour>
  </outline>
</glyph>
<glyph name="d" format="1">
  <advance width="920"/>
  <unicode hex="0064"/>
  <outline>
    <contour>
      <point x="336" y="-17" type="curve" smooth="yes"/>
      <point x="409" y="-16"/>
      <point x="474" y="18"/>
      <point x="532" y="73" type="curve"/>
      <point x="524" y="0" type="line"/>
      <point x="760" y="0" type="line"/>
      <point x="934" y="1658" type="line"/>
      <point x="698" y="1658" type="line"/>
      <point x="641" y="1111" type="line"/>
      <point x="595" y="1161"/>
      <point x="534" y="1200"/>
      <point x="456" y="1200" type="curve" smooth="yes"/>
      <point x="211" y="1200"/>
      <point x="138" y="955"/>
      <point x="111" y="695" type="curve" smooth="yes"/>
      <point x="87" y="462" type="line" smooth="yes"/>
      <point x="50" y="112"/>
      <point x="134" y="-18"/>
    </contour>
    <contour>
      <point x="417" y="170" type="curve" smooth="yes"/>
      <point x="304" y="170"/>
      <point x="305" y="294"/>
      <point x="320" y="441" type="curve" smooth="yes"/>
      <point x="357" y="790" type="line" smooth="yes"/>
      <point x="369" y="902"/>
      <point x="405" y="1014"/>
      <point x="502" y="1014" type="curve" smooth="yes"/>
      <point x="548" y="1014"/>
      <point x="590" y="996"/>
      <point x="626" y="970" type="curve"/>
      <point x="546" y="205" type="line"/>
      <point x="498" y="181"/>
      <point x="452" y="170"/>
    </contour>
  </outline>
</glyph>
<glyph name="e" format="1">
  <advance width="875"/>
  <unicode hex="0065"/>
  <outline>
    <contour>
      <point x="394" y="-17" type="curve" smooth="yes"/>
      <point x="636" y="-17"/>
      <point x="750" y="129"/>
      <point x="775" y="373" type="curve"/>
      <point x="780" y="414" type="line"/>
      <point x="550" y="414" type="line"/>
      <point x="542" y="344" type="line"/>
      <point x="532" y="244"/>
      <point x="514" y="158"/>
      <point x="411" y="158" type="curve" smooth="yes"/>
      <point x="278" y="158"/>
      <point x="305" y="293"/>
      <point x="319" y="430" type="curve" smooth="yes"/>
      <point x="335" y="583" type="line"/>
      <point x="799" y="583" type="line"/>
      <point x="809" y="677" type="line" smooth="yes"/>
      <point x="843" y="998"/>
      <point x="829" y="1200"/>
      <point x="520" y="1200" type="curve" smooth="yes"/>
      <point x="234" y="1200"/>
      <point x="146" y="1028"/>
      <point x="114" y="723" type="curve" smooth="yes"/>
      <point x="86" y="459" type="line" smooth="yes"/>
      <point x="55" y="159"/>
      <point x="99" y="-17"/>
    </contour>
    <contour>
      <point x="349" y="710" type="line"/>
      <point x="355" y="770" type="line" smooth="yes"/>
      <point x="375" y="961"/>
      <point x="398" y="1026"/>
      <point x="500" y="1026" type="curve" smooth="yes"/>
      <point x="599" y="1026"/>
      <point x="606" y="954"/>
      <point x="592" y="820" type="curve" smooth="yes"/>
      <point x="581" y="710" type="line"/>
    </contour>
  </outline>
</glyph>
<glyph name="f" format="1">
  <advance width="598"/>
  <unicode hex="0066"/>
  <outline>
    <contour>
      <point x="129" y="0" type="line"/>
      <point x="364" y="0" type="line"/>
      <point x="470" y="1007" type="line"/>
      <point x="648" y="1007" type="line"/>
      <point x="666" y="1184" type="line"/>
      <point x="488" y="1184" type="line"/>
      <point x="498" y="1273" type="line" smooth="yes"/>
      <point x="507" y="1358"/>
      <point x="526" y="1421"/>
      <point x="611" y="1421" type="curve" smooth="yes"/>
      <point x="634" y="1421"/>
      <point x="667" y="1413"/>
      <point x="690" y="1411" type="curve"/>
      <point x="709" y="1587" type="line"/>
      <point x="650" y="1594"/>
      <point x="621" y="1598"/>
      <point x="563" y="1598" type="curve" smooth="yes"/>
      <point x="333" y="1598"/>
      <point x="282" y="1459"/>
      <point x="258" y="1230" type="curve" smooth="yes"/>
      <point x="253" y="1184" type="line"/>
      <point x="113" y="1184" type="line"/>
      <point x="95" y="1007" type="line"/>
      <point x="235" y="1007" type="line"/>
    </contour>
  </outline>
</glyph>
<glyph name="g" format="1">
  <advance width="893"/>
  <unicode hex="0067"/>
  <outline>
    <contour>
      <point x="401" y="-362" type="curve" smooth="yes"/>
      <point x="643" y="-362"/>
      <point x="755" y="-281"/>
      <point x="779" y="-60" type="curve" smooth="yes"/>
      <point x="798" y="121"/>
      <point x="715" y="218"/>
      <point x="540" y="231" type="curve" smooth="yes"/>
      <point x="360" y="245" type="line" smooth="yes"/>
      <point x="289" y="250"/>
      <point x="262" y="265"/>
      <point x="265" y="299" type="curve" smooth="yes"/>
      <point x="268" y="327"/>
      <point x="289" y="354"/>
      <point x="302" y="374" type="curve"/>
      <point x="302" y="374"/>
      <point x="388" y="360"/>
      <point x="411" y="360" type="curve" smooth="yes"/>
      <point x="662" y="360"/>
      <point x="756" y="527"/>
      <point x="782" y="769" type="curve" smooth="yes"/>
      <point x="789" y="839"/>
      <point x="783" y="942"/>
      <point x="768" y="989" type="curve"/>
      <point x="788" y="1002"/>
      <point x="928" y="1047"/>
      <point x="978" y="1057" type="curve"/>
      <point x="937" y="1209" type="line"/>
      <point x="900" y="1193" type="line" smooth="yes"/>
      <point x="814" y="1155"/>
      <point x="740" y="1089"/>
      <point x="728" y="1074" type="curve"/>
      <point x="696" y="1160"/>
      <point x="624" y="1200"/>
      <point x="499" y="1200" type="curve" smooth="yes"/>
      <point x="283" y="1200"/>
      <point x="153" y="1065"/>
      <point x="123" y="776" type="curve" smooth="yes"/>
      <point x="102" y="581"/>
      <point x="141" y="491"/>
      <point x="220" y="424" type="curve"/>
      <point x="126" y="351"/>
      <point x="78" y="306"/>
      <point x="69" y="217" type="curve" smooth="yes"/>
      <point x="63" y="161"/>
      <point x="87" y="108"/>
      <point x="165" y="83" type="curve"/>
      <point x="74" y="37"/>
      <point x="-14" y="-48"/>
      <point x="-28" y="-181" type="curve" smooth="yes"/>
      <point x="-46" y="-353"/>
      <point x="177" y="-362"/>
    </contour>
    <contour>
      <point x="418" y="-175" type="curve" smooth="yes"/>
      <point x="198" y="-175"/>
      <point x="177" y="-145"/>
      <point x="183" y="-84" type="curve" smooth="yes"/>
      <point x="190" y="-18"/>
      <point x="249" y="41"/>
      <point x="269" y="58" type="curve"/>
      <point x="464" y="44" type="line" smooth="yes"/>
      <point x="577" y="36"/>
      <point x="605" y="2"/>
      <point x="598" y="-67" type="curve" smooth="yes"/>
      <point x="590" y="-143"/>
      <point x="538" y="-175"/>
    </contour>
    <contour>
      <point x="428" y="527" type="curve" smooth="yes"/>
      <point x="318" y="527"/>
      <point x="311" y="625"/>
      <point x="327" y="776" type="curve" smooth="yes"/>
      <point x="346" y="958"/>
      <point x="374" y="1036"/>
      <point x="486" y="1036" type="curve" smooth="yes"/>
      <point x="598" y="1036"/>
      <point x="602" y="948"/>
      <point x="584" y="776" type="curve" smooth="yes"/>
      <point x="566" y="605"/>
      <point x="541" y="527"/>
    </contour>
  </outline>
</glyph>
<glyph name="i" format="1">
  <advance width="480"/>
  <unicode hex="0069"/>
  <outline>
    <contour>
      <point x="74" y="0" type="line"/>
      <point x="310" y="0" type="line"/>
      <point x="434" y="1184" type="line"/>
      <point x="198" y="1184" type="line"/>
    </contour>
    <contour>
      <point x="217" y="1362" type="line"/>
      <point x="454" y="1362" type="line"/>
      <point x="479" y="1598" type="line"/>
      <point x="242" y="1598" type="line"/>
    </contour>
  </outline>
</glyph>
<glyph name="k" format="1">
  <advance width="892"/>
  <unicode hex="006B"/>
  <outline>
    <contour>
      <point x="64" y="3" type="line"/>
      <point x="300" y="3" type="line"/>
      <point x="348" y="456" type="line"/>
      <point x="455" y="598" type="line"/>
      <point x="606" y="0" type="line"/>
      <point x="841" y="0" type="line"/>
      <point x="650" y="718" type="line"/>
      <point x="972" y="1184" type="line"/>
      <point x="726" y="1183" type="line"/>
      <point x="372" y="688" type="line"/>
      <point x="475" y="1661" type="line"/>
      <point x="239" y="1661" type="line"/>
    </contour>
  </outline>
</glyph>
<glyph name="l" format="1">
  <advance width="483"/>
  <unicode hex="006C"/>
  <outline>
    <contour>
      <point x="80" y="0" type="line"/>
      <point x="317" y="0" type="line"/>
      <point x="491" y="1658" type="line"/>
      <point x="254" y="1658" type="line"/>
    </contour>
  </outline>
</glyph>
<glyph name="m" format="1">
  <advance width="1380"/>
  <unicode hex="006D"/>
  <outline>
    <contour>
      <point x="542" y="1014" type="curve" smooth="yes"/>
      <point x="498" y="1014"/>
      <point x="445" y="986"/>
      <point x="396" y="951" type="curve"/>
      <point x="296" y="0" type="line"/>
      <point x="60" y="0" type="line"/>
      <point x="184" y="1184" type="line"/>
      <point x="420" y="1184" type="line"/>
      <point x="409" y="1071" type="line"/>
      <point x="494" y="1141"/>
      <point x="595" y="1200"/>
      <point x="711" y="1200" type="curve" smooth="yes"/>
      <point x="813" y="1200"/>
      <point x="851" y="1134"/>
      <point x="861" y="1058" type="curve"/>
      <point x="950" y="1134"/>
      <point x="1055" y="1200"/>
      <point x="1178" y="1200" type="curve" smooth="yes"/>
      <point x="1324" y="1200"/>
      <point x="1339" y="1064"/>
      <point x="1328" y="960" type="curve" smooth="yes"/>
      <point x="1227" y="0" type="line"/>
      <point x="991" y="0" type="line"/>
      <point x="1084" y="888" type="line" smooth="yes"/>
      <point x="1092" y="963"/>
      <point x="1086" y="1014"/>
      <point x="1009" y="1014" type="curve" smooth="yes"/>
      <point x="964" y="1014"/>
      <point x="910" y="985"/>
      <point x="860" y="949" type="curve"/>
      <point x="760" y="0" type="line"/>
      <point x="524" y="0" type="line"/>
      <point x="617" y="888" type="line" smooth="yes"/>
      <point x="625" y="963"/>
      <point x="619" y="1014"/>
    </contour>
  </outline>
</glyph>
<glyph name="n" format="1">
  <advance width="915"/>
  <unicode hex="006E"/>
  <outline>
    <contour>
      <point x="60" y="0" type="line"/>
      <point x="296" y="0" type="line"/>
      <point x="396" y="950" type="line"/>
      <point x="445" y="985"/>
      <point x="499" y="1014"/>
      <point x="544" y="1014" type="curve" smooth="yes"/>
      <point x="621" y="1014"/>
      <point x="627" y="963"/>
      <point x="619" y="888" type="curve" smooth="yes"/>
      <point x="526" y="0" type="line"/>
      <point x="762" y="0" type="line"/>
      <point x="863" y="960" type="line" smooth="yes"/>
      <point x="874" y="1064"/>
      <point x="859" y="1200"/>
      <point x="713" y="1200" type="curve" smooth="yes"/>
      <point x="596" y="1200"/>
      <point x="495" y="1140"/>
      <point x="408" y="1069" type="curve"/>
      <point x="420" y="1184" type="line"/>
      <point x="184" y="1184" type="line"/>
    </contour>
  </outline>
</glyph>
<glyph name="o" format="1">
  <advance width="881"/>
  <unicode hex="006F"/>
  <outline>
    <contour>
      <point x="407" y="158" type="curve" smooth="yes"/>
      <point x="289" y="158"/>
      <point x="304" y="284"/>
      <point x="316" y="402" type="curve" smooth="yes"/>
      <point x="356" y="780" type="line" smooth="yes"/>
      <point x="368" y="898"/>
      <point x="380" y="1026"/>
      <point x="498" y="1026" type="curve" smooth="yes"/>
      <point x="616" y="1026"/>
      <point x="600" y="898"/>
      <point x="588" y="780" type="curve" smooth="yes"/>
      <point x="548" y="402" type="line" smooth="yes"/>
      <point x="536" y="284"/>
      <point x="525" y="158"/>
    </contour>
    <contour>
      <point x="388" y="-17" type="curve" smooth="yes"/>
      <point x="655" y="-17"/>
      <point x="759" y="156"/>
      <point x="787" y="418" type="curve" smooth="yes"/>
      <point x="823" y="765" type="line" smooth="yes"/>
      <point x="851" y="1027"/>
      <point x="783" y="1200"/>
      <point x="516" y="1200" type="curve" smooth="yes"/>
      <point x="249" y="1200"/>
      <point x="146" y="1027"/>
      <point x="118" y="765" type="curve" smooth="yes"/>
      <point x="82" y="418" type="line" smooth="yes"/>
      <point x="54" y="156"/>
      <point x="121" y="-17"/>
    </contour>
  </outline>
</glyph>
<glyph name="p" format="1">
  <advance width="929"/>
  <unicode hex="0070"/>
  <outline>
    <contour>
      <point x="19" y="-390" type="line"/>
      <point x="255" y="-390" type="line"/>
      <point x="305" y="87" type="line"/>
      <point x="351" y="31"/>
      <point x="412" y="-17"/>
      <point x="493" y="-17" type="curve" smooth="yes"/>
      <point x="729" y="-17"/>
      <point x="815" y="226"/>
      <point x="840" y="466" type="curve" smooth="yes"/>
      <point x="871" y="761" type="line" smooth="yes"/>
      <point x="883" y="879"/>
      <point x="898" y="1200"/>
      <point x="647" y="1200" type="curve" smooth="yes"/>
      <point x="547" y="1200"/>
      <point x="470" y="1150"/>
      <point x="411" y="1090" type="curve"/>
      <point x="420" y="1184" type="line"/>
      <point x="184" y="1184" type="line"/>
    </contour>
    <contour>
      <point x="464" y="170" type="curve" smooth="yes"/>
      <point x="402" y="170"/>
      <point x="355" y="189"/>
      <point x="318" y="214" type="curve"/>
      <point x="397" y="961" type="line"/>
      <point x="439" y="990"/>
      <point x="490" y="1014"/>
      <point x="543" y="1014" type="curve" smooth="yes"/>
      <point x="650" y="1014"/>
      <point x="648" y="889"/>
      <point x="635" y="761" type="curve" smooth="yes"/>
      <point x="604" y="465" type="line" smooth="yes"/>
      <point x="588" y="310"/>
      <point x="571" y="170"/>
    </contour>
  </outline>
</glyph>
<glyph name="q" format="1">
  <advance width="922"/>
  <unicode hex="0071"/>
  <outline>
    <contour>
      <point x="485" y="-390" type="line"/>
      <point x="721" y="-390" type="line"/>
      <point x="886" y="1184" type="line"/>
      <point x="650" y="1184" type="line"/>
      <point x="643" y="1111" type="line"/>
      <point x="597" y="1161"/>
      <point x="536" y="1200"/>
      <point x="458" y="1200" type="curve" smooth="yes"/>
      <point x="213" y="1200"/>
      <point x="140" y="955"/>
      <point x="113" y="695" type="curve" smooth="yes"/>
      <point x="89" y="462" type="line" smooth="yes"/>
      <point x="52" y="112"/>
      <point x="136" y="-18"/>
      <point x="338" y="-17" type="curve" smooth="yes"/>
      <point x="411" y="-16"/>
      <point x="476" y="18"/>
      <point x="534" y="73" type="curve"/>
    </contour>
    <contour>
      <point x="419" y="170" type="curve" smooth="yes"/>
      <point x="306" y="170"/>
      <point x="307" y="294"/>
      <point x="322" y="441" type="curve" smooth="yes"/>
      <point x="359" y="790" type="line" smooth="yes"/>
      <point x="371" y="902"/>
      <point x="407" y="1014"/>
      <point x="504" y="1014" type="curve" smooth="yes"/>
      <point x="550" y="1014"/>
      <point x="592" y="996"/>
      <point x="628" y="970" type="curve"/>
      <point x="548" y="205" type="line"/>
      <point x="500" y="181"/>
      <point x="454" y="170"/>
    </contour>
  </outline>
</glyph>
<glyph name="r" format="1">
  <advance width="670"/>
  <unicode hex="0072"/>
  <outline>
    <contour>
      <point x="64" y="0" type="line"/>
      <point x="300" y="0" type="line"/>
      <point x="390" y="855" type="line"/>
      <point x="455" y="943"/>
      <point x="505" y="961"/>
      <point x="567" y="961" type="curve" smooth="yes"/>
      <point x="613" y="961"/>
      <point x="662" y="949"/>
      <point x="695" y="935" type="curve"/>
      <point x="723" y="1197" type="line"/>
      <point x="706" y="1199"/>
      <point x="697" y="1200"/>
      <point x="685" y="1200" type="curve" smooth="yes"/>
      <point x="597" y="1200"/>
      <point x="512" y="1163"/>
      <point x="407" y="1014" type="curve"/>
      <point x="424" y="1184" type="line"/>
      <point x="188" y="1184" type="line"/>
    </contour>
  </outline>
</glyph>
<glyph name="s" format="1">
  <advance width="770"/>
  <unicode hex="0073"/>
  <outline>
    <contour>
      <point x="333" y="-17" type="curve" smooth="yes"/>
      <point x="531" y="-17"/>
      <point x="678" y="84"/>
      <point x="700" y="291" type="curve" smooth="yes"/>
      <point x="715" y="440"/>
      <point x="647" y="531"/>
      <point x="572" y="605" type="curve"/>
      <point x="373" y="807" type="line"/>
      <point x="342" y="837"/>
      <point x="331" y="875"/>
      <point x="334" y="911" type="curve" smooth="yes"/>
      <point x="339" y="971"/>
      <point x="387" y="1026"/>
      <point x="456" y="1026" type="curve" smooth="yes"/>
      <point x="546" y="1026"/>
      <point x="568" y="942"/>
      <point x="574" y="829" type="curve"/>
      <point x="738" y="888" type="line"/>
      <point x="740" y="1057"/>
      <point x="654" y="1200"/>
      <point x="465" y="1200" type="curve" smooth="yes"/>
      <point x="277" y="1200"/>
      <point x="149" y="1092"/>
      <point x="123" y="902" type="curve" smooth="yes"/>
      <point x="104" y="762"/>
      <point x="165" y="681"/>
      <point x="235" y="615" type="curve" smooth="yes"/>
      <point x="428" y="433" type="line" smooth="yes"/>
      <point x="477" y="386"/>
      <point x="497" y="332"/>
      <point x="495" y="285" type="curve" smooth="yes"/>
      <point x="492" y="214"/>
      <point x="435" y="158"/>
      <point x="362" y="158" type="curve" smooth="yes"/>
      <point x="272" y="158"/>
      <point x="237" y="231"/>
      <point x="234" y="375" type="curve"/>
      <point x="31" y="316" type="line"/>
      <point x="27" y="118"/>
      <point x="137" y="-17"/>
    </contour>
  </outline>
</glyph>
<glyph name="t" format="1">
  <advance width="645"/>
  <unicode hex="0074"/>
  <outline>
    <contour>
      <point x="382" y="-17" type="curve" smooth="yes"/>
      <point x="440" y="-17"/>
      <point x="481" y="-13"/>
      <point x="541" y="-6" type="curve"/>
      <point x="560" y="169" type="line"/>
      <point x="532" y="165"/>
      <point x="499" y="164"/>
      <point x="479" y="164" type="curve" smooth="yes"/>
      <point x="393" y="164"/>
      <point x="374" y="200"/>
      <point x="383" y="286" type="curve" smooth="yes"/>
      <point x="461" y="1026" type="line"/>
      <point x="650" y="1026" type="line"/>
      <point x="666" y="1184" type="line"/>
      <point x="477" y="1184" type="line"/>
      <point x="513" y="1524" type="line"/>
      <point x="277" y="1524" type="line"/>
      <point x="241" y="1184" type="line"/>
      <point x="122" y="1184" type="line"/>
      <point x="106" y="1026" type="line"/>
      <point x="225" y="1026" type="line"/>
      <point x="145" y="271" type="line"/>
      <point x="128" y="84"/>
      <point x="191" y="-17"/>
    </contour>
  </outline>
</glyph>
<glyph name="u" format="1">
  <advance width="915"/>
  <unicode hex="0075"/>
  <outline>
    <contour>
      <point x="226" y="-16" type="curve" smooth="yes"/>
      <point x="342" y="-16"/>
      <point x="443" y="43"/>
      <point x="529" y="113" type="curve"/>
      <point x="517" y="0" type="line"/>
      <point x="753" y="0" type="line"/>
      <point x="877" y="1184" type="line"/>
      <point x="641" y="1184" type="line"/>
      <point x="541" y="233" type="line"/>
      <point x="492" y="198"/>
      <point x="440" y="170"/>
      <point x="396" y="170" type="curve" smooth="yes"/>
      <point x="319" y="170"/>
      <point x="312" y="221"/>
      <point x="320" y="296" type="curve" smooth="yes"/>
      <point x="413" y="1184" type="line"/>
      <point x="177" y="1184" type="line"/>
      <point x="77" y="224" type="line" smooth="yes"/>
      <point x="66" y="120"/>
      <point x="80" y="-16"/>
    </contour>
  </outline>
</glyph>
<glyph name="v" format="1">
  <advance width="797"/>
  <unicode hex="0076"/>
  <outline>
    <contour>
      <point x="208" y="0" type="line"/>
      <point x="499" y="0" type="line"/>
      <point x="841" y="1184" type="line"/>
      <point x="611" y="1184" type="line"/>
      <point x="377" y="245" type="line"/>
      <point x="341" y="1184" type="line"/>
      <point x="104" y="1184" type="line"/>
    </contour>
  </outline>
</glyph>
<glyph name="w" format="1">
  <advance width="1211"/>
  <unicode hex="0077"/>
  <outline>
    <contour>
      <point x="195" y="0" type="line"/>
      <point x="404" y="0" type="line"/>
      <point x="642" y="803" type="line"/>
      <point x="711" y="0" type="line"/>
      <point x="908" y="0" type="line"/>
      <point x="1228" y="1184" type="line"/>
      <point x="1036" y="1184" type="line"/>
      <point x="829" y="344" type="line"/>
      <point x="768" y="1184" type="line"/>
      <point x="591" y="1184" type="line"/>
      <point x="352" y="341" type="line"/>
      <point x="324" y="1184" type="line"/>
      <point x="131" y="1184" type="line"/>
    </contour>
  </outline>
</glyph>
<glyph name="x" format="1">
  <advance width="800"/>
  <unicode hex="0078"/>
  <outline>
    <contour>
      <point x="-34" y="0" type="line"/>
      <point x="188" y="0" type="line"/>
      <point x="377" y="386" type="line"/>
      <point x="514" y="0" type="line"/>
      <point x="739" y="0" type="line"/>
      <point x="528" y="593" type="line"/>
      <point x="858" y="1184" type="line"/>
      <point x="627" y="1184" type="line"/>
      <point x="446" y="824" type="line"/>
      <point x="318" y="1184" type="line"/>
      <point x="92" y="1184" type="line"/>
      <point x="292" y="623" type="line"/>
    </contour>
  </outline>
</glyph>
<glyph name="y" format="1">
  <advance width="807"/>
  <unicode hex="0079"/>
  <outline>
    <contour>
      <point x="14" y="-296" type="line"/>
      <point x="38" y="-296" type="line" smooth="yes"/>
      <point x="256" y="-296"/>
      <point x="392" y="-238"/>
      <point x="451" y="-60" type="curve" smooth="yes"/>
      <point x="864" y="1184" type="line"/>
      <point x="624" y="1184" type="line"/>
      <point x="392" y="330" type="line"/>
      <point x="334" y="1184" type="line"/>
      <point x="94" y="1184" type="line"/>
      <point x="226" y="185" type="line" smooth="yes"/>
      <point x="233" y="131"/>
      <point x="240" y="76"/>
      <point x="247" y="22" type="curve" smooth="yes"/>
      <point x="263" y="-95"/>
      <point x="222" y="-118"/>
      <point x="33" y="-118" type="curve"/>
    </contour>
  </outline>
</glyph>
<glyph name="z" format="1">
  <advance width="717"/>
  <unicode hex="007A"/>
  <outline>
    <contour>
      <point x="15" y="0" type="line"/>
      <point x="614" y="0" type="line"/>
      <point x="633" y="178" type="line"/>
      <point x="288" y="178" type="line"/>
      <point x="733" y="1057" type="line"/>
      <point x="746" y="1184" type="line"/>
      <point x="175" y="1184" type="line"/>
      <point x="157" y="1007" type="line"/>
      <point x="474" y="1007" type="line"/>
      <point x="32" y="158" type="line"/>
    </contour>
  </outline>
</glyph>
<glyph name="braceleft" format="1">
  <advance width="637"/>
  <unicode hex="007B"/>
  <outline>
    <contour>
      <point x="495" y="-406" type="curve"/>
      <point x="514" y="-231" type="line"/>
      <point x="377" y="-231"/>
      <point x="379" y="-206"/>
      <point x="402" y="7" type="curve" smooth="yes"/>
      <point x="436" y="333" type="line" smooth="yes"/>
      <point x="458" y="538"/>
      <point x="408" y="615"/>
      <point x="327" y="634" type="curve"/>
      <point x="412" y="653"/>
      <point x="478" y="730"/>
      <point x="499" y="935" type="curve"/>
      <point x="534" y="1261" type="line" smooth="yes"/>
      <point x="556" y="1474"/>
      <point x="559" y="1499"/>
      <point x="696" y="1499" type="curve"/>
      <point x="714" y="1674" type="line"/>
      <point x="352" y="1674"/>
      <point x="322" y="1626"/>
      <point x="284" y="1261" type="curve" smooth="yes"/>
      <point x="253" y="967" type="line" smooth="yes"/>
      <point x="229" y="743"/>
      <point x="207" y="714"/>
      <point x="107" y="714" type="curve"/>
      <point x="90" y="554" type="line"/>
      <point x="190" y="554"/>
      <point x="206" y="525"/>
      <point x="183" y="301" type="curve" smooth="yes"/>
      <point x="152" y="7" type="line" smooth="yes"/>
      <point x="113" y="-358"/>
      <point x="133" y="-406"/>
    </contour>
  </outline>
</glyph>
<glyph name="bar" format="1">
  <advance width="501"/>
  <unicode hex="007C"/>
  <outline>
    <contour>
      <point x="58" y="-306" type="line"/>
      <point x="277" y="-306" type="line"/>
      <point x="485" y="1659" type="line"/>
      <point x="266" y="1659" type="line"/>
    </contour>
  </outline>
</glyph>
<glyph name="braceright" format="1">
  <advance width="685"/>
  <unicode hex="007D"/>
  <outline>
    <contour>
      <point x="3" y="-406" type="line"/>
      <point x="365" y="-406"/>
      <point x="395" y="-358"/>
      <point x="434" y="7" type="curve" smooth="yes"/>
      <point x="465" y="301" type="line" smooth="yes"/>
      <point x="488" y="525"/>
      <point x="510" y="554"/>
      <point x="610" y="554" type="curve"/>
      <point x="627" y="714" type="line"/>
      <point x="527" y="714"/>
      <point x="511" y="743"/>
      <point x="535" y="967" type="curve" smooth="yes"/>
      <point x="566" y="1261" type="line" smooth="yes"/>
      <point x="604" y="1626"/>
      <point x="584" y="1674"/>
      <point x="222" y="1674" type="curve"/>
      <point x="204" y="1499" type="line"/>
      <point x="341" y="1499"/>
      <point x="338" y="1474"/>
      <point x="316" y="1261" type="curve" smooth="yes"/>
      <point x="281" y="935" type="line"/>
      <point x="260" y="730"/>
      <point x="310" y="653"/>
      <point x="391" y="634" type="curve"/>
      <point x="306" y="615"/>
      <point x="240" y="538"/>
      <point x="218" y="333" type="curve" smooth="yes"/>
      <point x="184" y="7" type="line" smooth="yes"/>
      <point x="161" y="-206"/>
      <point x="159" y="-231"/>
      <point x="22" y="-231" type="curve"/>
    </contour>
  </outline>
</glyph>
<glyph name="asciitilde" format="1">
  <advance width="936"/>
  <unicode hex="007E"/>
  <outline>
    <contour>
      <point x="646" y="737" type="curve" smooth="yes"/>
      <point x="726" y="737"/>
      <point x="849" y="838"/>
      <point x="911" y="903" type="curve"/>
      <point x="837" y="1012" type="line"/>
      <point x="779" y="970"/>
      <point x="722" y="929"/>
      <point x="681" y="929" type="curve" smooth="yes"/>
      <point x="587" y="929"/>
      <point x="488" y="1046"/>
      <point x="383" y="1046" type="curve" smooth="yes"/>
      <point x="310" y="1046"/>
      <point x="178" y="950"/>
      <point x="114" y="892" type="curve"/>
      <point x="186" y="778" type="line"/>
      <point x="239" y="817"/>
      <point x="307" y="856"/>
      <point x="346" y="856" type="curve" smooth="yes"/>
      <point x="438" y="856"/>
      <point x="540" y="737"/>
    </contour>
  </outline>
</glyph>
<glyph name="exclamdown" format="1">
  <advance width="428"/>
  <unicode hex="00A1"/>
  <outline>
    <contour>
      <point x="9" y="-356" type="line"/>
      <point x="245" y="-356" type="line"/>
      <point x="306" y="947" type="line"/>
      <point x="223" y="947" type="line"/>
    </contour>
    <contour>
      <point x="158" y="1065" type="line"/>
      <point x="394" y="1065" type="line"/>
      <point x="419" y="1302" type="line"/>
      <point x="183" y="1302" type="line"/>
    </contour>
  </outline>
</glyph>
<glyph name="cent" format="1">
  <advance width="797"/>
  <unicode hex="00A2"/>
  <outline>
    <contour>
      <point x="302" y="-151" type="line"/>
      <point x="374" y="-151" type="line"/>
      <point x="388" y="-17" type="line"/>
      <point x="641" y="-17"/>
      <point x="731" y="118"/>
      <point x="757" y="360" type="curve" smooth="yes"/>
      <point x="766" y="447" type="line"/>
      <point x="553" y="447" type="line"/>
      <point x="542" y="344" type="line" smooth="yes"/>
      <point x="531" y="240"/>
      <point x="513" y="158"/>
      <point x="412" y="158" type="curve" smooth="yes"/>
      <point x="321" y="158"/>
      <point x="295" y="201"/>
      <point x="316" y="395" type="curve" smooth="yes"/>
      <point x="356" y="779" type="line" smooth="yes"/>
      <point x="375" y="965"/>
      <point x="400" y="1026"/>
      <point x="502" y="1026" type="curve" smooth="yes"/>
      <point x="591" y="1026"/>
      <point x="608" y="971"/>
      <point x="593" y="830" type="curve" smooth="yes"/>
      <point x="585" y="755" type="line"/>
      <point x="798" y="755" type="line"/>
      <point x="806" y="829" type="line" smooth="yes"/>
      <point x="832" y="1078"/>
      <point x="776" y="1200"/>
      <point x="516" y="1200" type="curve"/>
      <point x="530" y="1333" type="line"/>
      <point x="458" y="1333" type="line"/>
      <point x="444" y="1196" type="line"/>
      <point x="209" y="1167"/>
      <point x="142" y="992"/>
      <point x="115" y="729" type="curve" smooth="yes"/>
      <point x="86" y="455" type="line" smooth="yes"/>
      <point x="58" y="192"/>
      <point x="87" y="16"/>
      <point x="317" y="-13" type="curve"/>
    </contour>
  </outline>
</glyph>
<glyph name="sterling" format="1">
  <advance width="828"/>
  <unicode hex="00A3"/>
  <outline>
    <contour>
      <point x="-50" y="0" type="line"/>
      <point x="719" y="0" type="line"/>
      <point x="738" y="178" type="line"/>
      <point x="324" y="178" type="line"/>
      <point x="380" y="711" type="line"/>
      <point x="617" y="711" type="line"/>
      <point x="635" y="888" type="line"/>
      <point x="398" y="888" type="line"/>
      <point x="434" y="1231" type="line"/>
      <point x="449" y="1340"/>
      <point x="474" y="1480"/>
      <point x="579" y="1480" type="curve" smooth="yes"/>
      <point x="687" y="1480"/>
      <point x="684" y="1352"/>
      <point x="673" y="1243" type="curve"/>
      <point x="850" y="1243" type="line"/>
      <point x="857" y="1315" type="line" smooth="yes"/>
      <point x="877" y="1523"/>
      <point x="813" y="1674"/>
      <point x="599" y="1674" type="curve" smooth="yes"/>
      <point x="278" y="1674"/>
      <point x="214" y="1386"/>
      <point x="180" y="1066" type="curve" smooth="yes"/>
      <point x="161" y="888" type="line"/>
      <point x="43" y="888" type="line"/>
      <point x="25" y="711" type="line"/>
      <point x="143" y="711" type="line"/>
      <point x="87" y="177" type="line"/>
      <point x="-38" y="118" type="line"/>
    </contour>
  </outline>
</glyph>
<glyph name="yen" format="1">
  <advance width="947"/>
  <unicode hex="00A5"/>
  <outline>
    <contour>
      <point x="327" y="0" type="line"/>
      <point x="565" y="0" type="line"/>
      <point x="590" y="237" type="line"/>
      <point x="766" y="237" type="line"/>
      <point x="782" y="392" type="line"/>
      <point x="606" y="392" type="line"/>
      <point x="619" y="512" type="line"/>
      <point x="795" y="512" type="line"/>
      <point x="811" y="665" type="line"/>
      <point x="659" y="665" type="line"/>
      <point x="1094" y="1658" type="line"/>
      <point x="859" y="1658" type="line"/>
      <point x="539" y="890" type="line"/>
      <point x="377" y="1658" type="line"/>
      <point x="146" y="1658" type="line"/>
      <point x="373" y="665" type="line"/>
      <point x="220" y="665" type="line"/>
      <point x="204" y="512" type="line"/>
      <point x="381" y="512" type="line"/>
      <point x="368" y="392" type="line"/>
      <point x="191" y="392" type="line"/>
      <point x="175" y="237" type="line"/>
      <point x="352" y="237" type="line"/>
    </contour>
  </outline>
</glyph>
<glyph name="brokenbar" format="1">
  <advance width="440"/>
  <unicode hex="00A6"/>
  <outline>
    <contour>
      <point x="44" y="-306" type="line"/>
      <point x="232" y="-306" type="line"/>
      <point x="320" y="529" type="line"/>
      <point x="132" y="529" type="line"/>
    </contour>
    <contour>
      <point x="163" y="823" type="line"/>
      <point x="351" y="823" type="line"/>
      <point x="438" y="1658" type="line"/>
      <point x="250" y="1658" type="line"/>
    </contour>
  </outline>
</glyph>
<glyph name="section" format="1">
  <advance width="887"/>
  <unicode hex="00A7"/>
  <outline>
    <contour>
      <point x="392" y="-16" type="curve" smooth="yes"/>
      <point x="602" y="-16"/>
      <point x="759" y="90"/>
      <point x="781" y="297" type="curve" smooth="yes"/>
      <point x="794" y="416"/>
      <point x="730" y="490"/>
      <point x="661" y="551" type="curve"/>
      <point x="753" y="601"/>
      <point x="822" y="688"/>
      <point x="836" y="816" type="curve"/>
      <point x="848" y="937"/>
      <point x="809" y="1036"/>
      <point x="724" y="1093" type="curve" smooth="yes"/>
      <point x="468" y="1264" type="line" smooth="yes"/>
      <point x="443" y="1281"/>
      <point x="414" y="1316"/>
      <point x="419" y="1362" type="curve" smooth="yes"/>
      <point x="427" y="1438"/>
      <point x="475" y="1480"/>
      <point x="550" y="1480" type="curve" smooth="yes"/>
      <point x="652" y="1480"/>
      <point x="689" y="1377"/>
      <point x="709" y="1302" type="curve"/>
      <point x="893" y="1362" type="line"/>
      <point x="872" y="1531"/>
      <point x="781" y="1674"/>
      <point x="570" y="1674" type="curve" smooth="yes"/>
      <point x="360" y="1674"/>
      <point x="204" y="1571"/>
      <point x="185" y="1392" type="curve" smooth="yes"/>
      <point x="172" y="1270"/>
      <point x="250" y="1183"/>
      <point x="329" y="1134" type="curve"/>
      <point x="220" y="1088"/>
      <point x="144" y="996"/>
      <point x="129" y="856" type="curve" smooth="yes"/>
      <point x="114" y="709"/>
      <point x="186" y="637"/>
      <point x="278" y="578" type="curve" smooth="yes"/>
      <point x="499" y="434" type="line" smooth="yes"/>
      <point x="551" y="400"/>
      <point x="569" y="350"/>
      <point x="556" y="289" type="curve" smooth="yes"/>
      <point x="541" y="214"/>
      <point x="488" y="179"/>
      <point x="413" y="179" type="curve" smooth="yes"/>
      <point x="314" y="179"/>
      <point x="274" y="281"/>
      <point x="254" y="356" type="curve"/>
      <point x="70" y="297" type="line"/>
      <point x="92" y="129"/>
      <point x="183" y="-16"/>
    </contour>
    <contour>
      <point x="513" y="682" type="curve"/>
      <point x="411" y="750" type="line" smooth="yes"/>
      <point x="385" y="768"/>
      <point x="361" y="811"/>
      <point x="366" y="856" type="curve" smooth="yes"/>
      <point x="373" y="926"/>
      <point x="427" y="983"/>
      <point x="473" y="1009" type="curve"/>
      <point x="568" y="944" type="line" smooth="yes"/>
      <point x="613" y="913"/>
      <point x="625" y="855"/>
      <point x="621" y="816" type="curve" smooth="yes"/>
      <point x="614" y="751"/>
      <point x="558" y="702"/>
    </contour>
  </outline>
</glyph>
<glyph name="dieresis" format="1">
  <advance width="828"/>
  <unicode hex="00A8"/>
  <outline>
    <contour>
      <point x="217" y="1421" type="line"/>
      <point x="454" y="1421" type="line"/>
      <point x="479" y="1658" type="line"/>
      <point x="242" y="1658" type="line"/>
    </contour>
    <contour>
      <point x="572" y="1421" type="line"/>
      <point x="810" y="1421" type="line"/>
      <point x="835" y="1658" type="line"/>
      <point x="597" y="1658" type="line"/>
    </contour>
  </outline>
</glyph>
<glyph name="copyright" format="1">
  <advance width="1765"/>
  <unicode hex="00A9"/>
  <outline>
    <contour>
      <point x="865" y="255" type="curve" smooth="yes"/>
      <point x="1146" y="255"/>
      <point x="1246" y="396"/>
      <point x="1272" y="649" type="curve" smooth="yes"/>
      <point x="1277" y="699" type="line"/>
      <point x="1046" y="699" type="line"/>
      <point x="1039" y="632" type="line" smooth="yes"/>
      <point x="1028" y="523"/>
      <point x="1002" y="437"/>
      <point x="890" y="437" type="curve" smooth="yes"/>
      <point x="789" y="437"/>
      <point x="753" y="482"/>
      <point x="774" y="684" type="curve" smooth="yes"/>
      <point x="809" y="1015" type="line" smooth="yes"/>
      <point x="829" y="1209"/>
      <point x="864" y="1273"/>
      <point x="977" y="1273" type="curve" smooth="yes"/>
      <point x="1076" y="1273"/>
      <point x="1101" y="1215"/>
      <point x="1085" y="1068" type="curve" smooth="yes"/>
      <point x="1079" y="1011" type="line"/>
      <point x="1310" y="1011" type="line"/>
      <point x="1316" y="1067" type="line" smooth="yes"/>
      <point x="1343" y="1327"/>
      <point x="1280" y="1454"/>
      <point x="991" y="1454" type="curve" smooth="yes"/>
      <point x="665" y="1454"/>
      <point x="581" y="1263"/>
      <point x="549" y="963" type="curve"/>
      <point x="527" y="747" type="line"/>
      <point x="495" y="447"/>
      <point x="538" y="255"/>
    </contour>
    <contour>
      <point x="846" y="71" type="curve" smooth="yes"/>
      <point x="346" y="71"/>
      <point x="168" y="458"/>
      <point x="209" y="844" type="curve"/>
      <point x="249" y="1231"/>
      <point x="509" y="1613"/>
      <point x="1009" y="1613" type="curve" smooth="yes"/>
      <point x="1507" y="1613"/>
      <point x="1686" y="1231"/>
      <point x="1646" y="844" type="curve"/>
      <point x="1605" y="458"/>
      <point x="1344" y="71"/>
    </contour>
    <contour>
      <point x="831" y="-22" type="curve" smooth="yes"/>
      <point x="1417" y="-22"/>
      <point x="1700" y="426"/>
      <point x="1744" y="843" type="curve" smooth="yes"/>
      <point x="1787" y="1260"/>
      <point x="1597" y="1708"/>
      <point x="1013" y="1708" type="curve" smooth="yes"/>
      <point x="428" y="1708"/>
      <point x="142" y="1260"/>
      <point x="99" y="843" type="curve"/>
      <point x="55" y="427"/>
      <point x="246" y="-22"/>
    </contour>
  </outline>
</glyph>
<glyph name="ordfeminine" format="1">
  <advance width="924"/>
  <unicode hex="00AA"/>
  <outline>
    <contour>
      <point x="385" y="648" type="curve" smooth="yes"/>
      <point x="482" y="648"/>
      <point x="567" y="711"/>
      <point x="615" y="792" type="curve"/>
      <point x="601" y="660" type="line"/>
      <point x="792" y="660" type="line"/>
      <point x="857" y="1278" type="line" smooth="yes"/>
      <point x="884" y="1533"/>
      <point x="847" y="1684"/>
      <point x="614" y="1684" type="curve" smooth="yes"/>
      <point x="427" y="1684"/>
      <point x="309" y="1539"/>
      <point x="283" y="1333" type="curve"/>
      <point x="477" y="1333" type="line"/>
      <point x="487" y="1426"/>
      <point x="514" y="1512"/>
      <point x="593" y="1512" type="curve" smooth="yes"/>
      <point x="662" y="1512"/>
      <point x="665" y="1431"/>
      <point x="657" y="1347" type="curve" smooth="yes"/>
      <point x="645" y="1235" type="line"/>
      <point x="463" y="1176"/>
      <point x="227" y="1121"/>
      <point x="201" y="878" type="curve" smooth="yes"/>
      <point x="187" y="746"/>
      <point x="265" y="648"/>
    </contour>
    <contour>
      <point x="483" y="830" type="curve" smooth="yes"/>
      <point x="434" y="830"/>
      <point x="411" y="869"/>
      <point x="418" y="930" type="curve" smooth="yes"/>
      <point x="429" y="1037"/>
      <point x="543" y="1094"/>
      <point x="635" y="1144" type="curve"/>
      <point x="612" y="920" type="line"/>
      <point x="587" y="875"/>
      <point x="536" y="830"/>
    </contour>
  </outline>
</glyph>
<glyph name="guillemotleft" format="1">
  <advance width="947"/>
  <unicode hex="00AB"/>
  <outline>
    <contour>
      <point x="349" y="60" type="line"/>
      <point x="380" y="355" type="line"/>
      <point x="249" y="593" type="line"/>
      <point x="430" y="829" type="line"/>
      <point x="461" y="1125" type="line"/>
      <point x="78" y="651" type="line"/>
      <point x="66" y="533" type="line"/>
    </contour>
    <contour>
      <point x="764" y="60" type="line"/>
      <point x="795" y="355" type="line"/>
      <point x="663" y="593" type="line"/>
      <point x="845" y="829" type="line"/>
      <point x="876" y="1125" type="line"/>
      <point x="491" y="651" type="line"/>
      <point x="479" y="533" type="line"/>
    </contour>
  </outline>
</glyph>
<glyph name="logicalnot" format="1">
  <advance width="805"/>
  <unicode hex="00AC"/>
  <outline>
    <contour>
      <point x="636" y="515" type="line"/>
      <point x="755" y="515" type="line"/>
      <point x="798" y="922" type="line"/>
      <point x="129" y="922" type="line"/>
      <point x="110" y="744" type="line"/>
      <point x="660" y="744" type="line"/>
    </contour>
  </outline>
</glyph>
<glyph name="uni00AD" format="1">
  <advance width="709"/>
  <unicode hex="00AD"/>
  <outline>
    <contour>
      <point x="174" y="1006" type="line"/>
      <point x="648" y="1006" type="line"/>
      <point x="666" y="1184" type="line"/>
      <point x="192" y="1184" type="line"/>
    </contour>
  </outline>
</glyph>
<glyph name="registered" format="1">
  <advance width="1824"/>
  <unicode hex="00AE"/>
  <outline>
    <contour>
      <point x="576" y="305" type="line"/>
      <point x="782" y="305" type="line"/>
      <point x="829" y="751" type="line"/>
      <point x="937" y="751" type="line"/>
      <point x="1058" y="305" type="line"/>
      <point x="1273" y="305" type="line"/>
      <point x="1130" y="793" type="line"/>
      <point x="1235" y="841"/>
      <point x="1313" y="913"/>
      <point x="1327" y="1050" type="curve" smooth="yes"/>
      <point x="1349" y="1259"/>
      <point x="1250" y="1366"/>
      <point x="1005" y="1366" type="curve" smooth="yes"/>
      <point x="688" y="1366" type="line"/>
    </contour>
    <contour>
      <point x="840" y="861" type="line"/>
      <point x="879" y="1230" type="line"/>
      <point x="973" y="1230" type="line" smooth="yes"/>
      <point x="1093" y="1230"/>
      <point x="1129" y="1167"/>
      <point x="1117" y="1055" type="curve" smooth="yes"/>
      <point x="1101" y="907"/>
      <point x="1049" y="861"/>
      <point x="883" y="861" type="curve" smooth="yes"/>
    </contour>
    <contour>
      <point x="871" y="81" type="curve" smooth="yes"/>
      <point x="389" y="81"/>
      <point x="219" y="454"/>
      <point x="258" y="827" type="curve" smooth="yes"/>
      <point x="297" y="1202"/>
      <point x="545" y="1571"/>
      <point x="1027" y="1571" type="curve" smooth="yes"/>
      <point x="1505" y="1571"/>
      <point x="1676" y="1202"/>
      <point x="1637" y="827" type="curve" smooth="yes"/>
      <point x="1598" y="454"/>
      <point x="1349" y="81"/>
    </contour>
    <contour>
      <point x="860" y="-28" type="curve" smooth="yes"/>
      <point x="1440" y="-28"/>
      <point x="1720" y="415"/>
      <point x="1763" y="828" type="curve" smooth="yes"/>
      <point x="1806" y="1241"/>
      <point x="1618" y="1684"/>
      <point x="1040" y="1684" type="curve" smooth="yes"/>
      <point x="460" y="1684"/>
      <point x="178" y="1241"/>
      <point x="135" y="828" type="curve" smooth="yes"/>
      <point x="92" y="417"/>
      <point x="280" y="-28"/>
    </contour>
  </outline>
</glyph>
<glyph name="degree" format="1">
  <advance width="947"/>
  <unicode hex="00B0"/>
  <outline>
    <contour>
      <point x="541" y="1121" type="curve" smooth="yes"/>
      <point x="425" y="1121"/>
      <point x="373" y="1205"/>
      <point x="385" y="1320" type="curve" smooth="yes"/>
      <point x="397" y="1435"/>
      <point x="466" y="1517"/>
      <point x="582" y="1517" type="curve" smooth="yes"/>
      <point x="698" y="1517"/>
      <point x="752" y="1435"/>
      <point x="740" y="1320" type="curve" smooth="yes"/>
      <point x="728" y="1205"/>
      <point x="657" y="1121"/>
    </contour>
    <contour>
      <point x="524" y="964" type="curve" smooth="yes"/>
      <point x="747" y="964"/>
      <point x="895" y="1101"/>
      <point x="918" y="1320" type="curve" smooth="yes"/>
      <point x="941" y="1538"/>
      <point x="822" y="1674"/>
      <point x="599" y="1674" type="curve" smooth="yes"/>
      <point x="377" y="1674"/>
      <point x="230" y="1539"/>
      <point x="207" y="1320" type="curve" smooth="yes"/>
      <point x="184" y="1101"/>
      <point x="300" y="964"/>
    </contour>
  </outline>
</glyph>
<glyph name="plusminus" format="1">
  <advance width="769"/>
  <unicode hex="00B1"/>
  <outline>
    <contour>
      <point x="283" y="355" type="line"/>
      <point x="460" y="355" type="line"/>
      <point x="479" y="533" type="line"/>
      <point x="657" y="533" type="line"/>
      <point x="676" y="711" type="line"/>
      <point x="498" y="711" type="line"/>
      <point x="516" y="888" type="line"/>
      <point x="339" y="888" type="line"/>
      <point x="321" y="711" type="line"/>
      <point x="143" y="711" type="line"/>
      <point x="124" y="533" type="line"/>
      <point x="302" y="533" type="line"/>
    </contour>
    <contour>
      <point x="68" y="0" type="line"/>
      <point x="601" y="0" type="line"/>
      <point x="620" y="178" type="line"/>
      <point x="87" y="178" type="line"/>
    </contour>
  </outline>
</glyph>
<glyph name="uni00B2" format="1">
  <advance width="904"/>
  <unicode hex="00B2"/>
  <outline>
    <contour>
      <point x="190" y="615" type="line"/>
      <point x="202" y="737" type="line"/>
      <point x="556" y="1214" type="line" smooth="yes"/>
      <point x="634" y="1320"/>
      <point x="704" y="1389"/>
      <point x="718" y="1524" type="curve" smooth="yes"/>
      <point x="729" y="1629"/>
      <point x="709" y="1697"/>
      <point x="624" y="1697" type="curve" smooth="yes"/>
      <point x="518" y="1697"/>
      <point x="464" y="1438"/>
      <point x="464" y="1438" type="curve"/>
      <point x="291" y="1438" type="line"/>
      <point x="296" y="1481" type="line"/>
      <point x="318" y="1698"/>
      <point x="413" y="1839"/>
      <point x="630" y="1839" type="curve" smooth="yes"/>
      <point x="830" y="1839"/>
      <point x="913" y="1721"/>
      <point x="892" y="1524" type="curve" smooth="yes"/>
      <point x="876" y="1367"/>
      <point x="807" y="1285"/>
      <point x="726" y="1177" type="curve" smooth="yes"/>
      <point x="410" y="760" type="line"/>
      <point x="782" y="760" type="line"/>
      <point x="767" y="615" type="line"/>
    </contour>
  </outline>
</glyph>
<glyph name="uni00B3" format="1">
  <advance width="904"/>
  <unicode hex="00B3"/>
  <outline>
    <contour>
      <point x="516" y="602" type="curve" smooth="yes"/>
      <point x="274" y="602"/>
      <point x="204" y="731"/>
      <point x="228" y="964" type="curve" smooth="yes"/>
      <point x="236" y="1041" type="line"/>
      <point x="432" y="1041" type="line"/>
      <point x="424" y="959" type="line" smooth="yes"/>
      <point x="411" y="836"/>
      <point x="446" y="770"/>
      <point x="528" y="770" type="curve" smooth="yes"/>
      <point x="618" y="770"/>
      <point x="667" y="839"/>
      <point x="678" y="938" type="curve" smooth="yes"/>
      <point x="690" y="1054"/>
      <point x="652" y="1151"/>
      <point x="554" y="1151" type="curve" smooth="yes"/>
      <point x="467" y="1151" type="line"/>
      <point x="483" y="1300" type="line"/>
      <point x="565" y="1300" type="line" smooth="yes"/>
      <point x="667" y="1300"/>
      <point x="727" y="1404"/>
      <point x="739" y="1521" type="curve" smooth="yes"/>
      <point x="750" y="1625"/>
      <point x="707" y="1681"/>
      <point x="625" y="1681" type="curve" smooth="yes"/>
      <point x="544" y="1681"/>
      <point x="494" y="1621"/>
      <point x="484" y="1521" type="curve"/>
      <point x="472" y="1412" type="line"/>
      <point x="275" y="1412" type="line"/>
      <point x="286" y="1515" type="line" smooth="yes"/>
      <point x="307" y="1708"/>
      <point x="431" y="1838"/>
      <point x="636" y="1838" type="curve" smooth="yes"/>
      <point x="846" y="1838"/>
      <point x="946" y="1729"/>
      <point x="923" y="1509" type="curve" smooth="yes"/>
      <point x="908" y="1371"/>
      <point x="813" y="1261"/>
      <point x="737" y="1242" type="curve"/>
      <point x="807" y="1213"/>
      <point x="883" y="1134"/>
      <point x="865" y="961" type="curve" smooth="yes"/>
      <point x="842" y="741"/>
      <point x="726" y="602"/>
    </contour>
  </outline>
</glyph>
<glyph name="acute" format="1">
  <advance width="591"/>
  <unicode hex="00B4"/>
  <outline>
    <contour>
      <point x="200" y="1252" type="line"/>
      <point x="319" y="1252" type="line"/>
      <point x="597" y="1658" type="line"/>
      <point x="361" y="1658" type="line"/>
    </contour>
  </outline>
</glyph>
<glyph name="mu" format="1">
  <advance width="915"/>
  <unicode hex="00B5"/>
  <outline>
    <contour>
      <point x="17" y="-360" type="line"/>
      <point x="255" y="-360" type="line"/>
      <point x="291" y="-10" type="line"/>
      <point x="300" y="-8"/>
      <point x="310" y="-6"/>
      <point x="320" y="-3" type="curve" smooth="yes"/>
      <point x="397" y="18"/>
      <point x="467" y="62"/>
      <point x="529" y="113" type="curve"/>
      <point x="517" y="0" type="line"/>
      <point x="753" y="0" type="line"/>
      <point x="877" y="1184" type="line"/>
      <point x="641" y="1184" type="line"/>
      <point x="541" y="233" type="line"/>
      <point x="492" y="198"/>
      <point x="440" y="170"/>
      <point x="396" y="170" type="curve" smooth="yes"/>
      <point x="319" y="170"/>
      <point x="312" y="221"/>
      <point x="320" y="296" type="curve" smooth="yes"/>
      <point x="413" y="1184" type="line"/>
      <point x="177" y="1184" type="line"/>
    </contour>
  </outline>
</glyph>
<glyph name="paragraph" format="1">
  <advance width="1011"/>
  <unicode hex="00B6"/>
  <outline>
    <contour>
      <point x="335" y="-196" type="line"/>
      <point x="503" y="-196" type="line"/>
      <point x="687" y="1549" type="line"/>
      <point x="830" y="1549" type="line"/>
      <point x="646" y="-196" type="line"/>
      <point x="814" y="-196" type="line"/>
      <point x="1009" y="1658" type="line"/>
      <point x="569" y="1658" type="line" smooth="yes"/>
      <point x="340" y="1658"/>
      <point x="183" y="1566"/>
      <point x="160" y="1351" type="curve" smooth="yes"/>
      <point x="139" y="1154"/>
      <point x="269" y="1048"/>
      <point x="466" y="1048" type="curve"/>
    </contour>
  </outline>
</glyph>
<glyph name="periodcentered" format="1">
  <advance width="354"/>
  <unicode hex="00B7"/>
  <outline>
    <contour>
      <point x="79" y="653" type="line"/>
      <point x="315" y="653" type="line"/>
      <point x="339" y="889" type="line"/>
      <point x="103" y="889" type="line"/>
    </contour>
  </outline>
</glyph>
<glyph name="cedilla" format="1">
  <advance width="532"/>
  <unicode hex="00B8"/>
  <outline>
    <contour>
      <point x="-40" y="-473" type="line"/>
      <point x="159" y="-535"/>
      <point x="382" y="-481"/>
      <point x="392" y="-296" type="curve" smooth="yes"/>
      <point x="397" y="-190"/>
      <point x="282" y="-136"/>
      <point x="175" y="-118" type="curve"/>
      <point x="187" y="0" type="line"/>
      <point x="68" y="0" type="line"/>
      <point x="49" y="-178" type="line"/>
      <point x="136" y="-201"/>
      <point x="225" y="-220"/>
      <point x="214" y="-300" type="curve" smooth="yes"/>
      <point x="204" y="-379"/>
      <point x="69" y="-386"/>
      <point x="-27" y="-355" type="curve"/>
    </contour>
  </outline>
</glyph>
<glyph name="uni00B9" format="1">
  <advance width="878"/>
  <unicode hex="00B9"/>
  <outline>
    <contour>
      <point x="427" y="612" type="line"/>
      <point x="529" y="1589" type="line"/>
      <point x="310" y="1552" type="line"/>
      <point x="324" y="1681" type="line"/>
      <point x="397" y="1699"/>
      <point x="524" y="1730"/>
      <point x="595" y="1810" type="curve"/>
      <point x="723" y="1810" type="line"/>
      <point x="598" y="612" type="line"/>
    </contour>
  </outline>
</glyph>
<glyph name="ordmasculine" format="1">
  <advance width="924"/>
  <unicode hex="00BA"/>
  <outline>
    <contour>
      <point x="494" y="821" type="curve" smooth="yes"/>
      <point x="374" y="821"/>
      <point x="384" y="938"/>
      <point x="397" y="1065" type="curve" smooth="yes"/>
      <point x="418" y="1264" type="line" smooth="yes"/>
      <point x="431" y="1391"/>
      <point x="446" y="1508"/>
      <point x="566" y="1508" type="curve" smooth="yes"/>
      <point x="689" y="1508"/>
      <point x="673" y="1393"/>
      <point x="660" y="1264" type="curve" smooth="yes"/>
      <point x="639" y="1065" type="line" smooth="yes"/>
      <point x="625" y="937"/>
      <point x="615" y="821"/>
    </contour>
    <contour>
      <point x="480" y="645" type="curve" smooth="yes"/>
      <point x="711" y="645"/>
      <point x="821" y="807"/>
      <point x="845" y="1038" type="curve" smooth="yes"/>
      <point x="872" y="1292" type="line" smooth="yes"/>
      <point x="896" y="1523"/>
      <point x="820" y="1684"/>
      <point x="589" y="1684" type="curve" smooth="yes"/>
      <point x="346" y="1684"/>
      <point x="249" y="1534"/>
      <point x="224" y="1292" type="curve" smooth="yes"/>
      <point x="197" y="1038" type="line" smooth="yes"/>
      <point x="172" y="796"/>
      <point x="237" y="645"/>
    </contour>
  </outline>
</glyph>
<glyph name="guillemotright" format="1">
  <advance width="1006"/>
  <unicode hex="00BB"/>
  <outline>
    <contour>
      <point x="75" y="60" type="line"/>
      <point x="480" y="533" type="line"/>
      <point x="492" y="651" type="line"/>
      <point x="187" y="1125" type="line"/>
      <point x="156" y="829" type="line"/>
      <point x="308" y="593" type="line"/>
      <point x="106" y="355" type="line"/>
    </contour>
    <contour>
      <point x="490" y="60" type="line"/>
      <point x="893" y="533" type="line"/>
      <point x="905" y="651" type="line"/>
      <point x="602" y="1125" type="line"/>
      <point x="571" y="829" type="line"/>
      <point x="722" y="593" type="line"/>
      <point x="521" y="355" type="line"/>
    </contour>
  </outline>
</glyph>
<glyph name="onequarter" format="1">
  <advance width="1666"/>
  <unicode hex="00BC"/>
  <outline>
    <contour>
      <point x="1207" y="2" type="line"/>
      <point x="1385" y="2" type="line"/>
      <point x="1410" y="238" type="line"/>
      <point x="1528" y="238" type="line"/>
      <point x="1541" y="357" type="line"/>
      <point x="1423" y="357" type="line"/>
      <point x="1478" y="889" type="line"/>
      <point x="1319" y="889" type="line"/>
      <point x="950" y="357" type="line"/>
      <point x="937" y="238" type="line"/>
      <point x="1232" y="238" type="line"/>
    </contour>
    <contour>
      <point x="275" y="830" type="line"/>
      <point x="452" y="830" type="line"/>
      <point x="539" y="1658" type="line"/>
      <point x="481" y="1658" type="line"/>
      <point x="411" y="1581"/>
      <point x="326" y="1528"/>
      <point x="226" y="1481" type="curve"/>
      <point x="213" y="1362" type="line"/>
      <point x="331" y="1362" type="line"/>
    </contour>
    <contour>
      <point x="357" y="0" type="line"/>
      <point x="553" y="0" type="line"/>
      <point x="1260" y="1658" type="line"/>
      <point x="1063" y="1658" type="line"/>
    </contour>
    <contour>
      <point x="1090" y="357" type="line"/>
      <point x="1275" y="644" type="line"/>
      <point x="1245" y="357" type="line"/>
    </contour>
  </outline>
</glyph>
<glyph name="onehalf" format="1">
  <advance width="1666"/>
  <unicode hex="00BD"/>
  <outline>
    <contour>
      <point x="995" y="3" type="line"/>
      <point x="1469" y="3" type="line"/>
      <point x="1482" y="121" type="line"/>
      <point x="1186" y="121" type="line"/>
      <point x="1221" y="163"/>
      <point x="1269" y="208"/>
      <point x="1318" y="257" type="curve" smooth="yes"/>
      <point x="1416" y="356"/>
      <point x="1518" y="468"/>
      <point x="1532" y="595" type="curve"/>
      <point x="1547" y="744"/>
      <point x="1471" y="832"/>
      <point x="1319" y="832" type="curve" smooth="yes"/>
      <point x="1172" y="832"/>
      <point x="1079" y="750"/>
      <point x="1059" y="609" type="curve" smooth="yes"/>
      <point x="1059" y="605"/>
      <point x="1058" y="600"/>
      <point x="1058" y="595" type="curve"/>
      <point x="1236" y="595" type="line"/>
      <point x="1242" y="655"/>
      <point x="1247" y="713"/>
      <point x="1307" y="713" type="curve" smooth="yes"/>
      <point x="1367" y="713"/>
      <point x="1361" y="655"/>
      <point x="1355" y="595" type="curve" smooth="yes"/>
      <point x="1344" y="494"/>
      <point x="1268" y="424"/>
      <point x="1211" y="358" type="curve" smooth="yes"/>
      <point x="1008" y="121" type="line"/>
    </contour>
    <contour>
      <point x="276" y="830" type="line"/>
      <point x="453" y="830" type="line"/>
      <point x="540" y="1658" type="line"/>
      <point x="481" y="1658" type="line"/>
      <point x="411" y="1581"/>
      <point x="326" y="1528"/>
      <point x="226" y="1481" type="curve"/>
      <point x="213" y="1362" type="line"/>
      <point x="332" y="1362" type="line"/>
    </contour>
    <contour>
      <point x="366" y="0" type="line"/>
      <point x="562" y="0" type="line"/>
      <point x="1269" y="1658" type="line"/>
      <point x="1072" y="1658" type="line"/>
    </contour>
  </outline>
</glyph>
<glyph name="threequarters" format="1">
  <advance width="1666"/>
  <unicode hex="00BE"/>
  <outline>
    <contour>
      <point x="376" y="849" type="curve" smooth="yes"/>
      <point x="528" y="849"/>
      <point x="621" y="937"/>
      <point x="637" y="1086" type="curve" smooth="yes"/>
      <point x="649" y="1203"/>
      <point x="583" y="1256"/>
      <point x="478" y="1263" type="curve"/>
      <point x="584" y="1267"/>
      <point x="662" y="1325"/>
      <point x="674" y="1440" type="curve" smooth="yes"/>
      <point x="690" y="1589"/>
      <point x="615" y="1678"/>
      <point x="463" y="1678" type="curve" smooth="yes"/>
      <point x="311" y="1678"/>
      <point x="217" y="1589"/>
      <point x="201" y="1440" type="curve"/>
      <point x="378" y="1440" type="line"/>
      <point x="385" y="1500"/>
      <point x="391" y="1559"/>
      <point x="451" y="1559" type="curve" smooth="yes"/>
      <point x="511" y="1559"/>
      <point x="503" y="1500"/>
      <point x="496" y="1440" type="curve" smooth="yes"/>
      <point x="487" y="1352"/>
      <point x="457" y="1322"/>
      <point x="366" y="1322" type="curve"/>
      <point x="354" y="1204" type="line"/>
      <point x="444" y="1204"/>
      <point x="468" y="1173"/>
      <point x="459" y="1086" type="curve" smooth="yes"/>
      <point x="453" y="1026"/>
      <point x="449" y="967"/>
      <point x="389" y="967" type="curve" smooth="yes"/>
      <point x="329" y="967"/>
      <point x="335" y="1026"/>
      <point x="341" y="1086" type="curve"/>
      <point x="164" y="1086" type="line"/>
      <point x="148" y="937"/>
      <point x="224" y="849"/>
    </contour>
    <contour>
      <point x="1270" y="2" type="line"/>
      <point x="1448" y="2" type="line"/>
      <point x="1473" y="238" type="line"/>
      <point x="1591" y="238" type="line"/>
      <point x="1604" y="357" type="line"/>
      <point x="1486" y="357" type="line"/>
      <point x="1541" y="889" type="line"/>
      <point x="1382" y="889" type="line"/>
      <point x="1013" y="357" type="line"/>
      <point x="1000" y="238" type="line"/>
      <point x="1295" y="238" type="line"/>
    </contour>
    <contour>
      <point x="437" y="0" type="line"/>
      <point x="633" y="0" type="line"/>
      <point x="1340" y="1658" type="line"/>
      <point x="1143" y="1658" type="line"/>
    </contour>
    <contour>
      <point x="1153" y="357" type="line"/>
      <point x="1338" y="644" type="line"/>
      <point x="1308" y="357" type="line"/>
    </contour>
  </outline>
</glyph>
<glyph name="questiondown" format="1">
  <advance width="1065"/>
  <unicode hex="00BF"/>
  <outline>
    <contour>
      <point x="484" y="-385" type="curve" smooth="yes"/>
      <point x="752" y="-385"/>
      <point x="938" y="-212"/>
      <point x="915" y="59" type="curve" smooth="yes"/>
      <point x="909" y="128" type="line"/>
      <point x="685" y="88" type="line"/>
      <point x="687" y="14" type="line"/>
      <point x="691" y="-96"/>
      <point x="630" y="-178"/>
      <point x="508" y="-178" type="curve" smooth="yes"/>
      <point x="390" y="-178"/>
      <point x="327" y="-84"/>
      <point x="339" y="34" type="curve" smooth="yes"/>
      <point x="365" y="274"/>
      <point x="570" y="456"/>
      <point x="767" y="624" type="curve"/>
      <point x="794" y="879" type="line"/>
      <point x="583" y="879" type="line"/>
      <point x="563" y="683" type="line"/>
      <point x="345" y="477"/>
      <point x="137" y="319"/>
      <point x="108" y="41" type="curve" smooth="yes"/>
      <point x="80" y="-227"/>
      <point x="213" y="-385"/>
    </contour>
    <contour>
      <point x="586" y="1058" type="line"/>
      <point x="823" y="1058" type="line"/>
      <point x="848" y="1295" type="line"/>
      <point x="611" y="1295" type="line"/>
    </contour>
  </outline>
</glyph>
<glyph name="AE" format="1">
  <advance width="1302"/>
  <unicode hex="00C6"/>
  <outline>
    <contour>
      <point x="-166" y="0" type="line"/>
      <point x="69" y="0" type="line"/>
      <point x="290" y="414" type="line"/>
      <point x="586" y="414" type="line"/>
      <point x="542" y="0" type="line"/>
      <point x="1193" y="0" type="line"/>
      <point x="1212" y="178" type="line"/>
      <point x="798" y="178" type="line"/>
      <point x="860" y="769" type="line"/>
      <point x="1156" y="769" type="line"/>
      <point x="1175" y="947" type="line"/>
      <point x="879" y="947" type="line"/>
      <point x="935" y="1480" type="line"/>
      <point x="1349" y="1480" type="line"/>
      <point x="1367" y="1658" type="line"/>
      <point x="715" y="1658" type="line"/>
    </contour>
    <contour>
      <point x="375" y="592" type="line"/>
      <point x="668" y="1200" type="line"/>
      <point x="604" y="592" type="line"/>
    </contour>
  </outline>
</glyph>
<glyph name="multiply" format="1">
  <advance width="799"/>
  <unicode hex="00D7"/>
  <outline>
    <contour>
      <point x="227" y="520" type="line"/>
      <point x="422" y="697" type="line"/>
      <point x="582" y="520" type="line"/>
      <point x="712" y="638" type="line"/>
      <point x="553" y="816" type="line"/>
      <point x="749" y="993" type="line"/>
      <point x="644" y="1112" type="line"/>
      <point x="447" y="935" type="line"/>
      <point x="289" y="1112" type="line"/>
      <point x="158" y="993" type="line"/>
      <point x="317" y="816" type="line"/>
      <point x="121" y="638" type="line"/>
    </contour>
  </outline>
</glyph>
<glyph name="Oslash" format="1">
  <advance width="1112"/>
  <unicode hex="00D8"/>
  <outline>
    <contour>
      <point x="222" y="-144" type="line"/>
      <point x="932" y="1776" type="line"/>
      <point x="848" y="1798" type="line"/>
      <point x="141" y="-118" type="line"/>
    </contour>
    <component base="O"/>
  </outline>
</glyph>
<glyph name="Thorn" format="1">
  <advance width="1030"/>
  <unicode hex="00DE"/>
  <outline>
    <contour>
      <point x="76" y="0" type="line"/>
      <point x="326" y="0" type="line"/>
      <point x="376" y="472" type="line"/>
      <point x="561" y="472" type="line" smooth="yes"/>
      <point x="853" y="472"/>
      <point x="1015" y="629"/>
      <point x="1049" y="955" type="curve" smooth="yes"/>
      <point x="1081" y="1255"/>
      <point x="978" y="1440"/>
      <point x="705" y="1440" type="curve" smooth="yes"/>
      <point x="477" y="1440" type="line"/>
      <point x="500" y="1658" type="line"/>
      <point x="250" y="1658" type="line"/>
    </contour>
    <contour>
      <point x="397" y="672" type="line"/>
      <point x="456" y="1234" type="line"/>
      <point x="607" y="1234" type="line" smooth="yes"/>
      <point x="778" y="1234"/>
      <point x="829" y="1162"/>
      <point x="808" y="957" type="curve" smooth="yes"/>
      <point x="784" y="730"/>
      <point x="697" y="672"/>
      <point x="518" y="672" type="curve" smooth="yes"/>
    </contour>
  </outline>
</glyph>
<glyph name="germandbls" format="1">
  <advance width="1065"/>
  <unicode hex="00DF"/>
  <outline>
    <contour>
      <point x="421" y="-17" type="line"/>
      <point x="747" y="-17"/>
      <point x="913" y="149"/>
      <point x="947" y="473" type="curve" smooth="yes"/>
      <point x="968" y="680"/>
      <point x="885" y="824"/>
      <point x="727" y="868" type="curve"/>
      <point x="867" y="941"/>
      <point x="948" y="1049"/>
      <point x="969" y="1243" type="curve" smooth="yes"/>
      <point x="998" y="1518"/>
      <point x="879" y="1674"/>
      <point x="599" y="1674" type="curve" smooth="yes"/>
      <point x="361" y="1674"/>
      <point x="225" y="1498"/>
      <point x="200" y="1253" type="curve" smooth="yes"/>
      <point x="68" y="0" type="line"/>
      <point x="304" y="0" type="line"/>
      <point x="436" y="1257" type="line" smooth="yes"/>
      <point x="449" y="1384"/>
      <point x="484" y="1480"/>
      <point x="609" y="1480" type="curve" smooth="yes"/>
      <point x="741" y="1480"/>
      <point x="752" y="1376"/>
      <point x="738" y="1243" type="curve" smooth="yes"/>
      <point x="722" y="1097"/>
      <point x="666" y="947"/>
      <point x="523" y="947" type="curve"/>
      <point x="502" y="751" type="line"/>
      <point x="663" y="751"/>
      <point x="728" y="642"/>
      <point x="711" y="473" type="curve" smooth="yes"/>
      <point x="690" y="273"/>
      <point x="639" y="178"/>
      <point x="442" y="178" type="curve"/>
    </contour>
  </outline>
</glyph>
<glyph name="ae" format="1">
  <advance width="1354"/>
  <unicode hex="00E6"/>
  <outline>
    <contour>
      <point x="274" y="-17" type="curve" smooth="yes"/>
      <point x="440" y="-30"/>
      <point x="549" y="86"/>
      <point x="625" y="225" type="curve"/>
      <point x="629" y="85"/>
      <point x="716" y="-17"/>
      <point x="865" y="-17" type="curve" smooth="yes"/>
      <point x="1102" y="-17"/>
      <point x="1224" y="127"/>
      <point x="1250" y="368" type="curve" smooth="yes"/>
      <point x="1255" y="414" type="line"/>
      <point x="1019" y="414" type="line"/>
      <point x="1014" y="368" type="line" smooth="yes"/>
      <point x="1003" y="270"/>
      <point x="981" y="171"/>
      <point x="886" y="171" type="curve" smooth="yes"/>
      <point x="752" y="171"/>
      <point x="792" y="395"/>
      <point x="806" y="533" type="curve" smooth="yes"/>
      <point x="810" y="572" type="line"/>
      <point x="944" y="595" type="line" smooth="yes"/>
      <point x="1095" y="621"/>
      <point x="1272" y="652"/>
      <point x="1290" y="828" type="curve" smooth="yes"/>
      <point x="1314" y="1056"/>
      <point x="1219" y="1200"/>
      <point x="994" y="1200" type="curve" smooth="yes"/>
      <point x="878" y="1200"/>
      <point x="792" y="1136"/>
      <point x="742" y="1060" type="curve"/>
      <point x="723" y="1149"/>
      <point x="637" y="1200"/>
      <point x="521" y="1200" type="curve" smooth="yes"/>
      <point x="297" y="1200"/>
      <point x="154" y="1052"/>
      <point x="127" y="829" type="curve"/>
      <point x="363" y="829" type="line"/>
      <point x="374" y="933"/>
      <point x="405" y="1018"/>
      <point x="502" y="1018" type="curve" smooth="yes"/>
      <point x="601" y="1018"/>
      <point x="611" y="934"/>
      <point x="600" y="829" type="curve" smooth="yes"/>
      <point x="583" y="670" type="line"/>
      <point x="422" y="630" type="line" smooth="yes"/>
      <point x="239" y="585"/>
      <point x="91" y="487"/>
      <point x="67" y="261" type="curve" smooth="yes"/>
      <point x="53" y="123"/>
      <point x="138" y="-6"/>
    </contour>
    <contour>
      <point x="393" y="168" type="curve" smooth="yes"/>
      <point x="337" y="168"/>
      <point x="300" y="226"/>
      <point x="309" y="315" type="curve" smooth="yes"/>
      <point x="320" y="419"/>
      <point x="394" y="474"/>
      <point x="481" y="508" type="curve" smooth="yes"/>
      <point x="510" y="520"/>
      <point x="540" y="529"/>
      <point x="569" y="536" type="curve"/>
      <point x="558" y="431" type="line" smooth="yes"/>
      <point x="540" y="261"/>
      <point x="465" y="168"/>
    </contour>
    <contour>
      <point x="823" y="699" type="line"/>
      <point x="836" y="818" type="line" smooth="yes"/>
      <point x="847" y="922"/>
      <point x="882" y="1007"/>
      <point x="974" y="1007" type="curve" smooth="yes"/>
      <point x="1062" y="1007"/>
      <point x="1084" y="937"/>
      <point x="1075" y="850" type="curve" smooth="yes"/>
      <point x="1065" y="748"/>
      <point x="1010" y="731"/>
      <point x="922" y="716" type="curve" smooth="yes"/>
    </contour>
  </outline>
</glyph>
<glyph name="eth" format="1">
  <advance width="978"/>
  <unicode hex="00F0"/>
  <outline>
    <contour>
      <point x="416" y="-17" type="curve" smooth="yes"/>
      <point x="707" y="-17"/>
      <point x="835" y="184"/>
      <point x="867" y="483" type="curve" smooth="yes"/>
      <point x="899" y="788" type="line" smooth="yes"/>
      <point x="920" y="993"/>
      <point x="883" y="1263"/>
      <point x="833" y="1394" type="curve"/>
      <point x="1028" y="1445" type="line"/>
      <point x="1040" y="1564" type="line"/>
      <point x="782" y="1490" type="line"/>
      <point x="705" y="1615"/>
      <point x="567" y="1674"/>
      <point x="293" y="1674" type="curve"/>
      <point x="267" y="1520" type="line"/>
      <point x="463" y="1520"/>
      <point x="541" y="1487"/>
      <point x="592" y="1430" type="curve"/>
      <point x="401" y="1377" type="line"/>
      <point x="388" y="1258" type="line"/>
      <point x="646" y="1337" type="line"/>
      <point x="678" y="1279"/>
      <point x="691" y="1174"/>
      <point x="689" y="1063" type="curve"/>
      <point x="656" y="1100"/>
      <point x="597" y="1140"/>
      <point x="498" y="1140" type="curve" smooth="yes"/>
      <point x="216" y="1140"/>
      <point x="148" y="886"/>
      <point x="118" y="595" type="curve"/>
      <point x="103" y="460" type="line"/>
      <point x="72" y="164"/>
      <point x="104" y="-17"/>
    </contour>
    <contour>
      <point x="443" y="169" type="curve" smooth="yes"/>
      <point x="263" y="169"/>
      <point x="333" y="395"/>
      <point x="353" y="591" type="curve" smooth="yes"/>
      <point x="378" y="828"/>
      <point x="420" y="947"/>
      <point x="538" y="947" type="curve" smooth="yes"/>
      <point x="628" y="947"/>
      <point x="662" y="892"/>
      <point x="672" y="875" type="curve"/>
      <point x="625" y="428" type="line" smooth="yes"/>
      <point x="610" y="284"/>
      <point x="584" y="169"/>
    </contour>
  </outline>
</glyph>
<glyph name="divide" format="1">
  <advance width="714"/>
  <unicode hex="00F7"/>
  <outline>
    <contour>
      <point x="248" y="341" type="line"/>
      <point x="434" y="341" type="line"/>
      <point x="459" y="578" type="line"/>
      <point x="273" y="578" type="line"/>
    </contour>
    <contour>
      <point x="63" y="754" type="line"/>
      <point x="709" y="754" type="line"/>
      <point x="727" y="924" type="line"/>
      <point x="81" y="924" type="line"/>
    </contour>
    <contour>
      <point x="325" y="1076" type="line"/>
      <point x="511" y="1076" type="line"/>
      <point x="536" y="1313" type="line"/>
      <point x="350" y="1313" type="line"/>
    </contour>
  </outline>
</glyph>
<glyph name="oslash" format="1">
  <advance width="881"/>
  <unicode hex="00F8"/>
  <outline>
    <contour>
      <point x="80" y="-205" type="line"/>
      <point x="804" y="1353" type="line"/>
      <point x="726" y="1379" type="line"/>
      <point x="14" y="-182" type="line"/>
    </contour>
    <component base="o"/>
  </outline>
</glyph>
<glyph name="thorn" format="1">
  <advance width="931"/>
  <unicode hex="00FE"/>
  <outline>
    <contour>
      <point x="21" y="-390" type="line"/>
      <point x="257" y="-390" type="line"/>
      <point x="307" y="87" type="line"/>
      <point x="353" y="31"/>
      <point x="414" y="-17"/>
      <point x="495" y="-17" type="curve" smooth="yes"/>
      <point x="731" y="-17"/>
      <point x="817" y="226"/>
      <point x="842" y="466" type="curve" smooth="yes"/>
      <point x="873" y="761" type="line" smooth="yes"/>
      <point x="885" y="879"/>
      <point x="900" y="1200"/>
      <point x="649" y="1200" type="curve" smooth="yes"/>
      <point x="549" y="1200"/>
      <point x="472" y="1150"/>
      <point x="413" y="1090" type="curve"/>
      <point x="472" y="1658" type="line"/>
      <point x="236" y="1658" type="line"/>
    </contour>
    <contour>
      <point x="466" y="170" type="curve" smooth="yes"/>
      <point x="404" y="170"/>
      <point x="357" y="189"/>
      <point x="320" y="214" type="curve"/>
      <point x="399" y="961" type="line"/>
      <point x="441" y="990"/>
      <point x="492" y="1014"/>
      <point x="545" y="1014" type="curve" smooth="yes"/>
      <point x="652" y="1014"/>
      <point x="650" y="889"/>
      <point x="637" y="761" type="curve" smooth="yes"/>
      <point x="606" y="465" type="line" smooth="yes"/>
      <point x="590" y="310"/>
      <point x="573" y="170"/>
    </contour>
  </outline>
</glyph>
<glyph name="Dcroat" format="1">
  <advance width="1087"/>
  <unicode hex="0110"/>
  <outline>
    <contour>
      <point x="350" y="178" type="line"/>
      <point x="414" y="788" type="line"/>
      <point x="527" y="788" type="line"/>
      <point x="542" y="929" type="line"/>
      <point x="429" y="929" type="line"/>
      <point x="486" y="1474" type="line"/>
      <point x="591" y="1474" type="line" smooth="yes"/>
      <point x="826" y="1474"/>
      <point x="833" y="1374"/>
      <point x="807" y="1118" type="curve"/>
      <point x="752" y="598" type="line" smooth="yes"/>
      <point x="723" y="324"/>
      <point x="710" y="178"/>
      <point x="460" y="178" type="curve" smooth="yes"/>
    </contour>
    <contour>
      <point x="81" y="0" type="line"/>
      <point x="459" y="0" type="line" smooth="yes"/>
      <point x="812" y="0"/>
      <point x="961" y="187"/>
      <point x="999" y="549" type="curve" smooth="yes"/>
      <point x="1062" y="1147" type="line" smooth="yes"/>
      <point x="1098" y="1495"/>
      <point x="990" y="1658"/>
      <point x="615" y="1658" type="curve" smooth="yes"/>
      <point x="255" y="1658" type="line"/>
      <point x="179" y="929" type="line"/>
      <point x="84" y="929" type="line"/>
      <point x="69" y="788" type="line"/>
      <point x="164" y="788" type="line"/>
    </contour>
  </outline>
</glyph>
<glyph name="gcommaaccent" format="1">
  <advance width="899"/>
  <unicode hex="0123"/>
  <outline>
    <contour>
      <point x="417" y="-354" type="curve" smooth="yes"/>
      <point x="240" y="-354"/>
      <point x="-57" y="-353"/>
      <point x="-39" y="-181" type="curve" smooth="yes"/>
      <point x="-25" y="-48"/>
      <point x="69" y="37"/>
      <point x="167" y="83" type="curve"/>
      <point x="113" y="98"/>
      <point x="54" y="130"/>
      <point x="60" y="186" type="curve" smooth="yes"/>
      <point x="69" y="275"/>
      <point x="155" y="361"/>
      <point x="202" y="414" type="curve"/>
      <point x="138" y="501"/>
      <point x="105" y="621"/>
      <point x="121" y="769" type="curve" smooth="yes"/>
      <point x="146" y="1011"/>
      <point x="286" y="1200"/>
      <point x="521" y="1200" type="curve" smooth="yes"/>
      <point x="657" y="1200"/>
      <point x="716" y="1145"/>
      <point x="763" y="1061" type="curve"/>
      <point x="809" y="1133"/>
      <point x="883" y="1200"/>
      <point x="995" y="1200" type="curve"/>
      <point x="975" y="1007" type="line"/>
      <point x="907" y="1007"/>
      <point x="856" y="980"/>
      <point x="820" y="947" type="curve"/>
      <point x="831" y="901"/>
      <point x="839" y="839"/>
      <point x="832" y="769" type="curve" smooth="yes"/>
      <point x="806" y="527"/>
      <point x="672" y="340"/>
      <point x="431" y="340" type="curve" smooth="yes"/>
      <point x="405" y="340"/>
      <point x="379" y="343"/>
      <point x="356" y="347" type="curve"/>
      <point x="312" y="347" type="line"/>
      <point x="299" y="327"/>
      <point x="275" y="307"/>
      <point x="272" y="279" type="curve" smooth="yes"/>
      <point x="256" y="122"/>
      <point x="898" y="272"/>
      <point x="863" y="-60" type="curve" smooth="yes"/>
      <point x="839" y="-281"/>
      <point x="634" y="-354"/>
    </contour>
    <contour>
      <point x="435" y="-180" type="curve" smooth="yes"/>
      <point x="519" y="-180"/>
      <point x="644" y="-175"/>
      <point x="652" y="-92" type="curve" smooth="yes"/>
      <point x="653" y="-82"/>
      <point x="654" y="-71"/>
      <point x="652" y="-61" type="curve"/>
      <point x="648" y="-15"/>
      <point x="590" y="15"/>
      <point x="475" y="29" type="curve" smooth="yes"/>
      <point x="282" y="53" type="line"/>
      <point x="234" y="21"/>
      <point x="184" y="-50"/>
      <point x="176" y="-125" type="curve" smooth="yes"/>
      <point x="168" y="-196"/>
      <point x="362" y="-180"/>
    </contour>
    <contour>
      <point x="427" y="1274" type="line"/>
      <point x="450" y="1497"/>
      <point x="440" y="1748"/>
      <point x="655" y="1748" type="curve"/>
      <point x="701" y="1629" type="line"/>
      <point x="615" y="1629"/>
      <point x="578" y="1593"/>
      <point x="570" y="1510" type="curve"/>
      <point x="689" y="1510" type="line"/>
      <point x="664" y="1274" type="line"/>
    </contour>
    <contour>
      <point x="449" y="518" type="curve" smooth="yes"/>
      <point x="570" y="518"/>
      <point x="611" y="648"/>
      <point x="624" y="769" type="curve" smooth="yes"/>
      <point x="637" y="891"/>
      <point x="624" y="1036"/>
      <point x="504" y="1036" type="curve" smooth="yes"/>
      <point x="382" y="1036"/>
      <point x="341" y="891"/>
      <point x="328" y="769" type="curve" smooth="yes"/>
      <point x="315" y="648"/>
      <point x="329" y="518"/>
    </contour>
  </outline>
</glyph>
<glyph name="Hbar" format="1">
  <advance width="1154"/>
  <unicode hex="0126"/>
  <outline>
    <contour>
      <point x="76" y="0" type="line"/>
      <point x="326" y="0" type="line"/>
      <point x="407" y="769" type="line"/>
      <point x="809" y="769" type="line"/>
      <point x="728" y="0" type="line"/>
      <point x="978" y="0" type="line"/>
      <point x="1110" y="1260" type="line"/>
      <point x="1210" y="1260" type="line"/>
      <point x="1224" y="1388" type="line"/>
      <point x="1124" y="1388" type="line"/>
      <point x="1152" y="1658" type="line"/>
      <point x="902" y="1658" type="line"/>
      <point x="874" y="1388" type="line"/>
      <point x="472" y="1388" type="line"/>
      <point x="500" y="1658" type="line"/>
      <point x="250" y="1658" type="line"/>
      <point x="222" y="1388" type="line"/>
      <point x="122" y="1388" type="line"/>
      <point x="108" y="1260" type="line"/>
      <point x="208" y="1260" type="line"/>
    </contour>
    <contour>
      <point x="426" y="947" type="line"/>
      <point x="458" y="1260" type="line"/>
      <point x="860" y="1260" type="line"/>
      <point x="828" y="947" type="line"/>
    </contour>
  </outline>
</glyph>
<glyph name="hbar" format="1">
  <advance width="929"/>
  <unicode hex="0127"/>
  <outline>
    <contour>
      <point x="66" y="0" type="line"/>
      <point x="302" y="0" type="line"/>
      <point x="401" y="944" type="line"/>
      <point x="453" y="982"/>
      <point x="511" y="1014"/>
      <point x="558" y="1014" type="curve" smooth="yes"/>
      <point x="635" y="1014"/>
      <point x="641" y="963"/>
      <point x="633" y="888" type="curve" smooth="yes"/>
      <point x="540" y="0" type="line"/>
      <point x="776" y="0" type="line"/>
      <point x="877" y="960" type="line" smooth="yes"/>
      <point x="888" y="1064"/>
      <point x="873" y="1200"/>
      <point x="727" y="1200" type="curve" smooth="yes"/>
      <point x="606" y="1200"/>
      <point x="502" y="1136"/>
      <point x="414" y="1062" type="curve"/>
      <point x="450" y="1411" type="line"/>
      <point x="701" y="1411" type="line"/>
      <point x="715" y="1542" type="line"/>
      <point x="464" y="1542" type="line"/>
      <point x="476" y="1658" type="line"/>
      <point x="240" y="1658" type="line"/>
      <point x="228" y="1542" type="line"/>
      <point x="100" y="1542" type="line"/>
      <point x="86" y="1411" type="line"/>
      <point x="214" y="1411" type="line"/>
    </contour>
  </outline>
</glyph>
<glyph name="IJ" format="1">
  <advance width="1093"/>
  <unicode hex="0132"/>
  <outline>
    <contour>
      <point x="463" y="-31" type="line"/>
      <point x="481" y="147" type="line"/>
      <point x="675" y="147"/>
      <point x="723" y="190"/>
      <point x="744" y="389" type="curve" smooth="yes"/>
      <point x="877" y="1658" type="line"/>
      <point x="1127" y="1658" type="line"/>
      <point x="994" y="386" type="line"/>
      <point x="963" y="101"/>
      <point x="869" y="-31"/>
      <point x="581" y="-31" type="curve" smooth="yes"/>
    </contour>
    <contour>
      <point x="89" y="0" type="line"/>
      <point x="263" y="1658" type="line"/>
      <point x="508" y="1658" type="line"/>
      <point x="334" y="0" type="line"/>
    </contour>
  </outline>
</glyph>
<glyph name="kgreenlandic" format="1">
  <advance width="887"/>
  <unicode hex="0138"/>
  <outline>
    <contour>
      <point x="69" y="0" type="line"/>
      <point x="305" y="0" type="line"/>
      <point x="348" y="405" type="line"/>
      <point x="474" y="572" type="line"/>
      <point x="601" y="0" type="line"/>
      <point x="838" y="0" type="line"/>
      <point x="650" y="734" type="line"/>
      <point x="962" y="1184" type="line"/>
      <point x="725" y="1184" type="line"/>
      <point x="376" y="679" type="line"/>
      <point x="429" y="1184" type="line"/>
      <point x="193" y="1184" type="line"/>
    </contour>
  </outline>
</glyph>
<glyph name="Lslash" format="1">
  <advance width="821"/>
  <unicode hex="0141"/>
  <outline>
    <contour>
      <point x="76" y="0" type="line"/>
      <point x="737" y="0" type="line"/>
      <point x="756" y="178" type="line"/>
      <point x="345" y="178" type="line"/>
      <point x="421" y="902" type="line"/>
      <point x="643" y="1019" type="line"/>
      <point x="663" y="1210" type="line"/>
      <point x="441" y="1093" type="line"/>
      <point x="500" y="1658" type="line"/>
      <point x="250" y="1658" type="line"/>
      <point x="176" y="954" type="line"/>
      <point x="27" y="875" type="line"/>
      <point x="7" y="684" type="line"/>
      <point x="156" y="763" type="line"/>
    </contour>
  </outline>
</glyph>
<glyph name="lslash" format="1">
  <advance width="553"/>
  <unicode hex="0142"/>
  <outline>
    <contour>
      <point x="120" y="0" type="line"/>
      <point x="356" y="0" type="line"/>
      <point x="455" y="946" type="line"/>
      <point x="588" y="1005" type="line"/>
      <point x="607" y="1186" type="line"/>
      <point x="475" y="1128" type="line"/>
      <point x="530" y="1658" type="line"/>
      <point x="294" y="1658" type="line"/>
      <point x="227" y="1019" type="line"/>
      <point x="79" y="954" type="line"/>
      <point x="60" y="771" type="line"/>
      <point x="208" y="837" type="line"/>
    </contour>
  </outline>
</glyph>
<glyph name="Eng" format="1">
  <advance width="1085"/>
  <unicode hex="014A"/>
  <outline>
    <contour>
      <point x="449" y="-389" type="line"/>
      <point x="531" y="-389" type="line" smooth="yes"/>
      <point x="803" y="-389"/>
      <point x="882" y="-254"/>
      <point x="909" y="0" type="curve" smooth="yes"/>
      <point x="1083" y="1658" type="line"/>
      <point x="888" y="1658" type="line"/>
      <point x="777" y="604" type="line"/>
      <point x="418" y="1658" type="line"/>
      <point x="250" y="1658" type="line"/>
      <point x="76" y="0" type="line"/>
      <point x="273" y="0" type="line"/>
      <point x="388" y="1091" type="line"/>
      <point x="722" y="97" type="line"/>
      <point x="715" y="26" type="line"/>
      <point x="695" y="-158"/>
      <point x="678" y="-219"/>
      <point x="467" y="-219" type="curve"/>
    </contour>
  </outline>
</glyph>
<glyph name="eng" format="1">
  <advance width="794"/>
  <unicode hex="014B"/>
  <outline>
    <contour>
      <point x="221" y="-386" type="line"/>
      <point x="292" y="-386" type="line" smooth="yes"/>
      <point x="535" y="-386"/>
      <point x="713" y="-255"/>
      <point x="739" y="-12" type="curve" smooth="yes"/>
      <point x="841" y="960" type="line" smooth="yes"/>
      <point x="852" y="1064"/>
      <point x="837" y="1200"/>
      <point x="691" y="1200" type="curve" smooth="yes"/>
      <point x="574" y="1200"/>
      <point x="473" y="1140"/>
      <point x="386" y="1069" type="curve"/>
      <point x="398" y="1184" type="line"/>
      <point x="162" y="1184" type="line"/>
      <point x="38" y="0" type="line"/>
      <point x="274" y="0" type="line"/>
      <point x="374" y="950" type="line"/>
      <point x="423" y="985"/>
      <point x="477" y="1014"/>
      <point x="522" y="1014" type="curve" smooth="yes"/>
      <point x="599" y="1014"/>
      <point x="605" y="963"/>
      <point x="597" y="888" type="curve" smooth="yes"/>
      <point x="503" y="-10" type="line" smooth="yes"/>
      <point x="489" y="-146"/>
      <point x="444" y="-208"/>
      <point x="240" y="-208" type="curve"/>
    </contour>
  </outline>
</glyph>
<glyph name="OE" format="1">
  <advance width="1419"/>
  <unicode hex="0152"/>
  <outline>
    <contour>
      <point x="546" y="0" type="curve" smooth="yes"/>
      <point x="1314" y="0" type="line"/>
      <point x="1333" y="178" type="line"/>
      <point x="925" y="178" type="line"/>
      <point x="987" y="767" type="line"/>
      <point x="1314" y="767" type="line"/>
      <point x="1332" y="945" type="line"/>
      <point x="1005" y="945" type="line"/>
      <point x="1061" y="1474" type="line"/>
      <point x="1464" y="1474" type="line"/>
      <point x="1483" y="1658" type="line"/>
      <point x="702" y="1658" type="line" smooth="yes"/>
      <point x="349" y="1658"/>
      <point x="201" y="1471"/>
      <point x="163" y="1109" type="curve" smooth="yes"/>
      <point x="100" y="511" type="line" smooth="yes"/>
      <point x="63" y="163"/>
      <point x="171" y="0"/>
    </contour>
    <contour>
      <point x="570" y="184" type="line" smooth="yes"/>
      <point x="335" y="184"/>
      <point x="328" y="284"/>
      <point x="355" y="540" type="curve" smooth="yes"/>
      <point x="409" y="1060" type="line" smooth="yes"/>
      <point x="438" y="1334"/>
      <point x="452" y="1480"/>
      <point x="702" y="1480" type="curve" smooth="yes"/>
      <point x="812" y="1480" type="line"/>
      <point x="675" y="184" type="line"/>
    </contour>
  </outline>
</glyph>
<glyph name="oe" format="1">
  <advance width="1420"/>
  <unicode hex="0153"/>
  <outline>
    <contour>
      <point x="421" y="-17" type="curve" smooth="yes"/>
      <point x="543" y="-17"/>
      <point x="625" y="39"/>
      <point x="673" y="118" type="curve"/>
      <point x="705" y="39"/>
      <point x="774" y="-12"/>
      <point x="895" y="-17" type="curve" smooth="yes"/>
      <point x="1136" y="-26"/>
      <point x="1261" y="88"/>
      <point x="1287" y="336" type="curve"/>
      <point x="1296" y="414" type="line"/>
      <point x="1060" y="414" type="line"/>
      <point x="1051" y="335" type="line"/>
      <point x="1039" y="220"/>
      <point x="1007" y="172"/>
      <point x="916" y="178" type="curve" smooth="yes"/>
      <point x="784" y="187"/>
      <point x="821" y="396"/>
      <point x="835" y="533" type="curve" smooth="yes"/>
      <point x="841" y="592" type="line"/>
      <point x="1314" y="592" type="line"/>
      <point x="1325" y="690" type="line"/>
      <point x="1358" y="1010"/>
      <point x="1324" y="1200"/>
      <point x="1033" y="1200" type="curve" smooth="yes"/>
      <point x="912" y="1200"/>
      <point x="820" y="1145"/>
      <point x="773" y="1066" type="curve"/>
      <point x="739" y="1144"/>
      <point x="671" y="1200"/>
      <point x="549" y="1200" type="curve" smooth="yes"/>
      <point x="282" y="1200"/>
      <point x="176" y="1031"/>
      <point x="149" y="769" type="curve" smooth="yes"/>
      <point x="112" y="414" type="line" smooth="yes"/>
      <point x="84" y="152"/>
      <point x="154" y="-17"/>
    </contour>
    <contour>
      <point x="442" y="178" type="curve" smooth="yes"/>
      <point x="324" y="178"/>
      <point x="336" y="296"/>
      <point x="349" y="414" type="curve" smooth="yes"/>
      <point x="386" y="769" type="line" smooth="yes"/>
      <point x="398" y="887"/>
      <point x="411" y="1007"/>
      <point x="529" y="1007" type="curve" smooth="yes"/>
      <point x="647" y="1007"/>
      <point x="635" y="887"/>
      <point x="623" y="769" type="curve" smooth="yes"/>
      <point x="586" y="414" type="line" smooth="yes"/>
      <point x="573" y="296"/>
      <point x="560" y="178"/>
    </contour>
    <contour>
      <point x="854" y="711" type="line"/>
      <point x="857" y="741" type="line" smooth="yes"/>
      <point x="869" y="860"/>
      <point x="892" y="1007"/>
      <point x="1004" y="1007" type="curve" smooth="yes"/>
      <point x="1116" y="1007"/>
      <point x="1106" y="861"/>
      <point x="1094" y="741" type="curve" smooth="yes"/>
      <point x="1091" y="711" type="line"/>
    </contour>
  </outline>
</glyph>
<glyph name="Tbar" format="1">
  <advance width="826"/>
  <unicode hex="0166"/>
  <outline>
    <contour>
      <point x="67" y="793" type="line"/>
      <point x="726" y="793" type="line"/>
      <point x="741" y="933" type="line"/>
      <point x="82" y="933" type="line"/>
    </contour>
    <component base="T"/>
  </outline>
</glyph>
<glyph name="tbar" format="1">
  <advance width="500"/>
  <unicode hex="0167"/>
  <outline>
    <contour>
      <point x="75" y="690" type="line"/>
      <point x="635" y="690" type="line"/>
      <point x="647" y="809" type="line"/>
      <point x="87" y="809" type="line"/>
    </contour>
    <component base="t"/>
  </outline>
</glyph>
<glyph name="florin" format="1">
  <advance width="781"/>
  <unicode hex="0192"/>
  <outline>
    <contour>
      <point x="71" y="-237" type="curve" smooth="yes"/>
      <point x="299" y="-237"/>
      <point x="365" y="-108"/>
      <point x="411" y="118" type="curve" smooth="yes"/>
      <point x="592" y="1007" type="line"/>
      <point x="763" y="1007" type="line"/>
      <point x="781" y="1184" type="line"/>
      <point x="628" y="1184" type="line"/>
      <point x="646" y="1273" type="line" smooth="yes"/>
      <point x="664" y="1358"/>
      <point x="690" y="1421"/>
      <point x="775" y="1421" type="curve" smooth="yes"/>
      <point x="798" y="1421"/>
      <point x="829" y="1413"/>
      <point x="852" y="1411" type="curve"/>
      <point x="888" y="1587" type="line"/>
      <point x="830" y="1594"/>
      <point x="802" y="1598"/>
      <point x="744" y="1598" type="curve" smooth="yes"/>
      <point x="517" y="1598"/>
      <point x="449" y="1467"/>
      <point x="404" y="1243" type="curve" smooth="yes"/>
      <point x="392" y="1184" type="line"/>
      <point x="243" y="1184" type="line"/>
      <point x="225" y="1007" type="line"/>
      <point x="356" y="1007" type="line"/>
      <point x="169" y="89" type="line" smooth="yes"/>
      <point x="151" y="4"/>
      <point x="126" y="-60"/>
      <point x="41" y="-60" type="curve" smooth="yes"/>
      <point x="19" y="-60"/>
      <point x="-16" y="-54"/>
      <point x="-37" y="-50" type="curve"/>
      <point x="-73" y="-226" type="line"/>
      <point x="-14" y="-233"/>
      <point x="13" y="-237"/>
    </contour>
  </outline>
</glyph>
<glyph name="uni0237" format="1">
  <advance width="480"/>
  <unicode hex="0237"/>
  <outline>
    <contour>
      <point x="-122" y="-311" type="line"/>
      <point x="-92" y="-323"/>
      <point x="-44" y="-326"/>
      <point x="-4" y="-326" type="curve" smooth="yes"/>
      <point x="178" y="-326"/>
      <point x="301" y="-220"/>
      <point x="320" y="-36" type="curve" smooth="yes"/>
      <point x="448" y="1184" type="line"/>
      <point x="212" y="1184" type="line"/>
      <point x="87" y="-11" type="line" smooth="yes"/>
      <point x="78" y="-94"/>
      <point x="40" y="-148"/>
      <point x="-46" y="-148" type="curve" smooth="yes"/>
      <point x="-63" y="-148"/>
      <point x="-90" y="-145"/>
      <point x="-104" y="-142" type="curve"/>
    </contour>
  </outline>
</glyph>
<glyph name="circumflex" format="1">
  <advance width="709"/>
  <unicode hex="02C6"/>
  <outline>
    <contour>
      <point x="144" y="1272" type="line"/>
      <point x="321" y="1272" type="line"/>
      <point x="467" y="1540" type="line"/>
      <point x="557" y="1272" type="line"/>
      <point x="735" y="1272" type="line"/>
      <point x="597" y="1658" type="line"/>
      <point x="361" y="1658" type="line"/>
    </contour>
  </outline>
</glyph>
<glyph name="breve" format="1">
  <advance width="709"/>
  <unicode hex="02D8"/>
  <outline>
    <contour>
      <point x="446" y="1342" type="curve" smooth="yes"/>
      <point x="678" y="1342"/>
      <point x="737" y="1484"/>
      <point x="755" y="1658" type="curve"/>
      <point x="617" y="1658" type="line"/>
      <point x="603" y="1527"/>
      <point x="565" y="1474"/>
      <point x="460" y="1474" type="curve" smooth="yes"/>
      <point x="355" y="1474"/>
      <point x="327" y="1526"/>
      <point x="341" y="1658" type="curve"/>
      <point x="204" y="1658" type="line"/>
      <point x="186" y="1485"/>
      <point x="217" y="1342"/>
    </contour>
  </outline>
</glyph>
<glyph name="ogonek" format="1">
  <advance width="496"/>
  <unicode hex="02DB"/>
  <outline>
    <contour>
      <point x="230" y="-475" type="curve"/>
      <point x="285" y="-356" type="line"/>
      <point x="205" y="-356"/>
      <point x="44" y="-387"/>
      <point x="54" y="-293" type="curve" smooth="yes"/>
      <point x="65" y="-188"/>
      <point x="199" y="-65"/>
      <point x="264" y="8" type="curve"/>
      <point x="145" y="8" type="line"/>
      <point x="34" y="-23"/>
      <point x="-109" y="-158"/>
      <point x="-123" y="-297" type="curve" smooth="yes"/>
      <point x="-141" y="-469"/>
      <point x="13" y="-475"/>
    </contour>
  </outline>
</glyph>
<glyph name="hungarumlaut" format="1">
  <advance width="591"/>
  <unicode hex="02DD"/>
  <outline>
    <contour>
      <point x="289" y="1302" type="line"/>
      <point x="407" y="1302" type="line"/>
      <point x="597" y="1658" type="line"/>
      <point x="407" y="1658" type="line"/>
    </contour>
    <contour>
      <point x="560" y="1302" type="line"/>
      <point x="679" y="1302" type="line"/>
      <point x="953" y="1658" type="line"/>
      <point x="716" y="1658" type="line"/>
    </contour>
  </outline>
</glyph>
<glyph name="gravecomb" format="1">
  <advance width="0"/>
  <unicode hex="0300"/>
  <outline>
    <contour>
      <point x="219" y="1252" type="line"/>
      <point x="337" y="1252" type="line"/>
      <point x="261" y="1658" type="line"/>
      <point x="24" y="1658" type="line"/>
    </contour>
  </outline>
</glyph>
<glyph name="acutecomb" format="1">
  <advance width="0"/>
  <unicode hex="0301"/>
  <outline>
    <contour>
      <point x="23" y="1252" type="line"/>
      <point x="142" y="1252" type="line"/>
      <point x="420" y="1658" type="line"/>
      <point x="184" y="1658" type="line"/>
    </contour>
  </outline>
</glyph>
<glyph name="uni0302" format="1">
  <advance width="709"/>
  <unicode hex="0302"/>
  <outline>
    <contour>
      <point x="147" y="1302" type="line"/>
      <point x="324" y="1302" type="line"/>
      <point x="467" y="1540" type="line"/>
      <point x="560" y="1302" type="line"/>
      <point x="738" y="1302" type="line"/>
      <point x="597" y="1658" type="line"/>
      <point x="361" y="1658" type="line"/>
    </contour>
  </outline>
</glyph>
<glyph name="tildecomb" format="1">
  <advance width="887"/>
  <unicode hex="0303"/>
  <outline>
    <contour>
      <point x="686" y="1423" type="curve" smooth="yes"/>
      <point x="822" y="1423"/>
      <point x="870" y="1523"/>
      <point x="884" y="1658" type="curve"/>
      <point x="752" y="1658" type="line"/>
      <point x="746" y="1594"/>
      <point x="732" y="1574"/>
      <point x="701" y="1574" type="curve" smooth="yes"/>
      <point x="648" y="1574"/>
      <point x="534" y="1674"/>
      <point x="434" y="1674" type="curve" smooth="yes"/>
      <point x="298" y="1674"/>
      <point x="243" y="1576"/>
      <point x="229" y="1442" type="curve"/>
      <point x="362" y="1442" type="line"/>
      <point x="368" y="1502"/>
      <point x="385" y="1525"/>
      <point x="418" y="1525" type="curve" smooth="yes"/>
      <point x="484" y="1525"/>
      <point x="586" y="1423"/>
    </contour>
  </outline>
</glyph>
<glyph name="uni0304" format="1">
  <advance width="591"/>
  <unicode hex="0304"/>
  <outline>
    <contour>
      <point x="223" y="1517" type="line"/>
      <point x="624" y="1517" type="line"/>
      <point x="639" y="1658" type="line"/>
      <point x="238" y="1658" type="line"/>
    </contour>
  </outline>
</glyph>
<glyph name="uni0307" format="1">
  <advance width="0"/>
  <unicode hex="0307"/>
  <outline>
    <contour>
      <point x="13" y="1410" type="line"/>
      <point x="249" y="1410" type="line"/>
      <point x="275" y="1658" type="line"/>
      <point x="39" y="1658" type="line"/>
    </contour>
  </outline>
</glyph>
<glyph name="uni030A" format="1">
  <advance width="591"/>
  <unicode hex="030A"/>
  <outline>
    <contour>
      <point x="385" y="1323" type="curve" smooth="yes"/>
      <point x="310" y="1323"/>
      <point x="272" y="1369"/>
      <point x="280" y="1442" type="curve" smooth="yes"/>
      <point x="287" y="1515"/>
      <point x="335" y="1560"/>
      <point x="410" y="1560" type="curve" smooth="yes"/>
      <point x="484" y="1560"/>
      <point x="523" y="1515"/>
      <point x="516" y="1442" type="curve" smooth="yes"/>
      <point x="508" y="1369"/>
      <point x="459" y="1323"/>
    </contour>
    <contour>
      <point x="373" y="1204" type="curve" smooth="yes"/>
      <point x="517" y="1204"/>
      <point x="620" y="1300"/>
      <point x="635" y="1442" type="curve" smooth="yes"/>
      <point x="649" y="1584"/>
      <point x="567" y="1678"/>
      <point x="422" y="1678" type="curve" smooth="yes"/>
      <point x="278" y="1678"/>
      <point x="176" y="1584"/>
      <point x="162" y="1442" type="curve" smooth="yes"/>
      <point x="147" y="1300"/>
      <point x="228" y="1204"/>
    </contour>
  </outline>
</glyph>
<glyph name="uni030C" format="1">
  <advance width="0"/>
  <unicode hex="030C"/>
  <outline>
    <contour>
      <point x="61" y="1302" type="line"/>
      <point x="297" y="1302" type="line"/>
      <point x="512" y="1658" type="line"/>
      <point x="334" y="1658" type="line"/>
      <point x="191" y="1421" type="line"/>
      <point x="98" y="1658" type="line"/>
      <point x="-79" y="1658" type="line"/>
    </contour>
  </outline>
</glyph>
<glyph name="uni030F" format="1">
  <advance width="591"/>
  <unicode hex="030F"/>
  <outline>
    <contour>
      <point x="331" y="1302" type="line"/>
      <point x="449" y="1302" type="line"/>
      <point x="368" y="1658" type="line"/>
      <point x="131" y="1658" type="line"/>
    </contour>
    <contour>
      <point x="603" y="1302" type="line"/>
      <point x="722" y="1302" type="line"/>
      <point x="677" y="1658" type="line"/>
      <point x="486" y="1658" type="line"/>
    </contour>
  </outline>
</glyph>
<glyph name="uni0311" format="1">
  <advance width="709"/>
  <unicode hex="0311"/>
  <outline>
    <contour>
      <point x="170" y="1342" type="curve"/>
      <point x="308" y="1342" type="line"/>
      <point x="322" y="1473"/>
      <point x="360" y="1526"/>
      <point x="465" y="1526" type="curve" smooth="yes"/>
      <point x="570" y="1526"/>
      <point x="598" y="1474"/>
      <point x="584" y="1342" type="curve"/>
      <point x="721" y="1342" type="line"/>
      <point x="739" y="1515"/>
      <point x="708" y="1658"/>
      <point x="479" y="1658" type="curve" smooth="yes"/>
      <point x="247" y="1658"/>
      <point x="188" y="1516"/>
    </contour>
  </outline>
</glyph>
<glyph name="uni0326" format="1">
  <advance width="304"/>
  <unicode hex="0326"/>
  <outline>
    <contour>
      <point x="-13" y="-547" type="line"/>
      <point x="136" y="-547"/>
      <point x="171" y="-446"/>
      <point x="188" y="-297" type="curve" smooth="yes"/>
      <point x="213" y="-73" type="line"/>
      <point x="-24" y="-73" type="line"/>
      <point x="-49" y="-310" type="line"/>
      <point x="69" y="-310" type="line"/>
      <point x="61" y="-393"/>
      <point x="25" y="-428"/>
      <point x="-61" y="-428" type="curve"/>
    </contour>
  </outline>
</glyph>
<glyph name="Delta" format="1">
  <advance width="991"/>
  <unicode hex="0394"/>
  <outline>
    <contour>
      <point x="248" y="139" type="line"/>
      <point x="486" y="949" type="line"/>
      <point x="585" y="1313" type="line"/>
      <point x="610" y="917"/>
      <point x="645" y="530"/>
      <point x="676" y="139" type="curve"/>
    </contour>
    <contour>
      <point x="-28" y="0" type="line"/>
      <point x="919" y="0" type="line"/>
      <point x="728" y="1658" type="line"/>
      <point x="511" y="1658" type="line"/>
    </contour>
  </outline>
</glyph>
<glyph name="Pi" format="1">
  <advance width="1141"/>
  <unicode hex="03A0"/>
  <outline>
    <contour>
      <point x="76" y="0" type="line"/>
      <point x="313" y="0" type="line"/>
      <point x="469" y="1480" type="line"/>
      <point x="883" y="1480" type="line"/>
      <point x="727" y="0" type="line"/>
      <point x="965" y="0" type="line"/>
      <point x="1139" y="1658" type="line"/>
      <point x="250" y="1658" type="line"/>
    </contour>
  </outline>
</glyph>
<glyph name="pi" format="1">
  <advance width="1110"/>
  <unicode hex="03C0"/>
  <outline>
    <contour>
      <point x="464" y="1007" type="line"/>
      <point x="682" y="1007" type="line"/>
      <point x="606" y="288" type="line" smooth="yes"/>
      <point x="585" y="81"/>
      <point x="661" y="-20"/>
      <point x="951" y="-20" type="curve"/>
      <point x="984" y="161" type="line"/>
      <point x="863" y="161"/>
      <point x="832" y="194"/>
      <point x="851" y="369" type="curve" smooth="yes"/>
      <point x="918" y="1007" type="line"/>
      <point x="1084" y="1007" type="line"/>
      <point x="1102" y="1184" type="line"/>
      <point x="110" y="1184" type="line"/>
      <point x="92" y="1007" type="line"/>
      <point x="228" y="1007" type="line"/>
      <point x="122" y="0" type="line"/>
      <point x="358" y="0" type="line"/>
    </contour>
  </outline>
</glyph>
<glyph name="afii10051" format="1">
  <advance width="1140"/>
  <unicode hex="0402"/>
  <outline>
    <contour>
      <point x="210" y="0" type="line"/>
      <point x="454" y="0" type="line"/>
      <point x="534" y="762" type="line"/>
      <point x="596" y="789"/>
      <point x="646" y="800"/>
      <point x="687" y="800" type="curve" smooth="yes"/>
      <point x="802" y="800"/>
      <point x="840" y="708"/>
      <point x="831" y="621" type="curve" smooth="yes"/>
      <point x="813" y="446" type="line" smooth="yes"/>
      <point x="799" y="310"/>
      <point x="762" y="178"/>
      <point x="598" y="178" type="curve"/>
      <point x="579" y="0" type="line"/>
      <point x="620" y="0" type="line" smooth="yes"/>
      <point x="863" y="0"/>
      <point x="1016" y="131"/>
      <point x="1049" y="446" type="curve" smooth="yes"/>
      <point x="1068" y="629" type="line" smooth="yes"/>
      <point x="1093" y="866"/>
      <point x="923" y="967"/>
      <point x="760" y="967" type="curve" smooth="yes"/>
      <point x="680" y="967"/>
      <point x="602" y="943"/>
      <point x="549" y="900" type="curve"/>
      <point x="609" y="1474" type="line"/>
      <point x="866" y="1474" type="line"/>
      <point x="885" y="1658" type="line"/>
      <point x="157" y="1658" type="line"/>
      <point x="138" y="1474" type="line"/>
      <point x="365" y="1474" type="line"/>
    </contour>
  </outline>
</glyph>
<glyph name="afii10053" format="1">
  <advance width="1038"/>
  <unicode hex="0404"/>
  <outline>
    <contour>
      <point x="495" y="-17" type="curve" smooth="yes"/>
      <point x="827" y="-17"/>
      <point x="942" y="190"/>
      <point x="974" y="497" type="curve" smooth="yes"/>
      <point x="981" y="566" type="line"/>
      <point x="744" y="566" type="line"/>
      <point x="738" y="501" type="line"/>
      <point x="717" y="309"/>
      <point x="700" y="178"/>
      <point x="518" y="178" type="curve" smooth="yes"/>
      <point x="371" y="178"/>
      <point x="324" y="251"/>
      <point x="351" y="501" type="curve"/>
      <point x="379" y="771" type="line"/>
      <point x="786" y="771" type="line"/>
      <point x="804" y="945" type="line"/>
      <point x="397" y="945" type="line"/>
      <point x="418" y="1145" type="line" smooth="yes"/>
      <point x="440" y="1347"/>
      <point x="467" y="1480"/>
      <point x="655" y="1480" type="curve" smooth="yes"/>
      <point x="846" y="1480"/>
      <point x="827" y="1352"/>
      <point x="809" y="1177" type="curve"/>
      <point x="804" y="1135" type="line"/>
      <point x="1041" y="1135" type="line"/>
      <point x="1048" y="1195" type="line"/>
      <point x="1079" y="1497"/>
      <point x="988" y="1674"/>
      <point x="673" y="1674" type="curve" smooth="yes"/>
      <point x="317" y="1674"/>
      <point x="199" y="1453"/>
      <point x="163" y="1109" type="curve" smooth="yes"/>
      <point x="103" y="541" type="line" smooth="yes"/>
      <point x="70" y="226"/>
      <point x="139" y="-17"/>
    </contour>
  </outline>
</glyph>
<glyph name="afii10055" format="1">
  <advance width="520"/>
  <unicode hex="0406"/>
  <outline>
    <contour>
      <point x="89" y="0" type="line"/>
      <point x="334" y="0" type="line"/>
      <point x="508" y="1658" type="line"/>
      <point x="263" y="1658" type="line"/>
    </contour>
  </outline>
</glyph>
<glyph name="afii10058" format="1">
  <advance width="1721"/>
  <unicode hex="0409"/>
  <outline>
    <contour>
      <point x="-25" y="0" type="line"/>
      <point x="25" y="-2" type="line" smooth="yes"/>
      <point x="331" y="-14"/>
      <point x="468" y="231"/>
      <point x="548" y="734" type="curve" smooth="yes"/>
      <point x="666" y="1474" type="line"/>
      <point x="952" y="1474" type="line"/>
      <point x="797" y="0" type="line"/>
      <point x="1069" y="0" type="line" smooth="yes"/>
      <point x="1432" y="0"/>
      <point x="1616" y="136"/>
      <point x="1653" y="488" type="curve" smooth="yes"/>
      <point x="1694" y="877"/>
      <point x="1525" y="969"/>
      <point x="1158" y="969" type="curve" smooth="yes"/>
      <point x="1149" y="969" type="line"/>
      <point x="1221" y="1658" type="line"/>
      <point x="467" y="1658" type="line"/>
      <point x="320" y="734" type="line"/>
      <point x="244" y="284"/>
      <point x="157" y="171"/>
      <point x="-5" y="186" type="curve"/>
    </contour>
    <contour>
      <point x="1066" y="178" type="line"/>
      <point x="1130" y="791" type="line"/>
      <point x="1147" y="791" type="line" smooth="yes"/>
      <point x="1378" y="791"/>
      <point x="1442" y="712"/>
      <point x="1419" y="490" type="curve" smooth="yes"/>
      <point x="1390" y="215"/>
      <point x="1288" y="178"/>
      <point x="1088" y="178" type="curve" smooth="yes"/>
    </contour>
  </outline>
</glyph>
<glyph name="afii10059" format="1">
  <advance width="1612"/>
  <unicode hex="040A"/>
  <outline>
    <contour>
      <point x="972" y="0" type="line" smooth="yes"/>
      <point x="1335" y="0"/>
      <point x="1519" y="136"/>
      <point x="1556" y="488" type="curve" smooth="yes"/>
      <point x="1597" y="877"/>
      <point x="1428" y="969"/>
      <point x="1061" y="969" type="curve" smooth="yes"/>
      <point x="1050" y="969" type="line"/>
      <point x="1122" y="1660" type="line"/>
      <point x="872" y="1660" type="line"/>
      <point x="800" y="969" type="line"/>
      <point x="428" y="969" type="line"/>
      <point x="500" y="1660" type="line"/>
      <point x="250" y="1660" type="line"/>
      <point x="76" y="0" type="line"/>
      <point x="326" y="0" type="line"/>
      <point x="409" y="789" type="line"/>
      <point x="781" y="789" type="line"/>
      <point x="698" y="0" type="line"/>
    </contour>
    <contour>
      <point x="967" y="178" type="line"/>
      <point x="1031" y="791" type="line"/>
      <point x="1050" y="791" type="line" smooth="yes"/>
      <point x="1281" y="791"/>
      <point x="1345" y="712"/>
      <point x="1322" y="490" type="curve" smooth="yes"/>
      <point x="1293" y="215"/>
      <point x="1191" y="178"/>
      <point x="991" y="178" type="curve" smooth="yes"/>
    </contour>
  </outline>
</glyph>
<glyph name="afii10060" format="1">
  <advance width="1043"/>
  <unicode hex="040B"/>
  <outline>
    <contour>
      <point x="183" y="0" type="line"/>
      <point x="427" y="0" type="line"/>
      <point x="507" y="762" type="line"/>
      <point x="507" y="762"/>
      <point x="577" y="812"/>
      <point x="651" y="812" type="curve" smooth="yes"/>
      <point x="728" y="812"/>
      <point x="736" y="771"/>
      <point x="730" y="711" type="curve" smooth="yes"/>
      <point x="655" y="0" type="line"/>
      <point x="891" y="0" type="line"/>
      <point x="972" y="769" type="line" smooth="yes"/>
      <point x="984" y="881"/>
      <point x="893" y="961"/>
      <point x="747" y="961" type="curve" smooth="yes"/>
      <point x="611" y="961"/>
      <point x="522" y="900"/>
      <point x="522" y="900" type="curve"/>
      <point x="582" y="1474" type="line"/>
      <point x="839" y="1474" type="line"/>
      <point x="858" y="1658" type="line"/>
      <point x="130" y="1658" type="line"/>
      <point x="111" y="1474" type="line"/>
      <point x="338" y="1474" type="line"/>
    </contour>
  </outline>
</glyph>
<glyph name="afii10145" format="1">
  <advance width="1131"/>
  <unicode hex="040F"/>
  <outline>
    <contour>
      <point x="393" y="-306" type="line"/>
      <point x="580" y="-306" type="line"/>
      <point x="627" y="0" type="line"/>
      <point x="955" y="0" type="line"/>
      <point x="1129" y="1658" type="line"/>
      <point x="879" y="1658" type="line"/>
      <point x="724" y="178" type="line"/>
      <point x="345" y="178" type="line"/>
      <point x="500" y="1658" type="line"/>
      <point x="250" y="1658" type="line"/>
      <point x="76" y="0" type="line"/>
      <point x="410" y="0" type="line"/>
    </contour>
  </outline>
</glyph>
<glyph name="afii10020" format="1">
  <advance width="796"/>
  <unicode hex="0413"/>
  <outline>
    <contour>
      <point x="76" y="0" type="line"/>
      <point x="326" y="0" type="line"/>
      <point x="481" y="1474" type="line"/>
      <point x="871" y="1474" type="line"/>
      <point x="890" y="1658" type="line"/>
      <point x="250" y="1658" type="line"/>
    </contour>
  </outline>
</glyph>
<glyph name="afii10021" format="1">
  <advance width="1304"/>
  <unicode hex="0414"/>
  <outline>
    <contour>
      <point x="-60" y="-306" type="line"/>
      <point x="133" y="-306" type="line"/>
      <point x="185" y="0" type="line"/>
      <point x="999" y="0" type="line"/>
      <point x="987" y="-306" type="line"/>
      <point x="1180" y="-306" type="line"/>
      <point x="1231" y="178" type="line"/>
      <point x="1066" y="178" type="line"/>
      <point x="1221" y="1658" type="line"/>
      <point x="507" y="1658" type="line"/>
      <point x="435" y="1179" type="line" smooth="yes"/>
      <point x="323" y="439"/>
      <point x="194" y="278"/>
      <point x="70" y="178" type="curve"/>
      <point x="-9" y="178" type="line"/>
    </contour>
    <contour>
      <point x="299" y="178" type="line"/>
      <point x="432" y="297"/>
      <point x="551" y="401"/>
      <point x="651" y="1119" type="curve" smooth="yes"/>
      <point x="700" y="1474" type="line"/>
      <point x="952" y="1474" type="line"/>
      <point x="816" y="178" type="line"/>
    </contour>
  </outline>
</glyph>
<glyph name="afii10024" format="1">
  <advance width="1405"/>
  <unicode hex="0416"/>
  <outline>
    <contour>
      <point x="-48" y="0" type="line"/>
      <point x="197" y="0" type="line"/>
      <point x="620" y="828" type="line"/>
      <point x="634" y="828" type="line"/>
      <point x="547" y="0" type="line"/>
      <point x="758" y="0" type="line"/>
      <point x="845" y="828" type="line"/>
      <point x="859" y="828" type="line"/>
      <point x="1108" y="0" type="line"/>
      <point x="1353" y="0" type="line"/>
      <point x="1062" y="845" type="line"/>
      <point x="1488" y="1658" type="line"/>
      <point x="1246" y="1658" type="line"/>
      <point x="861" y="857" type="line"/>
      <point x="848" y="857" type="line"/>
      <point x="932" y="1658" type="line"/>
      <point x="721" y="1658" type="line"/>
      <point x="637" y="857" type="line"/>
      <point x="624" y="857" type="line"/>
      <point x="407" y="1658" type="line"/>
      <point x="165" y="1658" type="line"/>
      <point x="421" y="845" type="line"/>
    </contour>
  </outline>
</glyph>
<glyph name="afii10025" format="1">
  <advance width="990"/>
  <unicode hex="0417"/>
  <outline>
    <contour>
      <point x="440" y="-17" type="curve" smooth="yes"/>
      <point x="737" y="-17"/>
      <point x="874" y="174"/>
      <point x="906" y="471" type="curve"/>
      <point x="928" y="686"/>
      <point x="861" y="827"/>
      <point x="711" y="878" type="curve"/>
      <point x="859" y="922"/>
      <point x="966" y="1048"/>
      <point x="986" y="1241" type="curve" smooth="yes"/>
      <point x="1015" y="1511"/>
      <point x="869" y="1674"/>
      <point x="596" y="1674" type="curve" smooth="yes"/>
      <point x="325" y="1674"/>
      <point x="148" y="1512"/>
      <point x="120" y="1243" type="curve"/>
      <point x="113" y="1184" type="line"/>
      <point x="350" y="1184" type="line"/>
      <point x="352" y="1203"/>
      <point x="355" y="1222"/>
      <point x="358" y="1240" type="curve" smooth="yes"/>
      <point x="382" y="1376"/>
      <point x="443" y="1480"/>
      <point x="585" y="1480" type="curve" smooth="yes"/>
      <point x="726" y="1480"/>
      <point x="765" y="1385"/>
      <point x="749" y="1241" type="curve"/>
      <point x="732" y="1077"/>
      <point x="658" y="980"/>
      <point x="445" y="966" type="curve" smooth="yes"/>
      <point x="428" y="965"/>
      <point x="411" y="965"/>
      <point x="393" y="965" type="curve"/>
      <point x="373" y="774" type="line"/>
      <point x="393" y="774"/>
      <point x="411" y="773"/>
      <point x="428" y="772" type="curve" smooth="yes"/>
      <point x="640" y="755"/>
      <point x="686" y="636"/>
      <point x="669" y="471" type="curve" smooth="yes"/>
      <point x="651" y="306"/>
      <point x="621" y="178"/>
      <point x="461" y="178" type="curve" smooth="yes"/>
      <point x="321" y="178"/>
      <point x="300" y="279"/>
      <point x="308" y="411" type="curve" smooth="yes"/>
      <point x="310" y="431"/>
      <point x="311" y="452"/>
      <point x="314" y="473" type="curve"/>
      <point x="77" y="473" type="line"/>
      <point x="71" y="414" type="line"/>
      <point x="42" y="144"/>
      <point x="167" y="-17"/>
    </contour>
  </outline>
</glyph>
<glyph name="afii10026" format="1">
  <advance width="1124"/>
  <unicode hex="0418"/>
  <outline>
    <contour>
      <point x="76" y="0" type="line"/>
      <point x="260" y="0" type="line"/>
      <point x="847" y="1130" type="line"/>
      <point x="728" y="0" type="line"/>
      <point x="948" y="0" type="line"/>
      <point x="1122" y="1658" type="line"/>
      <point x="943" y="1658" type="line"/>
      <point x="354" y="551" type="line"/>
      <point x="470" y="1658" type="line"/>
      <point x="250" y="1658" type="line"/>
    </contour>
  </outline>
</glyph>
<glyph name="afii10028" format="1">
  <advance width="1053"/>
  <unicode hex="041A"/>
  <outline>
    <contour>
      <point x="76" y="0" type="line"/>
      <point x="326" y="0" type="line"/>
      <point x="411" y="808" type="line"/>
      <point x="490" y="808" type="line"/>
      <point x="727" y="0" type="line"/>
      <point x="977" y="0" type="line"/>
      <point x="713" y="873" type="line"/>
      <point x="1114" y="1658" type="line"/>
      <point x="864" y="1658" type="line"/>
      <point x="502" y="928" type="line"/>
      <point x="424" y="928" type="line"/>
      <point x="500" y="1658" type="line"/>
      <point x="250" y="1658" type="line"/>
    </contour>
  </outline>
</glyph>
<glyph name="afii10029" format="1">
  <advance width="1196"/>
  <unicode hex="041B"/>
  <outline>
    <contour>
      <point x="-53" y="0" type="line"/>
      <point x="332" y="-33"/>
      <point x="447" y="265"/>
      <point x="521" y="735" type="curve" smooth="yes"/>
      <point x="638" y="1474" type="line"/>
      <point x="925" y="1474" type="line"/>
      <point x="770" y="0" type="line"/>
      <point x="1020" y="0" type="line"/>
      <point x="1194" y="1658" type="line"/>
      <point x="442" y="1658" type="line"/>
      <point x="289" y="735" type="line" smooth="yes"/>
      <point x="202" y="214"/>
      <point x="108" y="179"/>
      <point x="-33" y="186" type="curve"/>
    </contour>
  </outline>
</glyph>
<glyph name="afii10030" format="1">
  <advance width="1361"/>
  <unicode hex="041C"/>
  <outline>
    <contour>
      <point x="74" y="0" type="line"/>
      <point x="271" y="0" type="line"/>
      <point x="392" y="1078" type="line"/>
      <point x="562" y="0" type="line"/>
      <point x="699" y="0" type="line"/>
      <point x="1096" y="1078" type="line"/>
      <point x="991" y="0" type="line"/>
      <point x="1187" y="0" type="line"/>
      <point x="1333" y="1658" type="line"/>
      <point x="1110" y="1658" type="line"/>
      <point x="673" y="411" type="line"/>
      <point x="500" y="1658" type="line"/>
      <point x="276" y="1658" type="line"/>
    </contour>
  </outline>
</glyph>
<glyph name="afii10033" format="1">
  <advance width="1180"/>
  <unicode hex="041F"/>
  <outline>
    <contour>
      <point x="76" y="0" type="line"/>
      <point x="326" y="0" type="line"/>
      <point x="482" y="1480" type="line"/>
      <point x="910" y="1480" type="line"/>
      <point x="754" y="0" type="line"/>
      <point x="1004" y="0" type="line"/>
      <point x="1178" y="1658" type="line"/>
      <point x="250" y="1658" type="line"/>
    </contour>
  </outline>
</glyph>
<glyph name="afii10037" format="1">
  <advance width="925"/>
  <unicode hex="0423"/>
  <outline>
    <contour>
      <point x="29" y="-261" type="line"/>
      <point x="501" y="-291"/>
      <point x="479" y="-163"/>
      <point x="581" y="176" type="curve" smooth="yes"/>
      <point x="1029" y="1658" type="line"/>
      <point x="790" y="1658" type="line"/>
      <point x="598" y="957" type="line"/>
      <point x="476" y="438" type="line"/>
      <point x="454" y="961" type="line"/>
      <point x="394" y="1658" type="line"/>
      <point x="159" y="1658" type="line"/>
      <point x="324" y="179" type="line" smooth="yes"/>
      <point x="345" y="-16"/>
      <point x="331" y="-101"/>
      <point x="49" y="-69" type="curve"/>
    </contour>
  </outline>
</glyph>
<glyph name="afii10038" format="1">
  <advance width="1378"/>
  <unicode hex="0424"/>
  <outline>
    <contour>
      <point x="503" y="-67" type="line"/>
      <point x="753" y="-67" type="line"/>
      <point x="782" y="207" type="line"/>
      <point x="856" y="205" type="line"/>
      <point x="1109" y="180"/>
      <point x="1264" y="305"/>
      <point x="1300" y="644" type="curve" smooth="yes"/>
      <point x="1342" y="1047" type="line" smooth="yes"/>
      <point x="1378" y="1388"/>
      <point x="1248" y="1502"/>
      <point x="991" y="1486" type="curve"/>
      <point x="916" y="1485" type="line"/>
      <point x="950" y="1808" type="line"/>
      <point x="700" y="1808" type="line"/>
      <point x="666" y="1485" type="line"/>
      <point x="600" y="1486" type="line"/>
      <point x="346" y="1502"/>
      <point x="192" y="1386"/>
      <point x="156" y="1047" type="curve" smooth="yes"/>
      <point x="114" y="644" type="line" smooth="yes"/>
      <point x="78" y="303"/>
      <point x="207" y="181"/>
      <point x="465" y="205" type="curve"/>
      <point x="532" y="207" type="line"/>
    </contour>
    <contour>
      <point x="520" y="354" type="line"/>
      <point x="325" y="342"/>
      <point x="316" y="408"/>
      <point x="341" y="644" type="curve" smooth="yes"/>
      <point x="383" y="1047" type="line" smooth="yes"/>
      <point x="408" y="1283"/>
      <point x="431" y="1349"/>
      <point x="624" y="1337" type="curve"/>
      <point x="650" y="1336" type="line"/>
      <point x="547" y="355" type="line"/>
    </contour>
    <contour>
      <point x="832" y="354" type="curve"/>
      <point x="797" y="355" type="line"/>
      <point x="900" y="1336" type="line"/>
      <point x="936" y="1337" type="line"/>
      <point x="1131" y="1349"/>
      <point x="1140" y="1283"/>
      <point x="1115" y="1047" type="curve" smooth="yes"/>
      <point x="1073" y="644" type="line" smooth="yes"/>
      <point x="1048" y="408"/>
      <point x="1025" y="342"/>
    </contour>
  </outline>
</glyph>
<glyph name="afii10040" format="1">
  <advance width="1294"/>
  <unicode hex="0426"/>
  <outline>
    <contour>
      <point x="968" y="-306" type="line"/>
      <point x="1161" y="-306" type="line"/>
      <point x="1212" y="178" type="line"/>
      <point x="1047" y="178" type="line"/>
      <point x="1202" y="1658" type="line"/>
      <point x="952" y="1658" type="line"/>
      <point x="797" y="178" type="line"/>
      <point x="345" y="178" type="line"/>
      <point x="500" y="1658" type="line"/>
      <point x="250" y="1658" type="line"/>
      <point x="76" y="0" type="line"/>
      <point x="980" y="0" type="line"/>
    </contour>
  </outline>
</glyph>
<glyph name="afii10041" format="1">
  <advance width="1112"/>
  <unicode hex="0427"/>
  <outline>
    <contour>
      <point x="686" y="0" type="line"/>
      <point x="936" y="0" type="line"/>
      <point x="1110" y="1658" type="line"/>
      <point x="860" y="1658" type="line"/>
      <point x="783" y="920" type="line"/>
      <point x="703" y="904"/>
      <point x="638" y="897"/>
      <point x="585" y="897" type="curve" smooth="yes"/>
      <point x="416" y="897"/>
      <point x="376" y="977"/>
      <point x="391" y="1125" type="curve" smooth="yes"/>
      <point x="447" y="1658" type="line"/>
      <point x="222" y="1658" type="line"/>
      <point x="166" y="1124" type="line" smooth="yes"/>
      <point x="139" y="866"/>
      <point x="256" y="735"/>
      <point x="518" y="735" type="curve" smooth="yes"/>
      <point x="590" y="735"/>
      <point x="673" y="745"/>
      <point x="766" y="764" type="curve"/>
    </contour>
  </outline>
</glyph>
<glyph name="afii10042" format="1">
  <advance width="1552"/>
  <unicode hex="0428"/>
  <outline>
    <contour>
      <point x="76" y="0" type="line"/>
      <point x="1376" y="0" type="line"/>
      <point x="1550" y="1658" type="line"/>
      <point x="1300" y="1658" type="line"/>
      <point x="1145" y="180" type="line"/>
      <point x="877" y="180" type="line"/>
      <point x="1032" y="1658" type="line"/>
      <point x="782" y="1658" type="line"/>
      <point x="627" y="180" type="line"/>
      <point x="345" y="180" type="line"/>
      <point x="500" y="1658" type="line"/>
      <point x="250" y="1658" type="line"/>
    </contour>
  </outline>
</glyph>
<glyph name="afii10043" format="1">
  <advance width="1643"/>
  <unicode hex="0429"/>
  <outline>
    <contour>
      <point x="1317" y="-306" type="line"/>
      <point x="1510" y="-306" type="line"/>
      <point x="1561" y="178" type="line"/>
      <point x="1396" y="178" type="line"/>
      <point x="1551" y="1658" type="line"/>
      <point x="1301" y="1658" type="line"/>
      <point x="1146" y="178" type="line"/>
      <point x="877" y="178" type="line"/>
      <point x="1032" y="1658" type="line"/>
      <point x="782" y="1658" type="line"/>
      <point x="627" y="178" type="line"/>
      <point x="345" y="178" type="line"/>
      <point x="500" y="1658" type="line"/>
      <point x="250" y="1658" type="line"/>
      <point x="76" y="0" type="line"/>
      <point x="1329" y="0" type="line"/>
    </contour>
  </outline>
</glyph>
<glyph name="afii10044" format="1">
  <advance width="1170"/>
  <unicode hex="042A"/>
  <outline>
    <contour>
      <point x="223" y="0" type="line"/>
      <point x="531" y="0" type="line" smooth="yes"/>
      <point x="894" y="0"/>
      <point x="1078" y="136"/>
      <point x="1115" y="488" type="curve" smooth="yes"/>
      <point x="1156" y="877"/>
      <point x="987" y="969"/>
      <point x="620" y="969" type="curve" smooth="yes"/>
      <point x="575" y="969" type="line"/>
      <point x="647" y="1658" type="line"/>
      <point x="133" y="1658" type="line"/>
      <point x="113" y="1469" type="line"/>
      <point x="377" y="1469" type="line"/>
    </contour>
    <contour>
      <point x="492" y="178" type="line"/>
      <point x="556" y="791" type="line"/>
      <point x="609" y="791" type="line" smooth="yes"/>
      <point x="840" y="791"/>
      <point x="904" y="712"/>
      <point x="881" y="490" type="curve" smooth="yes"/>
      <point x="852" y="215"/>
      <point x="750" y="178"/>
      <point x="550" y="178" type="curve" smooth="yes"/>
    </contour>
  </outline>
</glyph>
<glyph name="afii10046" format="1">
  <advance width="1023"/>
  <unicode hex="042C"/>
  <outline>
    <contour>
      <point x="76" y="0" type="line"/>
      <point x="384" y="0" type="line" smooth="yes"/>
      <point x="747" y="0"/>
      <point x="931" y="136"/>
      <point x="968" y="488" type="curve" smooth="yes"/>
      <point x="1009" y="877"/>
      <point x="840" y="969"/>
      <point x="473" y="969" type="curve" smooth="yes"/>
      <point x="428" y="969" type="line"/>
      <point x="500" y="1658" type="line"/>
      <point x="250" y="1658" type="line"/>
    </contour>
    <contour>
      <point x="345" y="178" type="line"/>
      <point x="409" y="791" type="line"/>
      <point x="462" y="791" type="line" smooth="yes"/>
      <point x="693" y="791"/>
      <point x="757" y="712"/>
      <point x="734" y="490" type="curve" smooth="yes"/>
      <point x="705" y="215"/>
      <point x="603" y="178"/>
      <point x="403" y="178" type="curve" smooth="yes"/>
    </contour>
  </outline>
</glyph>
<glyph name="afii10047" format="1">
  <advance width="1070"/>
  <unicode hex="042D"/>
  <outline>
    <contour>
      <point x="474" y="8" type="curve" smooth="yes"/>
      <point x="830" y="8"/>
      <point x="948" y="229"/>
      <point x="984" y="573" type="curve" smooth="yes"/>
      <point x="1044" y="1141" type="line" smooth="yes"/>
      <point x="1077" y="1456"/>
      <point x="1008" y="1699"/>
      <point x="652" y="1699" type="curve" smooth="yes"/>
      <point x="320" y="1699"/>
      <point x="205" y="1492"/>
      <point x="173" y="1185" type="curve"/>
      <point x="165" y="1112" type="line"/>
      <point x="402" y="1112" type="line"/>
      <point x="409" y="1181" type="line" smooth="yes"/>
      <point x="429" y="1373"/>
      <point x="447" y="1504"/>
      <point x="629" y="1504" type="curve" smooth="yes"/>
      <point x="776" y="1504"/>
      <point x="822" y="1431"/>
      <point x="796" y="1181" type="curve" smooth="yes"/>
      <point x="772" y="949" type="line"/>
      <point x="497" y="949" type="line"/>
      <point x="480" y="786" type="line"/>
      <point x="755" y="786" type="line"/>
      <point x="728" y="537" type="line" smooth="yes"/>
      <point x="707" y="335"/>
      <point x="680" y="202"/>
      <point x="492" y="202" type="curve" smooth="yes"/>
      <point x="301" y="202"/>
      <point x="320" y="330"/>
      <point x="338" y="505" type="curve" smooth="yes"/>
      <point x="345" y="571" type="line"/>
      <point x="108" y="571" type="line"/>
      <point x="99" y="487" type="line" smooth="yes"/>
      <point x="67" y="185"/>
      <point x="159" y="8"/>
    </contour>
  </outline>
</glyph>
<glyph name="afii10048" format="1">
  <advance width="1489"/>
  <unicode hex="042E"/>
  <outline>
    <contour>
      <point x="919" y="-17" type="curve" smooth="yes"/>
      <point x="1237" y="-17"/>
      <point x="1364" y="200"/>
      <point x="1399" y="533" type="curve" smooth="yes"/>
      <point x="1462" y="1134" type="line" smooth="yes"/>
      <point x="1497" y="1467"/>
      <point x="1415" y="1674"/>
      <point x="1097" y="1674" type="curve" smooth="yes"/>
      <point x="777" y="1674"/>
      <point x="654" y="1471"/>
      <point x="618" y="1134" type="curve" smooth="yes"/>
      <point x="598" y="943" type="line"/>
      <point x="408" y="943" type="line"/>
      <point x="483" y="1658" type="line"/>
      <point x="250" y="1658" type="line"/>
      <point x="76" y="0" type="line"/>
      <point x="309" y="0" type="line"/>
      <point x="388" y="755" type="line"/>
      <point x="578" y="755" type="line"/>
      <point x="555" y="533" type="line" smooth="yes"/>
      <point x="520" y="196"/>
      <point x="599" y="-17"/>
    </contour>
    <contour>
      <point x="940" y="178" type="curve" smooth="yes"/>
      <point x="772" y="178"/>
      <point x="754" y="295"/>
      <point x="773" y="473" type="curve" smooth="yes"/>
      <point x="848" y="1193" type="line" smooth="yes"/>
      <point x="867" y="1371"/>
      <point x="909" y="1480"/>
      <point x="1077" y="1480" type="curve" smooth="yes"/>
      <point x="1245" y="1480"/>
      <point x="1263" y="1371"/>
      <point x="1244" y="1193" type="curve" smooth="yes"/>
      <point x="1169" y="473" type="line" smooth="yes"/>
      <point x="1150" y="295"/>
      <point x="1108" y="178"/>
    </contour>
  </outline>
</glyph>
<glyph name="afii10049" format="1">
  <advance width="1123"/>
  <unicode hex="042F"/>
  <outline>
    <contour>
      <point x="-27" y="0" type="line"/>
      <point x="252" y="0" type="line"/>
      <point x="609" y="684" type="line"/>
      <point x="656" y="684" type="line" smooth="yes"/>
      <point x="769" y="684" type="line"/>
      <point x="697" y="0" type="line"/>
      <point x="947" y="0" type="line"/>
      <point x="1121" y="1658" type="line"/>
      <point x="789" y="1658" type="line" smooth="yes"/>
      <point x="392" y="1658"/>
      <point x="236" y="1470"/>
      <point x="207" y="1199" type="curve" smooth="yes"/>
      <point x="182" y="958"/>
      <point x="266" y="810"/>
      <point x="401" y="744" type="curve"/>
    </contour>
    <contour>
      <point x="726" y="862" type="line" smooth="yes"/>
      <point x="491" y="862"/>
      <point x="419" y="970"/>
      <point x="443" y="1200" type="curve" smooth="yes"/>
      <point x="464" y="1398"/>
      <point x="575" y="1480"/>
      <point x="785" y="1480" type="curve" smooth="yes"/>
      <point x="853" y="1480" type="line"/>
      <point x="788" y="862" type="line"/>
    </contour>
  </outline>
</glyph>
<glyph name="afii10066" format="1">
  <advance width="897"/>
  <unicode hex="0431"/>
  <outline>
    <contour>
      <point x="385" y="-17" type="curve" smooth="yes"/>
      <point x="600" y="-17"/>
      <point x="766" y="64"/>
      <point x="805" y="434" type="curve" smooth="yes"/>
      <point x="829" y="664" type="line" smooth="yes"/>
      <point x="862" y="981"/>
      <point x="746" y="1082"/>
      <point x="607" y="1082" type="curve" smooth="yes"/>
      <point x="538" y="1082"/>
      <point x="462" y="1057"/>
      <point x="397" y="1021" type="curve"/>
      <point x="412" y="1156" type="line"/>
      <point x="453" y="1555"/>
      <point x="517" y="1378"/>
      <point x="868" y="1531" type="curve"/>
      <point x="828" y="1721" type="line"/>
      <point x="351" y="1541"/>
      <point x="237" y="1740"/>
      <point x="158" y="990" type="curve" smooth="yes"/>
      <point x="96" y="399" type="line" smooth="yes"/>
      <point x="67" y="127"/>
      <point x="171" y="-17"/>
    </contour>
    <contour>
      <point x="426" y="158" type="curve" smooth="yes"/>
      <point x="330" y="158"/>
      <point x="313" y="222"/>
      <point x="331" y="391" type="curve" smooth="yes"/>
      <point x="381" y="868" type="line"/>
      <point x="445" y="906"/>
      <point x="493" y="920"/>
      <point x="528" y="920" type="curve" smooth="yes"/>
      <point x="593" y="920"/>
      <point x="613" y="866"/>
      <point x="600" y="738" type="curve" smooth="yes"/>
      <point x="560" y="360" type="line" smooth="yes"/>
      <point x="545" y="216"/>
      <point x="506" y="158"/>
    </contour>
  </outline>
</glyph>
